<?xml version="1.0" encoding="utf-8"?>
<!-- Generator: Adobe Illustrator 23.0.1, SVG Export Plug-In . SVG Version: 6.00 Build 0)  -->
<svg version="1.1" xmlns="http://www.w3.org/2000/svg" xmlns:xlink="http://www.w3.org/1999/xlink" x="0px" y="0px"
	 viewBox="0 0 49.8 50.7" style="enable-background:new 0 0 49.8 50.7;" xml:space="preserve">
<style type="text/css">
	.st0{opacity:0.3;}
	.st1{fill:#E87000;}
	.st2{fill:#B1712C;}
	.st3{fill:#E3A15B;}
	.st4{fill:#C78640;}
	.st5{fill:#FFC431;}
	.st6{fill:#69B0EE;}
	.st7{fill:#575B6D;}
	.st8{fill:#EAB54E;}
	.st9{fill:#414451;}
	.st10{fill:#F6C863;}
	.st11{fill:#303C42;}
	.st12{fill:#FFEE58;}
	.st13{fill:#FFFFFF;}
	.st14{fill:#E53935;}
	.st15{opacity:0.1;enable-background:new    ;}
	.st16{opacity:0.2;fill:#FFFFFF;enable-background:new    ;}
	.st17{fill:url(#SVGID_1_);}
	.st18{fill:url(#SVGID_2_);}
	.st19{fill:#FFC850;}
	.st20{fill:#59C7D3;}
	.st21{fill:#DAE5EA;}
	.st22{fill:#C9D1D3;}
	.st23{fill:#465058;}
	.st24{fill:#323E44;}
	.st25{fill:#64717A;}
	.st26{fill:#44B6BC;}
	.st27{fill:#E3F6FF;}
	.st28{fill:#CEE8F2;}
</style>
<g id="Слой_1">
</g>
<g id="work">
	<g id="Circle_Grid">
		<circle class="st6" cx="24.9" cy="25.3" r="22.6"/>
	</g>
	<g id="icon">
		<path class="st7" d="M20.1,17.7h-1.5v-2.2c0-1,0.9-1.9,1.9-1.9h8.8c1,0,1.9,0.9,1.9,1.9v2h-1.5v-2c0-0.2-0.2-0.4-0.4-0.4h-8.8
			c-0.2,0-0.4,0.2-0.4,0.4V17.7z"/>
		<path class="st8" d="M17.8,16.9h3.1c0.2,0,0.4,0.2,0.4,0.4v0.9l0,0h-3.8l0,0v-0.9C17.4,17.1,17.6,16.9,17.8,16.9L17.8,16.9z"/>
		<path class="st8" d="M28.8,16.9H32c0.2,0,0.4,0.2,0.4,0.4v0.9l0,0h-3.8l0,0v-0.9C28.5,17.1,28.6,16.9,28.8,16.9z"/>
		<path class="st7" d="M38.6,19.1v17.2c0,0.4-0.3,0.8-0.8,0.8H11.9c-0.4,0-0.8-0.3-0.8-0.8V19.1c0-0.6,0.5-1.1,1.1-1.1h25.2
			C38.1,17.9,38.6,18.5,38.6,19.1L38.6,19.1z"/>
		<path class="st7" d="M38.8,24.6l-13.9,3.6L11,24.6c-0.3-0.1-0.6-0.4-0.6-0.7v-5.2c0-0.4,0.3-0.8,0.8-0.8h27.4
			c0.4,0,0.8,0.3,0.8,0.8c0,0,0,0,0,0v5.2C39.3,24.2,39.1,24.5,38.8,24.6L38.8,24.6z"/>
		<path class="st9" d="M38.6,24.7v0.9l-13.7,3.6l-13.7-3.6v-0.9l13.7,3.6L38.6,24.7z"/>
		<path class="st10" d="M23.4,26h3c0.2,0,0.4,0.2,0.4,0.4v4.3c0,0.2-0.2,0.4-0.4,0.4h-3c-0.2,0-0.4-0.2-0.4-0.4v-4.3
			C23,26.1,23.2,26,23.4,26z"/>
		<path class="st8" d="M26,26.7v3.5h-2.2v-3.5L26,26.7z"/>
	</g>
</g>
<g id="crack">
</g>
<g id="star">
</g>
<g id="star_x5F_none">
</g>
<g id="robot">
</g>
</svg>
