<?xml version="1.0" encoding="utf-8"?>
<!-- Generator: Adobe Illustrator 23.0.1, SVG Export Plug-In . SVG Version: 6.00 Build 0)  -->
<svg version="1.1" xmlns="http://www.w3.org/2000/svg" xmlns:xlink="http://www.w3.org/1999/xlink" x="0px" y="0px"
	 viewBox="0 0 13.6 15.7" style="enable-background:new 0 0 13.6 15.7;" xml:space="preserve">
<style type="text/css">
	.st0{opacity:0.3;}
	.st1{fill:#E87000;}
	.st2{fill:#B1712C;}
	.st3{fill:#E3A15B;}
	.st4{fill:#C78640;}
	.st5{fill:#FFC431;}
	.st6{fill:#69B0EE;}
	.st7{fill:#575B6D;}
	.st8{fill:#EAB54E;}
	.st9{fill:#414451;}
	.st10{fill:#F6C863;}
	.st11{fill:#303C42;}
	.st12{fill:#FFEE58;}
	.st13{fill:#FFFFFF;}
	.st14{fill:#E53935;}
	.st15{opacity:0.1;enable-background:new    ;}
	.st16{opacity:0.2;fill:#FFFFFF;enable-background:new    ;}
	.st17{fill:url(#SVGID_1_);}
	.st18{fill:url(#SVGID_2_);}
	.st19{fill:#FFC850;}
	.st20{fill:#59C7D3;}
	.st21{fill:#DAE5EA;}
	.st22{fill:#C9D1D3;}
	.st23{fill:#465058;}
	.st24{fill:#323E44;}
	.st25{fill:#64717A;}
	.st26{fill:#44B6BC;}
	.st27{fill:#E3F6FF;}
	.st28{fill:#CEE8F2;}
</style>
<g id="Слой_1">
</g>
<g id="work">
</g>
<g id="crack">
</g>
<g id="star">
</g>
<g id="star_x5F_none">
	<path class="st19" d="M12,6.6L8.5,6.2L7,3C7,2.8,6.8,2.8,6.6,2.8c0,0-0.1,0.1-0.1,0.1L5.1,6.2L1.6,6.6c-0.2,0-0.3,0.3-0.2,0.5
		l2.7,2.3l-0.8,3.5c-0.1,0.2,0.2,0.4,0.4,0.3l3.1-1.8l3.1,1.8c0.2,0.1,0.5-0.1,0.4-0.3L9.5,9.4l2.7-2.3C12.3,6.9,12.2,6.6,12,6.6z"
		/>
</g>
<g id="robot">
</g>
</svg>
