<?xml version="1.0" encoding="utf-8"?>
<!-- Generator: Adobe Illustrator 23.0.1, SVG Export Plug-In . SVG Version: 6.00 Build 0)  -->
<svg version="1.1" xmlns="http://www.w3.org/2000/svg" xmlns:xlink="http://www.w3.org/1999/xlink" x="0px" y="0px"
	 viewBox="0 0 25.3 23.2" style="enable-background:new 0 0 25.3 23.2;" xml:space="preserve">
<style type="text/css">
	.st0{opacity:0.3;}
	.st1{fill:#E87000;}
	.st2{fill:#B1712C;}
	.st3{fill:#E3A15B;}
	.st4{fill:#C78640;}
	.st5{fill:#FFC431;}
	.st6{fill:#69B0EE;}
	.st7{fill:#575B6D;}
	.st8{fill:#EAB54E;}
	.st9{fill:#414451;}
	.st10{fill:#F6C863;}
	.st11{fill:#303C42;}
	.st12{fill:#FFEE58;}
	.st13{fill:#FFFFFF;}
	.st14{fill:#E53935;}
	.st15{opacity:0.1;enable-background:new    ;}
	.st16{opacity:0.2;fill:#FFFFFF;enable-background:new    ;}
	.st17{fill:url(#SVGID_1_);}
	.st18{fill:url(#SVGID_2_);}
	.st19{fill:#FFC850;}
	.st20{fill:#59C7D3;}
	.st21{fill:#DAE5EA;}
	.st22{fill:#C9D1D3;}
	.st23{fill:#465058;}
	.st24{fill:#323E44;}
	.st25{fill:#64717A;}
	.st26{fill:#44B6BC;}
	.st27{fill:#E3F6FF;}
	.st28{fill:#CEE8F2;}
</style>
<g id="Слой_1">
</g>
<g id="work">
</g>
<g id="crack">
	<g>
		<path class="st11" d="M22.1,12.1c0-1.2-0.4-2.7-0.9-3.8c2.8-0.7,4-5.7,4-7.8C25.3,0.2,25,0,24.7,0c-3,0-7,1.9-7.7,4
			c-1.1-0.4-2.7-0.9-4.4-0.9S9.4,3.6,8.3,4C7.5,1.9,3.5,0,0.5,0C0.2,0,0,0.2,0,0.5c0,2.1,1.2,7.1,4,7.8c-0.4,1.1-0.9,2.6-0.9,3.8
			c0,0.9-0.2,1.3-0.4,1.7c-0.3,0.5-0.6,1.1-0.6,2.5c0,2.8,3.7,6.8,10.5,6.8s10.5-4,10.5-6.8c0-1.5-0.3-2-0.6-2.5
			C22.3,13.4,22.1,13,22.1,12.1z"/>
		<path class="st12" d="M19.8,6.4c0.3-0.1,0.6,0,0.7,0.2c0,0,0.2,0.3,0.3,0.7c0.5-0.1,0.9-0.4,1.3-0.8c-0.1-1.1-0.7-3.5-1.4-4.5
			c-1.4,0.7-2.5,1.6-2.8,2.4c0.4,0.2,0.7,0.4,0.7,0.4C18.9,5,19,5.3,18.9,5.5c-0.1,0.3-0.5,0.3-0.7,0.2c0,0-2.6-1.5-5.5-1.5
			c-2.9,0-5.5,1.5-5.5,1.5C7,5.8,6.9,5.8,6.8,5.8c-0.2,0-0.4-0.1-0.5-0.3C6.2,5.3,6.3,5,6.6,4.8c0,0,0.3-0.2,0.7-0.4
			C7.1,3.7,5.9,2.7,4.5,2.1C3.8,3,3.2,5.5,3.1,6.6C3.5,7,4,7.3,4.4,7.3c0.2-0.4,0.3-0.7,0.3-0.7c0.1-0.3,0.5-0.4,0.7-0.2
			c0.3,0.1,0.4,0.5,0.2,0.7c0,0-1.5,3-1.5,5c0,1.2-0.3,1.7-0.6,2.2c-0.1,0.3-0.3,0.5-0.4,0.9c0.4-0.3,0.9-0.5,1.5-0.5
			c1.5,0,2.6,1.2,2.6,2.6c0,1.2-0.8,2.2-1.9,2.5c1.6,1.2,4,2.2,7.2,2.2s5.6-1,7.2-2.2c-1.1-0.3-1.9-1.3-1.9-2.5
			c0-1.5,1.2-2.6,2.6-2.6c0.5,0,1,0.2,1.5,0.5c-0.1-0.4-0.2-0.6-0.4-0.9c-0.3-0.5-0.6-1-0.6-2.2c0-2.1-1.5-5-1.5-5
			C19.4,6.8,19.5,6.5,19.8,6.4z"/>
		<circle class="st11" cx="7.9" cy="12.1" r="1.6"/>
		<circle class="st13" cx="8.4" cy="11.6" r="0.5"/>
		<circle class="st11" cx="17.4" cy="12.1" r="1.6"/>
		<circle class="st13" cx="16.9" cy="11.6" r="0.5"/>
		<path class="st11" d="M15.4,15.5c0,0.1-0.3,0.2-0.8,0.3c-0.5,0.1-1.2,0-1.6-0.4c-0.1-0.1-0.2-0.1-0.3-0.1c0.1,0,0.3-0.1,0.4-0.2
			l0.5-0.5c0.2-0.2,0.2-0.4,0.1-0.6c-0.1-0.2-0.3-0.3-0.5-0.3h-1.1c-0.2,0-0.4,0.1-0.5,0.3c-0.1,0.2,0,0.4,0.1,0.6l0.5,0.5
			c0.1,0.1,0.2,0.2,0.4,0.2c-0.1,0-0.2,0-0.3,0.1c-0.4,0.4-1.1,0.4-1.6,0.4c-0.5-0.1-0.8-0.2-0.8-0.3c-0.2-0.2-0.5-0.3-0.7-0.1
			c-0.2,0.2-0.3,0.5-0.1,0.7c0.4,0.5,1.1,0.7,1.5,0.7c0,0.8,0,1.9,0.7,2.6c0.4,0.4,0.8,0.5,1.4,0.5c0.5,0,1-0.2,1.3-0.6
			c0.7-0.7,0.8-1.9,0.8-2.6c0.4,0,1.1-0.2,1.5-0.7c0.2-0.2,0.1-0.6-0.1-0.7C15.9,15.2,15.5,15.3,15.4,15.5z"/>
		<path class="st14" d="M12,18.7c-0.4-0.4-0.4-1.3-0.4-1.9c0.4-0.1,0.8-0.2,1.1-0.4c0.3,0.2,0.7,0.3,1.1,0.3c0,0.6-0.1,1.5-0.5,1.9
			C12.8,19.1,12.3,19,12,18.7z"/>
		<path class="st15" d="M12.6,17.4c0.3,0.2,0.6,0.3,1,0.3c0.1-0.3,0.1-0.6,0.1-0.9c-0.4-0.1-0.8-0.2-1.1-0.3
			c-0.3,0.2-0.7,0.3-1.1,0.4c0,0.3,0,0.6,0,0.9C12,17.7,12.3,17.5,12.6,17.4z"/>
		<path class="st14" d="M20.9,18.9c-1.1,0.3-2-0.5-2-1.5c0-0.9,0.7-1.6,1.6-1.6c0.7,0,1.3,0.5,1.5,1.1
			C21.9,17.5,21.5,18.2,20.9,18.9z"/>
		<path class="st16" d="M19.2,17.7c0-0.9,0.7-1.6,1.6-1.6c0.4,0,0.8,0.2,1,0.4c-0.3-0.5-0.8-0.8-1.3-0.8c-0.9,0-1.6,0.7-1.6,1.6
			c0,0.5,0.2,0.9,0.5,1.2C19.3,18.3,19.2,18,19.2,17.7z"/>
		<path class="st14" d="M4.3,18.9c-0.6-0.7-0.9-1.4-1.1-2c0.2-0.7,0.8-1.1,1.5-1.1c0.9,0,1.6,0.7,1.6,1.6
			C6.3,18.4,5.4,19.2,4.3,18.9z"/>
		<path class="st16" d="M4.8,16.3c0.7,0,1.3,0.5,1.5,1.1c0-0.9-0.7-1.6-1.6-1.6c-0.7,0-1.3,0.5-1.5,1.1c0,0.1,0.1,0.3,0.1,0.4
			C3.6,16.7,4.2,16.3,4.8,16.3z"/>
		
			<linearGradient id="SVGID_1_" gradientUnits="userSpaceOnUse" x1="-578.1591" y1="-88.0879" x2="-577.8165" y2="-87.7453" gradientTransform="matrix(21.3333 0 0 21.3333 12344.7354 1893.6445)">
			<stop  offset="0" style="stop-color:#000000;stop-opacity:0.1"/>
			<stop  offset="1" style="stop-color:#000000;stop-opacity:0"/>
		</linearGradient>
		<path class="st17" d="M9,16.1l1.5,1.5c0-0.3,0-0.6,0-0.8C10.2,16.8,9.4,16.6,9,16.1z M17.9,17.4c0-0.1,0-0.1,0-0.2l-1.7-1.7h0
			c0.1,0.2,0.1,0.4,0,0.6c-0.4,0.5-1.1,0.7-1.5,0.7c0,0.7-0.1,1.9-0.8,2.6c-0.3,0.4-0.8,0.6-1.3,0.6c-0.6,0-1-0.2-1.4-0.5l2.6,2.6
			c2.6-0.2,4.6-1.1,6-2.2C18.7,19.6,17.9,18.6,17.9,17.4z"/>
		
			<linearGradient id="SVGID_2_" gradientUnits="userSpaceOnUse" x1="-578.7177" y1="-88.6227" x2="-577.5253" y2="-88.0665" gradientTransform="matrix(21.3333 0 0 21.3333 12344.7354 1893.6445)">
			<stop  offset="0" style="stop-color:#FFFFFF;stop-opacity:0.2"/>
			<stop  offset="1" style="stop-color:#FFFFFF;stop-opacity:0"/>
		</linearGradient>
		<path class="st18" d="M22.1,12.1c0-1.2-0.4-2.7-0.9-3.8c2.8-0.7,4-5.7,4-7.8C25.3,0.2,25,0,24.7,0c-3,0-7,1.9-7.7,4
			c-1.1-0.4-2.7-0.9-4.4-0.9S9.4,3.6,8.3,4C7.5,1.9,3.5,0,0.5,0C0.2,0,0,0.2,0,0.5c0,2.1,1.2,7.1,4,7.8c-0.4,1.1-0.9,2.6-0.9,3.8
			c0,0.9-0.2,1.3-0.4,1.7c-0.3,0.5-0.6,1.1-0.6,2.5c0,2.8,3.7,6.8,10.5,6.8s10.5-4,10.5-6.8c0-1.5-0.3-2-0.6-2.5
			C22.3,13.4,22.1,13,22.1,12.1z"/>
	</g>
</g>
<g id="star">
</g>
<g id="star_x5F_none">
</g>
<g id="robot">
</g>
</svg>
