<?xml version="1.0" encoding="utf-8"?>
<!-- Generator: Adobe Illustrator 23.0.1, SVG Export Plug-In . SVG Version: 6.00 Build 0)  -->
<svg version="1.1" xmlns="http://www.w3.org/2000/svg" xmlns:xlink="http://www.w3.org/1999/xlink" x="0px" y="0px"
	 viewBox="0 0 85.6 94.1" style="enable-background:new 0 0 85.6 94.1;" xml:space="preserve">
<style type="text/css">
	.st0{opacity:0.3;}
	.st1{fill:#E87000;}
	.st2{fill:#B1712C;}
	.st3{fill:#E3A15B;}
	.st4{fill:#C78640;}
	.st5{fill:#FFC431;}
	.st6{fill:#69B0EE;}
	.st7{fill:#575B6D;}
	.st8{fill:#EAB54E;}
	.st9{fill:#414451;}
	.st10{fill:#F6C863;}
	.st11{fill:#303C42;}
	.st12{fill:#FFEE58;}
	.st13{fill:#FFFFFF;}
	.st14{fill:#E53935;}
	.st15{opacity:0.1;enable-background:new    ;}
	.st16{opacity:0.2;fill:#FFFFFF;enable-background:new    ;}
	.st17{fill:url(#SVGID_1_);}
	.st18{fill:url(#SVGID_2_);}
	.st19{fill:#FFC850;}
	.st20{fill:#59C7D3;}
	.st21{fill:#DAE5EA;}
	.st22{fill:#C9D1D3;}
	.st23{fill:#465058;}
	.st24{fill:#323E44;}
	.st25{fill:#64717A;}
	.st26{fill:#44B6BC;}
	.st27{fill:#E3F6FF;}
	.st28{fill:#CEE8F2;}
</style>
<g id="Слой_1">
</g>
<g id="work">
</g>
<g id="crack">
</g>
<g id="star">
</g>
<g id="star_x5F_none">
</g>
<g id="robot">
	<g>
		<g>
			<path class="st20" d="M64.2,77.4c-0.2,0-0.4,0-0.6-0.1c-0.7-0.3-1-1.1-0.7-1.8l1.2-2.8c0.4-1,1.5-1.6,2.6-1.3l3.7,0.8
				c0.7,0.2,1.2,0.9,1,1.6c-0.2,0.7-0.9,1.2-1.6,1l-3.3-0.7l-1.1,2.5C65.3,77.1,64.8,77.4,64.2,77.4z"/>
			<path class="st20" d="M69.6,82.2c-0.2,0-0.3,0-0.5-0.1l-3-0.7c-0.7-0.2-1.2-0.9-1-1.6c0.2-0.7,0.9-1.2,1.6-1l2.6,0.6l1.4-3.2
				c0.3-0.7,1.1-1,1.8-0.7c0.7,0.3,1,1.1,0.7,1.8l-1.6,3.5C71.3,81.7,70.5,82.2,69.6,82.2z"/>
			<path class="st20" d="M21.4,77.4c-0.5,0-1-0.3-1.3-0.8l-1.1-2.5l-3.3,0.7c-0.7,0.2-1.5-0.3-1.6-1c-0.2-0.7,0.3-1.5,1-1.6l3.7-0.8
				c1.1-0.2,2.2,0.3,2.6,1.3l1.2,2.8c0.3,0.7,0,1.5-0.7,1.8C21.8,77.3,21.6,77.4,21.4,77.4z"/>
			<path class="st20" d="M16.1,82.2c-0.9,0-1.7-0.5-2.1-1.4l-1.6-3.5c-0.3-0.7,0-1.5,0.7-1.8c0.7-0.3,1.5,0,1.8,0.7l1.4,3.2l2.6-0.6
				c0.7-0.2,1.5,0.3,1.6,1c0.2,0.7-0.3,1.5-1,1.6l-3,0.7C16.4,82.2,16.2,82.2,16.1,82.2z"/>
		</g>
		<path class="st21" d="M70.4,75.4c-0.7-1.4-0.2-3.1,1.2-3.8l4.9-2.5l2.5,5l-4.9,2.5C72.8,77.4,71.1,76.8,70.4,75.4z"/>
		<path class="st22" d="M77.6,74.8c2.1,0.2,3.9-1.3,4.1-3.4l1.7-17.1l-7.5-0.7l-1.7,17.1C74,72.8,75.5,74.6,77.6,74.8z"/>
		<path class="st21" d="M82.1,58.6c1.9-1.4,2.3-4.2,0.9-6.1L72,37.8l-7,5.2l10.9,14.7C77.4,59.7,80.1,60.1,82.1,58.6z"/>
		<path class="st23" d="M75.8,36.4l-24.7,0.1v14.9l20.3-4.1C76.3,45.7,78.3,40.8,75.8,36.4z"/>
		<path class="st21" d="M15.2,75.4c0.7-1.4,0.1-3.1-1.2-3.8L9,69.1l-2.5,5l4.9,2.5C12.8,77.4,14.5,76.8,15.2,75.4z"/>
		<path class="st22" d="M8,74.8C6,75,4.2,73.5,3.9,71.5L2.3,54.3l7.5-0.7l1.7,17.1C11.6,72.8,10.1,74.6,8,74.8z"/>
		<path class="st21" d="M3.6,58.6c-1.9-1.4-2.3-4.2-0.9-6.1l10.9-14.7l7,5.2L9.7,57.7C8.3,59.7,5.5,60.1,3.6,58.6z"/>
		<path class="st23" d="M9.9,36.4l24.7,0.1v14.9l-20.3-4.1C9.3,45.7,7.4,40.8,9.9,36.4z"/>
		<path class="st23" d="M42.8,92.3c-4.7,0-8.5-3.8-8.5-8.5V67.7h16.9v16.2C51.3,88.5,47.5,92.3,42.8,92.3z"/>
		<path class="st24" d="M40.7,67.7V91c0,0.4,0,0.7-0.1,1.1c0.7,0.2,1.4,0.3,2.1,0.3c4.7,0,8.5-3.8,8.5-8.5V67.7H40.7z"/>
		<path class="st25" d="M38.4,25h8.9v17.4h-8.9V25z"/>
		<path class="st21" d="M55.1,30.3H30.5c-4.3,0-7.7-3.5-7.7-7.7V9.5c0-4.3,3.5-7.7,7.7-7.7h24.6c4.3,0,7.7,3.5,7.7,7.7v13.1
			C62.8,26.9,59.4,30.3,55.1,30.3z"/>
		<path class="st22" d="M55.1,1.8h-2.8v28.5h2.8c4.3,0,7.7-3.5,7.7-7.7V9.5C62.8,5.2,59.4,1.8,55.1,1.8z"/>
		<path class="st20" d="M55.2,7.5H30.4c-1.5,0-2.7,1.2-2.7,2.7v19.5c0.9,0.4,1.9,0.6,2.9,0.6h24.6c1,0,2-0.2,2.9-0.6V10.2
			C58,8.7,56.8,7.5,55.2,7.5z"/>
		<path class="st26" d="M55.2,7.5h-7.8v22.8h7.7c1,0,2-0.2,2.9-0.6V10.2C58,8.7,56.8,7.5,55.2,7.5z"/>
		<path class="st21" d="M56.2,75.9H29.5c-1.9,0-3.4-1.4-3.7-3.2l-4.3-31.9c-0.3-2.2,1.4-4.2,3.7-4.2h35.4c2.2,0,4,2,3.7,4.2
			l-4.3,31.9C59.6,74.5,58,75.9,56.2,75.9z"/>
		<path class="st22" d="M60.5,36.5h-6.5l-5.3,39.4h7.5c1.9,0,3.4-1.4,3.7-3.2l4.3-31.9C64.5,38.5,62.8,36.5,60.5,36.5z"/>
		<path class="st27" d="M51.9,58.3H33.7c-1.1,0-2-0.9-2-2v-9.9c0-1.1,0.9-2,2-2h18.2c1.1,0,2,0.9,2,2v9.9
			C53.9,57.4,53,58.3,51.9,58.3z"/>
		<path class="st28" d="M51.9,44.5h-8.6v13.8h8.6c1.1,0,2-0.9,2-2v-9.9C53.9,45.4,53,44.5,51.9,44.5z"/>
		<path class="st20" d="M48.4,47.6H37.3c-0.8,0-1.4,0.6-1.4,1.4c0,0.8,0.6,1.4,1.4,1.4h11.1c0.8,0,1.4-0.6,1.4-1.4
			C49.7,48.2,49.1,47.6,48.4,47.6z"/>
		<path class="st20" d="M48.4,52.5H37.3c-0.8,0-1.4,0.6-1.4,1.4c0,0.8,0.6,1.4,1.4,1.4h11.1c0.8,0,1.4-0.6,1.4-1.4
			C49.7,53.1,49.1,52.5,48.4,52.5z"/>
		<path class="st27" d="M51.3,14.1h-8.4c-0.8,0-1.4,0.6-1.4,1.4s0.6,1.4,1.4,1.4h8.4c0.8,0,1.4-0.6,1.4-1.4S52,14.1,51.3,14.1z"/>
		<path class="st27" d="M36.4,14.1h-2.1c-0.8,0-1.4,0.6-1.4,1.4s0.6,1.4,1.4,1.4h2.1c0.8,0,1.4-0.6,1.4-1.4
			C37.8,14.7,37.2,14.1,36.4,14.1z"/>
	</g>
</g>
</svg>
