<?xml version="1.0" encoding="utf-8"?>
<!-- Generator: Adobe Illustrator 23.0.1, SVG Export Plug-In . SVG Version: 6.00 Build 0)  -->
<svg version="1.1" xmlns="http://www.w3.org/2000/svg" xmlns:xlink="http://www.w3.org/1999/xlink" x="0px" y="0px"
	 viewBox="0 0 129.5 103.2" style="enable-background:new 0 0 129.5 103.2;" xml:space="preserve">
<style type="text/css">
	.st0{opacity:0.3;}
	.st1{fill:#E87000;}
	.st2{fill:#B1712C;}
	.st3{fill:#E3A15B;}
	.st4{fill:#C78640;}
	.st5{fill:#FFC431;}
	.st6{fill:#69B0EE;}
	.st7{fill:#575B6D;}
	.st8{fill:#EAB54E;}
	.st9{fill:#414451;}
	.st10{fill:#F6C863;}
	.st11{fill:#303C42;}
	.st12{fill:#FFEE58;}
	.st13{fill:#FFFFFF;}
	.st14{fill:#E53935;}
	.st15{opacity:0.1;enable-background:new    ;}
	.st16{opacity:0.2;fill:#FFFFFF;enable-background:new    ;}
	.st17{fill:url(#SVGID_1_);}
	.st18{fill:url(#SVGID_2_);}
	.st19{fill:#FFC850;}
	.st20{fill:#59C7D3;}
	.st21{fill:#DAE5EA;}
	.st22{fill:#C9D1D3;}
	.st23{fill:#465058;}
	.st24{fill:#323E44;}
	.st25{fill:#64717A;}
	.st26{fill:#44B6BC;}
	.st27{fill:#E3F6FF;}
	.st28{fill:#CEE8F2;}
</style>
<g id="Слой_1">
	<g>
		<g class="st0">
			<path d="M16.8,5.4c0-1.3-1.1-2.4-2.4-2.4S12,4.1,12,5.4v12h4.8V5.4z M117.5,5.4c0-1.3-1.1-2.4-2.4-2.4s-2.4,1.1-2.4,2.4v12h4.8
				V5.4z M110.3,73.7v6.1c0,2.6-2.1,4.8-4.8,4.8H24c-2.6,0-4.8-2.1-4.8-4.8v-6.1c-1.4,0.8-3,1.3-4.8,1.3s-3.4-0.5-4.8-1.3v3.7
				c0,9.3,7.5,16.8,16.8,16.8h7.2c0,5.3,23.5,9.6,28.8,9.6H72c5.3,0,24-4.3,24-9.6h7.2c9.3,0,16.8-7.5,16.8-16.8v-3.7
				c-1.4,0.8-3,1.3-4.8,1.3S111.7,74.5,110.3,73.7z M28.8,46.2H0v9.6h28.8V46.2z"/>
			<path d="M19.2,73.7c2.9-1.7,4.8-4.8,4.8-8.3v-1.8c0-3.3,1.9-6.3,4.8-7.8H0c2.9,1.5,4.8,4.5,4.8,7.8v1.8c0,3.5,1.9,6.6,4.8,8.3
				c1.4,0.8,3,1.3,4.8,1.3S17.7,74.5,19.2,73.7z M122.3,46.2h-21.6v9.6h28.8v-9.6H122.3z M21.6,17.4H7.2v28.8h14.4V17.4z
				 M122.3,17.4h-14.4v28.8h14.4V17.4z"/>
			<path d="M105.5,63.5v1.8c0,3.5,1.9,6.6,4.8,8.3c1.4,0.8,3,1.3,4.8,1.3s3.4-0.5,4.8-1.3c2.9-1.7,4.8-4.8,4.8-8.3v-1.8
				c0-3.3,1.9-6.3,4.8-7.8h-28.8C103.7,57.2,105.5,60.3,105.5,63.5z"/>
		</g>
		<path class="st1" d="M14.4,17.4c-1.3,0-2.4-1.1-2.4-2.4V3c0-1.3,1.1-2.4,2.4-2.4s2.4,1.1,2.4,2.4v12
			C16.8,16.3,15.7,17.4,14.4,17.4z M115.1,17.4c-1.3,0-2.4-1.1-2.4-2.4V3c0-1.3,1.1-2.4,2.4-2.4s2.4,1.1,2.4,2.4v12
			C117.5,16.3,116.5,17.4,115.1,17.4z"/>
		<path class="st2" d="M110.3,65.4v12c0,2.6-2.1,4.8-4.8,4.8H24c-2.6,0-4.8-2.1-4.8-4.8v-12H9.6V75c0,9.3,7.5,16.8,16.8,16.8h7.2
			c0,5.3,23.5,9.6,28.8,9.6H72c5.3,0,24-4.3,24-9.6h7.2c9.3,0,16.8-7.5,16.8-16.8v-9.6C120,65.4,110.3,65.4,110.3,65.4z"/>
		<path class="st3" d="M0,43.8h28.8v9.6H0V43.8z"/>
		<path class="st4" d="M28.8,53.4c-2.9,1.5-4.8,4.5-4.8,7.8V63c0,5.3-4.3,9.6-9.6,9.6S4.8,68.3,4.8,63v-1.8c0-3.3-1.9-6.3-4.8-7.8
			L28.8,53.4z"/>
		<path class="st3" d="M129.5,53.4h-28.8v-9.6h28.8C129.5,43.8,129.5,53.4,129.5,53.4z"/>
		<path class="st5" d="M7.2,15h14.4v28.8H7.2V15z M107.9,15h14.4v28.8h-14.4V15z"/>
		<path class="st4" d="M129.5,53.4c-2.9,1.5-4.8,4.5-4.8,7.8V63c0,5.3-4.3,9.6-9.6,9.6s-9.6-4.3-9.6-9.6v-1.8c0-3.3-1.9-6.3-4.8-7.8
			L129.5,53.4z"/>
	</g>
</g>
<g id="work">
</g>
<g id="crack">
</g>
<g id="star">
</g>
<g id="star_x5F_none">
</g>
<g id="robot">
</g>
</svg>
