<?xml version="1.0" encoding="utf-8"?>
<!-- Generator: Adobe Illustrator 23.0.1, SVG Export Plug-In . SVG Version: 6.00 Build 0)  -->
<svg version="1.1" xmlns="http://www.w3.org/2000/svg" xmlns:xlink="http://www.w3.org/1999/xlink" x="0px" y="0px"
	 viewBox="0 0 13.6 15.7" style="enable-background:new 0 0 13.6 15.7;" xml:space="preserve">
<style type="text/css">
	.st0{opacity:0.3;}
	.st1{fill:#E87000;}
	.st2{fill:#B1712C;}
	.st3{fill:#E3A15B;}
	.st4{fill:#C78640;}
	.st5{fill:#FFC431;}
	.st6{fill:#69B0EE;}
	.st7{fill:#575B6D;}
	.st8{fill:#EAB54E;}
	.st9{fill:#414451;}
	.st10{fill:#F6C863;}
	.st11{fill:#303C42;}
	.st12{fill:#FFEE58;}
	.st13{fill:#FFFFFF;}
	.st14{fill:#E53935;}
	.st15{opacity:0.1;enable-background:new    ;}
	.st16{opacity:0.2;fill:#FFFFFF;enable-background:new    ;}
	.st17{fill:url(#SVGID_1_);}
	.st18{fill:url(#SVGID_2_);}
	.st19{fill:#FFC850;}
	.st20{fill:#59C7D3;}
	.st21{fill:#DAE5EA;}
	.st22{fill:#C9D1D3;}
	.st23{fill:#465058;}
	.st24{fill:#323E44;}
	.st25{fill:#64717A;}
	.st26{fill:#44B6BC;}
	.st27{fill:#E3F6FF;}
	.st28{fill:#CEE8F2;}
</style>
<g id="Слой_1">
</g>
<g id="work">
</g>
<g id="crack">
</g>
<g id="star">
	<g>
		<path class="st19" d="M12.2,7.1c0.2-0.2,0.1-0.5-0.2-0.5L8.5,6.2L7,3c0-0.1-0.2-0.2-0.3-0.2C6.7,2.8,6.6,2.9,6.5,3L5.1,6.2
			L1.6,6.6c-0.2,0-0.3,0.3-0.2,0.5l2.7,2.3l-0.8,3.5c-0.1,0.2,0.2,0.4,0.4,0.3l3.1-1.8l3.1,1.8c0.2,0.1,0.5-0.1,0.4-0.3L9.5,9.4
			L12.2,7.1z"/>
		<path class="st19" d="M4,4.9c0.1,0.1,0.2,0,0.2-0.1c-0.3-0.6-0.8-1.7-1-2C3,2.7,2.7,2.6,2.5,2.8S2.3,3.2,2.4,3.4
			C2.6,3.6,3.5,4.4,4,4.9z"/>
		<path class="st19" d="M9.6,4.9c0.5-0.5,1.4-1.3,1.5-1.6c0.1-0.2,0.1-0.5-0.1-0.6s-0.5-0.1-0.6,0.1c-0.2,0.3-0.7,1.3-1,2
			C9.4,4.9,9.5,5,9.6,4.9z"/>
		<path class="st19" d="M13.3,10.2c-0.3-0.1-1.5-0.3-2.2-0.3c-0.1,0-0.2,0.1-0.1,0.2c0.6,0.3,1.7,0.9,1.9,1c0.2,0.1,0.5-0.1,0.6-0.3
			C13.6,10.5,13.5,10.3,13.3,10.2z"/>
		<path class="st19" d="M2.5,9.9c-0.7,0.1-1.9,0.2-2.2,0.3c-0.2,0.1-0.4,0.3-0.3,0.6c0.1,0.2,0.3,0.4,0.6,0.3c0.3-0.1,1.3-0.7,1.9-1
			C2.6,10,2.6,9.9,2.5,9.9z"/>
		<path class="st19" d="M6.7,13.1c-0.1,0.7-0.3,1.9-0.3,2.2c0,0.2,0.2,0.4,0.4,0.4c0.2,0,0.4-0.2,0.4-0.4c0-0.3-0.2-1.5-0.3-2.2
			C6.9,12.9,6.7,12.9,6.7,13.1z"/>
	</g>
</g>
<g id="star_x5F_none">
</g>
<g id="robot">
</g>
</svg>
