<?xml version="1.0" encoding="utf-8"?>
<!-- Generator: Adobe Illustrator 23.0.1, SVG Export Plug-In . SVG Version: 6.00 Build 0)  -->
<svg version="1.1" xmlns="http://www.w3.org/2000/svg" xmlns:xlink="http://www.w3.org/1999/xlink" x="0px" y="0px"
	 viewBox="0 0 24 24" style="enable-background:new 0 0 24 24;" xml:space="preserve">
<style type="text/css">
	.st0{stroke:#000000;stroke-width:0.5;stroke-miterlimit:10;}
</style>
<g id="_menu">
</g>
<g id="dop">
</g>
<g id="zoom">
</g>
<g id="ramka">
</g>
<g id="my">
</g>
<g id="group">
</g>
<g id="channal">
</g>
<g id="contacts">
</g>
<g id="settings">
</g>
<g id="clip">
</g>
<g id="Слой_11">
</g>
<g id="send">
</g>
<g id="column_x5F_2">
</g>
<g id="column_x5F_3">
</g>
<g id="glass">
</g>
<g id="glass_x5F_close">
</g>
<g id="basket">
</g>
<g id="info">
</g>
<g id="kolokol">
</g>
<g id="kolokol_x5F_minus">
</g>
<g id="img">
</g>
<g id="video">
</g>
<g id="file">
</g>
<g id="link">
</g>
<g id="close">
</g>
<g id="back">
</g>
<g id="lock">
</g>
<g id="moon">
</g>
<g id="ugol">
</g>
<g id="menu2">
</g>
<g id="horse">
</g>
<g id="phone">
	<g>
		<g>
			<path d="M18.2,14.5c-0.4-0.5-1-0.7-1.5-0.7c-0.6,0-1.1,0.2-1.5,0.7L13.7,16c-0.1-0.1-0.2-0.1-0.3-0.2c-0.2-0.1-0.3-0.2-0.4-0.2
				c-1.3-0.8-2.5-1.9-3.7-3.4c-0.6-0.7-0.9-1.3-1.2-1.9c0.4-0.3,0.7-0.7,1-1C9.2,9.1,9.3,9,9.4,8.8c0.9-0.9,0.9-2.2,0-3.1L8.2,4.5
				C8.1,4.4,7.9,4.2,7.8,4.1C7.5,3.8,7.2,3.5,6.9,3.3C6.5,2.8,6,2.6,5.4,2.6S4.4,2.8,3.9,3.3c0,0,0,0,0,0L2.4,4.8
				c-0.6,0.6-0.9,1.3-1,2.1C1.3,8.2,1.7,9.4,2,10.2c0.7,2,1.8,3.8,3.4,5.7c2,2.3,4.3,4.2,7,5.5c1,0.5,2.4,1.1,4,1.2
				c0.1,0,0.2,0,0.3,0c1,0,1.9-0.4,2.6-1.1c0,0,0,0,0,0c0.2-0.3,0.5-0.5,0.8-0.8c0.2-0.2,0.4-0.4,0.6-0.6c0.4-0.5,0.7-1,0.7-1.6
				c0-0.6-0.2-1.1-0.7-1.5L18.2,14.5z M19.8,19.3C19.8,19.3,19.8,19.3,19.8,19.3c-0.2,0.2-0.4,0.4-0.5,0.5c-0.3,0.3-0.6,0.6-0.9,0.9
				c-0.5,0.5-1,0.7-1.7,0.7c-0.1,0-0.1,0-0.2,0c-1.3-0.1-2.6-0.6-3.5-1.1c-2.5-1.2-4.8-3-6.6-5.2c-1.5-1.8-2.6-3.6-3.2-5.4
				C2.7,8.7,2.5,7.8,2.6,7c0-0.5,0.2-1,0.6-1.3l1.5-1.5C5,3.9,5.2,3.8,5.4,3.8C5.7,3.8,6,4,6.1,4.1c0,0,0,0,0,0
				c0.3,0.3,0.5,0.5,0.8,0.8c0.1,0.1,0.3,0.3,0.4,0.4l1.2,1.2C9,7.1,9,7.5,8.6,8C8.4,8.1,8.3,8.3,8.2,8.4C7.8,8.8,7.4,9.1,7.1,9.5
				c0,0,0,0,0,0c-0.4,0.4-0.3,0.8-0.2,1c0,0,0,0,0,0c0.3,0.8,0.8,1.5,1.5,2.4l0,0c1.2,1.5,2.5,2.7,4,3.6c0.2,0.1,0.4,0.2,0.6,0.3
				c0.2,0.1,0.3,0.2,0.4,0.2c0,0,0,0,0.1,0c0.2,0.1,0.3,0.1,0.4,0.1c0.4,0,0.6-0.2,0.7-0.3l1.5-1.5c0.2-0.2,0.4-0.3,0.7-0.3
				c0.3,0,0.5,0.2,0.6,0.3c0,0,0,0,0,0l2.5,2.5C20.2,18.3,20.2,18.8,19.8,19.3z"/>
			<path d="M12.9,6.4C14,6.6,15.1,7.2,16,8c0.9,0.9,1.4,1.9,1.6,3.1c0,0.3,0.3,0.5,0.6,0.5c0,0,0.1,0,0.1,0c0.3-0.1,0.6-0.4,0.5-0.7
				c-0.2-1.4-0.9-2.7-1.9-3.7s-2.3-1.7-3.7-1.9c-0.3-0.1-0.6,0.2-0.7,0.5S12.5,6.4,12.9,6.4z"/>
			<path d="M22.6,10.7c-0.4-2.3-1.5-4.5-3.2-6.2c-1.7-1.7-3.8-2.8-6.2-3.2c-0.3-0.1-0.6,0.2-0.7,0.5c-0.1,0.3,0.2,0.6,0.5,0.7
				c2.1,0.4,4,1.3,5.5,2.9c1.5,1.5,2.5,3.4,2.9,5.5c0,0.3,0.3,0.5,0.6,0.5c0,0,0.1,0,0.1,0C22.4,11.4,22.7,11.1,22.6,10.7z"/>
		</g>
	</g>
</g>
<g id="email">
</g>
<g id="www">
</g>
<g id="store">
</g>
<g id="star">
</g>
<g id="Слой_37">
</g>
</svg>
