<?xml version="1.0" encoding="utf-8"?>
<!-- Generator: Adobe Illustrator 23.0.1, SVG Export Plug-In . SVG Version: 6.00 Build 0)  -->
<svg version="1.1" xmlns="http://www.w3.org/2000/svg" xmlns:xlink="http://www.w3.org/1999/xlink" x="0px" y="0px"
	 viewBox="0 0 24 24" style="enable-background:new 0 0 24 24;" xml:space="preserve">
<style type="text/css">
	.st0{stroke:#000000;stroke-width:0.5;stroke-miterlimit:10;}
</style>
<g id="_menu">
</g>
<g id="dop">
</g>
<g id="zoom">
</g>
<g id="ramka">
</g>
<g id="my">
</g>
<g id="group">
</g>
<g id="channal">
</g>
<g id="contacts">
</g>
<g id="settings">
</g>
<g id="clip">
</g>
<g id="Слой_11">
	<g>
		<g>
			<path d="M18.6,3.2c1.2,0,2.2,1,2.2,2.2v13.2c0,1.2-1,2.2-2.2,2.2H5.4c-1.2,0-2.2-1-2.2-2.2V5.4c0-1.2,1-2.2,2.2-2.2H18.6
				 M18.6,1.5H5.4c-2.2,0-3.9,1.7-3.9,3.9v13.2c0,2.2,1.7,3.9,3.9,3.9h13.2c2.2,0,3.9-1.7,3.9-3.9V5.4C22.5,3.2,20.8,1.5,18.6,1.5
				L18.6,1.5z"/>
		</g>
		<polygon class="st0" points="15.6,7.2 13.7,7.2 8.4,16.8 10.3,16.8 15.6,7.2 		"/>
	</g>
</g>
<g id="send">
</g>
<g id="column_x5F_2">
</g>
<g id="column_x5F_3">
</g>
<g id="glass">
</g>
<g id="glass_x5F_close">
</g>
<g id="basket">
</g>
<g id="info">
</g>
<g id="kolokol">
</g>
<g id="kolokol_x5F_minus">
</g>
<g id="img">
</g>
<g id="video">
</g>
<g id="file">
</g>
<g id="link">
</g>
<g id="close">
</g>
<g id="back">
</g>
<g id="lock">
</g>
<g id="moon">
</g>
<g id="ugol">
</g>
<g id="menu2">
</g>
<g id="horse">
</g>
<g id="phone">
</g>
<g id="email">
</g>
<g id="www">
</g>
<g id="store">
</g>
<g id="star">
</g>
<g id="Слой_37">
</g>
</svg>
