<?xml version="1.0" encoding="utf-8"?>
<!-- Generator: Adobe Illustrator 23.0.1, SVG Export Plug-In . SVG Version: 6.00 Build 0)  -->
<svg version="1.1" xmlns="http://www.w3.org/2000/svg" xmlns:xlink="http://www.w3.org/1999/xlink" x="0px" y="0px"
	 viewBox="0 0 24 24" style="enable-background:new 0 0 24 24;" xml:space="preserve">
<style type="text/css">
	.st0{stroke:#000000;stroke-width:0.5;stroke-miterlimit:10;}
</style>
<g id="_menu">
</g>
<g id="dop">
</g>
<g id="zoom">
</g>
<g id="ramka">
</g>
<g id="my">
</g>
<g id="group">
</g>
<g id="channal">
</g>
<g id="contacts">
</g>
<g id="settings">
	<path d="M23,10.3c0-2-1.5-3.7-3.5-4V3.9c0-1.1-0.7-1.8-1.6-1.8c-0.3,0-0.6,0.1-0.9,0.2L8.4,6.2h-5C2.1,6.2,1,7.2,1,8.6V12
		c0,0.8,0.4,1.6,1.1,2l1,5.1c0.2,1.2,1.4,2.2,2.7,2.2c1.3,0,2.4-1.1,2.4-2.4v-4.5h0.3l8.7,3.9c0.3,0.1,0.6,0.2,0.9,0.2h0
		c0.5,0,0.9-0.2,1.2-0.5c0.3-0.3,0.4-0.8,0.4-1.3v-2.3C21.5,14,23,12.3,23,10.3z M2.3,8.6c0-0.6,0.5-1.1,1.1-1.1h4.5v5.6H3.4
		c-0.6,0-1.1-0.5-1.1-1.1V8.6z M6.9,18.9c0,0.6-0.5,1.1-1.1,1.1c-0.6,0-1.3-0.5-1.4-1.2l-0.9-4.4h3.4V18.9z M18.3,16.7
		c0,0.2,0,0.3-0.1,0.4c0,0-0.1,0.1-0.2,0.1c-0.1,0-0.2,0-0.3-0.1l-8.4-3.8V7.2l8.4-3.8c0.1-0.1,0.2-0.1,0.3-0.1
		c0.3,0,0.3,0.3,0.3,0.5L18.3,16.7L18.3,16.7z M19.5,13V7.5c1.2,0.3,2.2,1.4,2.2,2.7C21.7,11.6,20.8,12.7,19.5,13z"/>
</g>
<g id="clip">
</g>
<g id="Слой_11">
</g>
<g id="send">
</g>
<g id="column_x5F_2">
</g>
<g id="column_x5F_3">
</g>
<g id="glass">
</g>
<g id="glass_x5F_close">
</g>
<g id="basket">
</g>
<g id="info">
</g>
<g id="kolokol">
</g>
<g id="kolokol_x5F_minus">
</g>
<g id="img">
</g>
<g id="video">
</g>
<g id="file">
</g>
<g id="link">
</g>
<g id="close">
</g>
<g id="back">
</g>
<g id="lock">
</g>
<g id="moon">
</g>
<g id="ugol">
</g>
<g id="menu2">
</g>
<g id="horse">
</g>
<g id="phone">
</g>
<g id="email">
</g>
<g id="www">
</g>
<g id="store">
</g>
<g id="star">
</g>
<g id="Слой_37">
</g>
</svg>
