<?xml version="1.0" encoding="utf-8"?>
<!-- Generator: Adobe Illustrator 23.0.1, SVG Export Plug-In . SVG Version: 6.00 Build 0)  -->
<svg version="1.1" xmlns="http://www.w3.org/2000/svg" xmlns:xlink="http://www.w3.org/1999/xlink" x="0px" y="0px"
	 viewBox="0 0 24 24" style="enable-background:new 0 0 24 24;" xml:space="preserve">
<style type="text/css">
	.st0{stroke:#000000;stroke-width:0.5;stroke-miterlimit:10;}
</style>
<g id="_menu">
</g>
<g id="dop">
</g>
<g id="zoom">
</g>
<g id="ramka">
</g>
<g id="my">
</g>
<g id="group">
</g>
<g id="channal">
</g>
<g id="contacts">
</g>
<g id="settings">
</g>
<g id="clip">
</g>
<g id="Слой_11">
</g>
<g id="send">
</g>
<g id="column_x5F_2">
</g>
<g id="column_x5F_3">
</g>
<g id="glass">
</g>
<g id="glass_x5F_close">
</g>
<g id="basket">
</g>
<g id="info">
</g>
<g id="kolokol">
	<g>
		<path d="M20.9,10.9c-0.4,0-0.6-0.3-0.6-0.6c0-2.5-1-4.8-2.7-6.6c-0.3-0.3-0.3-0.7,0-0.9c0.3-0.3,0.7-0.3,0.9,0
			c2,2,3.1,4.7,3.1,7.5C21.5,10.6,21.2,10.9,20.9,10.9z"/>
		<path d="M3.1,10.9c-0.4,0-0.6-0.3-0.6-0.6c0-2.8,1.1-5.5,3.1-7.5c0.3-0.3,0.7-0.3,0.9,0s0.3,0.7,0,0.9c-1.8,1.8-2.7,4.1-2.7,6.6
			C3.8,10.6,3.5,10.9,3.1,10.9z"/>
		<path d="M12,22.4c-1.8,0-3.2-1.5-3.2-3.2c0-0.4,0.3-0.6,0.6-0.6c0.4,0,0.6,0.3,0.6,0.6c0,1.1,0.9,1.9,1.9,1.9
			c1.1,0,1.9-0.9,1.9-1.9c0-0.4,0.3-0.6,0.6-0.6s0.6,0.3,0.6,0.6C15.2,20.9,13.8,22.4,12,22.4z"/>
		<path d="M19.1,19.8H4.9c-0.8,0-1.5-0.7-1.5-1.5c0-0.4,0.2-0.9,0.5-1.1C5.2,16,6,14.4,6,12.7v-2.4c0-3.3,2.7-6,6-6c3.3,0,6,2.7,6,6
			v2.4c0,1.7,0.7,3.3,2.1,4.4c0.3,0.3,0.5,0.7,0.5,1.2C20.6,19.1,20,19.8,19.1,19.8z M12,6.2c-2.3,0-4.2,1.9-4.2,4.2v2.1
			c0,1.9-0.8,3.6-2.2,4.8c0,0-0.1,0.1-0.1,0.1c0,0.1,0.1,0.2,0.2,0.2h12.7c0.1,0,0.2-0.1,0.2-0.2c0-0.1,0-0.1-0.1-0.1
			c-1.4-1.2-2.2-3-2.2-4.8v-2.1C16.2,8.1,14.3,6.2,12,6.2z"/>
		<path d="M12,5.5c-0.4,0-0.6-0.3-0.6-0.6V2.3c0-0.4,0.3-0.6,0.6-0.6s0.6,0.3,0.6,0.6v2.6C12.6,5.2,12.4,5.5,12,5.5z"/>
	</g>
</g>
<g id="kolokol_x5F_minus">
</g>
<g id="img">
</g>
<g id="video">
</g>
<g id="file">
</g>
<g id="link">
</g>
<g id="close">
</g>
<g id="back">
</g>
<g id="lock">
</g>
<g id="moon">
</g>
<g id="ugol">
</g>
<g id="menu2">
</g>
<g id="horse">
</g>
<g id="phone">
</g>
<g id="email">
</g>
<g id="www">
</g>
<g id="store">
</g>
<g id="star">
</g>
<g id="Слой_37">
</g>
</svg>
