<?xml version="1.0" encoding="utf-8"?>
<!-- Generator: Adobe Illustrator 23.0.1, SVG Export Plug-In . SVG Version: 6.00 Build 0)  -->
<svg version="1.1" xmlns="http://www.w3.org/2000/svg" xmlns:xlink="http://www.w3.org/1999/xlink" x="0px" y="0px"
	 viewBox="0 0 24 24" style="enable-background:new 0 0 24 24;" xml:space="preserve">
<style type="text/css">
	.st0{stroke:#000000;stroke-width:0.5;stroke-miterlimit:10;}
</style>
<g id="_menu">
</g>
<g id="dop">
</g>
<g id="zoom">
</g>
<g id="ramka">
</g>
<g id="my">
</g>
<g id="group">
</g>
<g id="channal">
</g>
<g id="contacts">
</g>
<g id="settings">
</g>
<g id="clip">
</g>
<g id="Слой_11">
</g>
<g id="send">
</g>
<g id="column_x5F_2">
</g>
<g id="column_x5F_3">
</g>
<g id="glass">
</g>
<g id="glass_x5F_close">
</g>
<g id="basket">
</g>
<g id="info">
</g>
<g id="kolokol">
</g>
<g id="kolokol_x5F_minus">
</g>
<g id="img">
</g>
<g id="video">
	<g>
		<path d="M12,6c0.7,0,1.3,0.6,1.3,1.3v9.2c0,0.7-0.6,1.3-1.3,1.3H5c-0.7,0-1.3-0.6-1.3-1.3V7.4C3.7,6.6,4.3,6,5,6H12 M12,4H5
			C3.2,4,1.7,5.5,1.7,7.4v9.2C1.7,18.5,3.2,20,5,20H12c1.8,0,3.3-1.5,3.3-3.3V7.4C15.3,5.5,13.8,4,12,4L12,4z"/>
		<g>
			<g>
				<path d="M20.6,17.9c-0.3,0-0.5-0.1-0.8-0.2l-5.2-2.2l0.6-1.4l5.2,2.2c0.2,0.1,0.4,0,0.5,0s0.2-0.2,0.2-0.4V7.7
					c0-0.3-0.2-0.4-0.2-0.4c-0.1,0-0.3-0.1-0.5,0l-5.3,2.3l-0.6-1.4l5.3-2.3c0.6-0.3,1.3-0.2,1.9,0.2c0.6,0.4,0.9,1,0.9,1.7v8.1
					c0,0.7-0.3,1.3-0.9,1.7C21.4,17.7,21,17.9,20.6,17.9z"/>
				<path d="M20.6,18.2c-0.3,0-0.6-0.1-0.9-0.2l-5.6-2.4l0.9-2.1l5.6,2.4c0.1,0,0.1,0,0.1,0c0.1,0,0.1-0.1,0.1-0.1V7.7
					c0-0.1,0-0.1-0.1-0.1c0,0-0.1,0-0.2,0L14.9,10L14,8l5.7-2.4c0.7-0.3,1.6-0.2,2.3,0.2c0.7,0.4,1.1,1.2,1.1,2v8.1
					c0,0.8-0.4,1.6-1.1,2C21.5,18.1,21.1,18.2,20.6,18.2z M15.1,15.3l4.9,2.1c0.5,0.2,1.1,0.2,1.6-0.1c0.5-0.3,0.7-0.8,0.7-1.4V7.7
					c0-0.6-0.3-1.1-0.7-1.4C21,6,20.4,6,19.9,6.2l-5,2.1L15.3,9l5-2.2c0.3-0.1,0.6-0.1,0.9,0.1c0.3,0.2,0.4,0.4,0.4,0.8v8.1
					c0,0.3-0.1,0.6-0.4,0.8c-0.3,0.2-0.6,0.2-0.9,0.1l-4.9-2.1L15.1,15.3z"/>
			</g>
		</g>
	</g>
</g>
<g id="file">
</g>
<g id="link">
</g>
<g id="close">
</g>
<g id="back">
</g>
<g id="lock">
</g>
<g id="moon">
</g>
<g id="ugol">
</g>
<g id="menu2">
</g>
<g id="horse">
</g>
<g id="phone">
</g>
<g id="email">
</g>
<g id="www">
</g>
<g id="store">
</g>
<g id="star">
</g>
<g id="Слой_37">
</g>
</svg>
