<?xml version="1.0" encoding="utf-8"?>
<!-- Generator: Adobe Illustrator 23.0.1, SVG Export Plug-In . SVG Version: 6.00 Build 0)  -->
<svg version="1.1" xmlns="http://www.w3.org/2000/svg" xmlns:xlink="http://www.w3.org/1999/xlink" x="0px" y="0px"
	 viewBox="0 0 24 24" style="enable-background:new 0 0 24 24;" xml:space="preserve">
<style type="text/css">
	.st0{stroke:#000000;stroke-width:0.5;stroke-miterlimit:10;}
</style>
<g id="_menu">
</g>
<g id="dop">
</g>
<g id="zoom">
</g>
<g id="ramka">
</g>
<g id="my">
</g>
<g id="group">
</g>
<g id="channal">
</g>
<g id="contacts">
</g>
<g id="settings">
</g>
<g id="clip">
</g>
<g id="Слой_11">
</g>
<g id="send">
</g>
<g id="column_x5F_2">
</g>
<g id="column_x5F_3">
</g>
<g id="glass">
</g>
<g id="glass_x5F_close">
</g>
<g id="basket">
</g>
<g id="info">
</g>
<g id="kolokol">
</g>
<g id="kolokol_x5F_minus">
</g>
<g id="img">
</g>
<g id="video">
</g>
<g id="file">
</g>
<g id="link">
</g>
<g id="close">
</g>
<g id="back">
</g>
<g id="lock">
</g>
<g id="moon">
</g>
<g id="ugol">
</g>
<g id="menu2">
</g>
<g id="horse">
</g>
<g id="phone">
</g>
<g id="email">
</g>
<g id="www">
	<g>
		<g>
			<g>
				<path d="M19.8,14.7c-1.1,3.8-4.4,6.4-8.1,6.4c-3.7,0-6.9-2.5-8.1-6.3l-1,0.3c1.3,4.2,4.9,7,9,7c4.2,0,7.9-2.9,9.1-7.1L19.8,14.7
					z"/>
			</g>
		</g>
		<g>
			<g>
				<path d="M11.7,1.8C8.1,1.8,4.8,4,3.2,7.5l0.9,0.4c1.5-3.1,4.4-5,7.6-5c3.4,0,6.4,2.1,7.8,5.4l0.9-0.4
					C18.9,4.2,15.5,1.8,11.7,1.8z"/>
			</g>
		</g>
		<g>
			<g>
				<path d="M15.8,14.1c-0.5,4.1-2.1,7-3.9,7c-1.7,0-3.4-2.7-3.9-6.6l-1,0.2c0.6,4.5,2.5,7.5,4.9,7.5s4.4-3.2,4.9-7.9L15.8,14.1z"/>
			</g>
		</g>
		<g>
			<g>
				<path d="M11.8,1.8c-2.1,0-4,2.5-4.7,6.4l1,0.2c0.7-3.4,2.1-5.6,3.7-5.6c1.5,0,3,2.2,3.7,5.5l1-0.2C15.8,4.3,13.9,1.8,11.8,1.8z"
					/>
			</g>
		</g>
		<g>
			<g>
				<polygon points="4.8,5.9 4.3,6.9 18.9,6.9 18.9,5.9 				"/>
			</g>
		</g>
		<g>
			<g>
				<rect x="3.9" y="16.2" width="15.3" height="1"/>
			</g>
		</g>
		<g>
			<g>
				<path d="M6,9.8l-0.6,1.7c-0.1,0.4-0.3,0.8-0.3,1.1H5c-0.1-0.4-0.3-0.7-0.4-1.1L4,9.8H3.3l-0.7,1.7c-0.2,0.4-0.3,0.7-0.4,1.1H2.1
					c-0.1-0.4-0.2-0.7-0.3-1.1L1.3,9.8H0.4l1.3,3.4h0.8l0.7-1.6c0.2-0.4,0.3-0.7,0.4-1.1c0.2,0.4,0.3,0.8,0.4,1.1l0.7,1.6h0.7
					l1.4-3.4H6L6,9.8z"/>
			</g>
		</g>
		<g>
			<g>
				<path d="M14.4,9.8l-0.6,1.7c-0.1,0.4-0.3,0.8-0.3,1.1h-0.1c-0.1-0.4-0.3-0.7-0.4-1.1l-0.7-1.7h-0.7L11,11.5
					c-0.2,0.4-0.3,0.7-0.4,1.1h-0.1c-0.1-0.4-0.2-0.7-0.3-1.1L9.7,9.8H8.8l1.3,3.4h0.7l0.7-1.6c0.2-0.4,0.3-0.7,0.4-1.1
					c0.2,0.4,0.3,0.8,0.4,1.1l0.7,1.6h0.8l1.4-3.4H14.4L14.4,9.8z"/>
			</g>
		</g>
		<g>
			<g>
				<path d="M22.8,9.8l-0.6,1.7c-0.1,0.4-0.3,0.8-0.3,1.1h-0.1c-0.1-0.4-0.3-0.7-0.4-1.1l-0.7-1.7h-0.7l-0.7,1.7
					c-0.2,0.4-0.3,0.7-0.4,1.1H19c-0.1-0.4-0.2-0.7-0.3-1.1l-0.6-1.7h-0.8l1.3,3.4h0.7l0.7-1.6c0.2-0.4,0.3-0.7,0.4-1.1
					c0.2,0.4,0.3,0.8,0.4,1.1l0.7,1.6h0.7l1.4-3.4L22.8,9.8L22.8,9.8z"/>
			</g>
		</g>
	</g>
</g>
<g id="store">
</g>
<g id="star">
</g>
<g id="Слой_37">
</g>
</svg>
