<?xml version="1.0" encoding="utf-8"?>
<!-- Generator: Adobe Illustrator 23.0.1, SVG Export Plug-In . SVG Version: 6.00 Build 0)  -->
<svg version="1.1" xmlns="http://www.w3.org/2000/svg" xmlns:xlink="http://www.w3.org/1999/xlink" x="0px" y="0px"
	 viewBox="0 0 24 24" style="enable-background:new 0 0 24 24;" xml:space="preserve">
<style type="text/css">
	.st0{stroke:#000000;stroke-width:0.5;stroke-miterlimit:10;}
</style>
<g id="_menu">
</g>
<g id="dop">
</g>
<g id="zoom">
</g>
<g id="ramka">
	<g>
		<g>
			<path d="M18.7,6C18.8,6,19,6.2,19,6.3v11.3c0,0.2-0.2,0.3-0.3,0.3H5.3C5.2,18,5,17.8,5,17.7V6.3C5,6.2,5.2,6,5.3,6H18.7 M18.7,4
				H5.3C4,4,3,5,3,6.3v11.3C3,19,4,20,5.3,20h13.3c1.3,0,2.3-1,2.3-2.3V6.3C21,5,20,4,18.7,4L18.7,4z"/>
		</g>
		<rect x="14" y="5" width="2" height="14"/>
	</g>
</g>
<g id="my">
</g>
<g id="group">
</g>
<g id="channal">
</g>
<g id="contacts">
</g>
<g id="settings">
</g>
<g id="clip">
</g>
<g id="Слой_11">
</g>
<g id="send">
</g>
<g id="column_x5F_2">
</g>
<g id="column_x5F_3">
</g>
<g id="glass">
</g>
<g id="glass_x5F_close">
</g>
<g id="basket">
</g>
<g id="info">
</g>
<g id="kolokol">
</g>
<g id="kolokol_x5F_minus">
</g>
<g id="img">
</g>
<g id="video">
</g>
<g id="file">
</g>
<g id="link">
</g>
<g id="close">
</g>
<g id="back">
</g>
<g id="lock">
</g>
<g id="moon">
</g>
<g id="ugol">
</g>
<g id="menu2">
</g>
<g id="horse">
</g>
<g id="phone">
</g>
<g id="email">
</g>
<g id="www">
</g>
<g id="store">
</g>
<g id="star">
</g>
<g id="Слой_37">
</g>
</svg>
