<?xml version="1.0" encoding="utf-8"?>
<!-- Generator: Adobe Illustrator 23.0.1, SVG Export Plug-In . SVG Version: 6.00 Build 0)  -->
<svg version="1.1" xmlns="http://www.w3.org/2000/svg" xmlns:xlink="http://www.w3.org/1999/xlink" x="0px" y="0px"
	 viewBox="0 0 24 24" style="enable-background:new 0 0 24 24;" xml:space="preserve">
<style type="text/css">
	.st0{stroke:#000000;stroke-width:0.5;stroke-miterlimit:10;}
</style>
<g id="_menu">
</g>
<g id="dop">
</g>
<g id="zoom">
</g>
<g id="ramka">
</g>
<g id="my">
</g>
<g id="group">
</g>
<g id="channal">
</g>
<g id="contacts">
</g>
<g id="settings">
	<g>
		<g>
			<path d="M20.2,6.1l-1.5,0.3C18.4,6,18,5.6,17.6,5.3l0.4-1.5c0.1-0.6-0.2-1.3-0.8-1.6l-1.8-0.7c-0.3-0.1-0.7-0.1-1,0
				C14,1.6,13.8,1.8,13.7,2l-0.8,1.3c-0.6-0.1-1.1-0.1-1.7,0L10.3,2C10,1.5,9.3,1.2,8.7,1.5L6.9,2.2c-0.6,0.3-1,0.9-0.8,1.6l0.4,1.5
				C6,5.7,5.6,6.1,5.3,6.5L3.8,6.1c-0.3-0.1-0.6,0-0.8,0.1C2.6,6.3,2.3,6.6,2.2,6.9L1.4,8.7C1.2,9.3,1.4,10,2,10.4l1.3,0.8
				c0,0.5,0,1.1,0,1.6L2,13.7c-0.6,0.4-0.8,1.1-0.5,1.7l0.7,1.8c0.3,0.6,0.9,1,1.6,0.8l1.5-0.4c0.3,0.4,0.7,0.8,1.2,1.1l-0.4,1.5
				c-0.1,0.6,0.2,1.3,0.8,1.6l1.8,0.7c0.3,0.1,0.7,0.1,1,0c0.3-0.1,0.5-0.3,0.6-0.5l0.8-1.3c0.5,0,1,0,1.6,0l0.8,1.3
				c0.4,0.6,1.1,0.8,1.7,0.5l1.8-0.7c0.6-0.3,1-0.9,0.8-1.6l-0.3-1.5c0.4-0.3,0.8-0.7,1.1-1.1l1.5,0.4c0.3,0.1,0.6,0,0.8-0.1l0,0
				c0.3-0.1,0.6-0.4,0.7-0.7l0.7-1.8c0.3-0.6,0-1.3-0.5-1.7l-1.3-0.8c0-0.5,0.1-1.1,0-1.6l1.3-0.8c0.6-0.4,0.8-1.1,0.5-1.7l-0.7-1.8
				C21.5,6.3,20.9,5.9,20.2,6.1z M21.4,9.2c0,0.1,0,0.1,0,0.1l-1.7,1c-0.2,0.1-0.3,0.4-0.3,0.6c0.1,0.7,0.1,1.4,0,2.1
				c0,0.2,0.1,0.5,0.3,0.6l1.7,1c0,0,0.1,0.1,0,0.1l-0.7,1.8c0,0,0,0.1-0.1,0.1c0,0-0.1,0-0.1,0l-1.9-0.4c-0.2-0.1-0.5,0-0.6,0.2
				c-0.4,0.6-0.9,1.1-1.5,1.5c-0.2,0.1-0.3,0.4-0.2,0.6l0.4,1.9c0,0.1,0,0.1-0.1,0.1l-1.8,0.7c-0.1,0-0.1,0-0.1,0l-1-1.7
				c-0.1-0.2-0.4-0.3-0.6-0.3c-0.7,0.1-1.4,0.1-2,0c-0.1,0-0.2,0-0.3,0c-0.1,0-0.2,0.1-0.3,0.2l-1,1.7c0,0,0,0-0.1,0
				c0,0-0.1,0-0.1,0l-1.8-0.7c-0.1,0-0.1-0.1-0.1-0.1l0.4-1.9c0.1-0.2,0-0.5-0.2-0.6c-0.6-0.4-1.1-0.9-1.5-1.5
				c-0.1-0.2-0.4-0.3-0.6-0.2l-1.9,0.4c-0.1,0-0.1,0-0.1-0.1l-0.7-1.8c0-0.1,0-0.1,0-0.1l1.6-1c0.2-0.1,0.3-0.4,0.3-0.6
				c-0.1-0.7-0.1-1.4,0-2.1c0-0.2-0.1-0.5-0.3-0.6l-1.7-1c0,0-0.1-0.1,0-0.1l0.7-1.8c0,0,0-0.1,0.1-0.1c0,0,0.1,0,0.1,0l1.9,0.4
				c0.2,0.1,0.5,0,0.6-0.2C6.4,7,6.9,6.5,7.5,6.1c0.2-0.1,0.3-0.4,0.2-0.6L7.3,3.5c0-0.1,0-0.1,0.1-0.1l1.8-0.7c0.1,0,0.1,0,0.1,0
				l1,1.6c0.1,0.2,0.4,0.3,0.6,0.3c0.7-0.1,1.4-0.1,2.1,0c0.2,0,0.5-0.1,0.6-0.3l1-1.7c0,0,0,0,0.1,0c0,0,0.1,0,0.1,0l1.8,0.7
				c0.1,0,0.1,0.1,0.1,0.1l-0.4,1.9c-0.1,0.2,0,0.5,0.2,0.6c0.6,0.4,1.1,0.9,1.5,1.5c0.1,0.2,0.4,0.3,0.6,0.2l1.9-0.4
				c0.1,0,0.1,0,0.1,0.1L21.4,9.2L21.4,9.2z"/>
			<path d="M10.2,7.6c-2.4,1-3.6,3.8-2.6,6.2s3.8,3.6,6.2,2.6s3.6-3.8,2.6-6.2S12.6,6.6,10.2,7.6z M13.3,15.2
				c-1.8,0.7-3.8-0.1-4.6-1.9s0.1-3.8,1.9-4.6c1.8-0.7,3.8,0.1,4.6,1.9C16,12.4,15.1,14.5,13.3,15.2z"/>
		</g>
	</g>
</g>
<g id="clip">
</g>
<g id="Слой_11">
</g>
<g id="send">
</g>
<g id="column_x5F_2">
</g>
<g id="column_x5F_3">
</g>
<g id="glass">
</g>
<g id="glass_x5F_close">
</g>
<g id="basket">
</g>
<g id="info">
</g>
<g id="kolokol">
</g>
<g id="kolokol_x5F_minus">
</g>
<g id="img">
</g>
<g id="video">
</g>
<g id="file">
</g>
<g id="link">
</g>
<g id="close">
</g>
<g id="back">
</g>
<g id="lock">
</g>
<g id="moon">
</g>
<g id="ugol">
</g>
<g id="menu2">
</g>
<g id="horse">
</g>
<g id="phone">
</g>
<g id="email">
</g>
<g id="www">
</g>
<g id="store">
</g>
<g id="star">
</g>
<g id="Слой_37">
</g>
</svg>
