<?xml version="1.0" encoding="utf-8"?>
<!-- Generator: Adobe Illustrator 23.0.1, SVG Export Plug-In . SVG Version: 6.00 Build 0)  -->
<svg version="1.1" xmlns="http://www.w3.org/2000/svg" xmlns:xlink="http://www.w3.org/1999/xlink" x="0px" y="0px"
	 viewBox="0 0 24 24" style="enable-background:new 0 0 24 24;" xml:space="preserve">
<style type="text/css">
	.st0{stroke:#000000;stroke-width:0.5;stroke-miterlimit:10;}
</style>
<g id="_menu">
</g>
<g id="dop">
</g>
<g id="zoom">
</g>
<g id="ramka">
</g>
<g id="my">
</g>
<g id="group">
</g>
<g id="channal">
</g>
<g id="contacts">
</g>
<g id="settings">
</g>
<g id="clip">
	<g>
		<g>
			<path d="M6.7,22.6c-1.2,0-2.3-0.5-3.1-1.3c-1.7-1.7-1.7-4.5,0-6.2l9.9-9.9c1.2-1.2,3.1-1.2,4.2,0c1.2,1.2,1.2,3.1,0,4.2l-7.3,7.3
				c-0.3,0.3-0.8,0.3-1,0c-0.3-0.3-0.3-0.8,0-1l7.3-7.3c0.6-0.6,0.6-1.5,0-2.1C16.4,6,16,5.9,15.6,5.9c-0.4,0-0.8,0.2-1.1,0.4
				l-9.9,9.9c-1.1,1.1-1.1,3,0,4.1c0.6,0.6,1.3,0.9,2.1,0.9c0.8,0,1.5-0.3,2.1-0.9l10.1-10.1c0.8-0.8,1.3-1.9,1.3-3.1
				s-0.5-2.2-1.3-3.1c-1.7-1.7-4.4-1.7-6.1,0l-7.5,7.5c-0.3,0.3-0.8,0.3-1,0s-0.3-0.8,0-1l7.5-7.5c2.3-2.3,5.9-2.3,8.2,0
				c1.1,1.1,1.7,2.6,1.7,4.1s-0.6,3-1.7,4.1L9.9,21.4C9,22.2,7.9,22.6,6.7,22.6z"/>
			<path d="M6.7,22.9c-1.2,0-2.4-0.5-3.3-1.4c-0.9-0.9-1.4-2-1.4-3.3s0.5-2.4,1.4-3.3l9.9-9.9c1.3-1.3,3.3-1.3,4.6,0
				c1.3,1.3,1.3,3.3,0,4.6l-7.3,7.3c-0.4,0.4-1,0.4-1.4,0c-0.4-0.4-0.4-1,0-1.4l7.3-7.3C17,7.8,17,7,16.5,6.5C16,6,15.2,6,14.7,6.5
				l-9.9,9.9c-1,1-1,2.7,0,3.8c0.5,0.5,1.2,0.8,1.9,0.8c0.7,0,1.4-0.3,1.9-0.8l10.1-10.1c0.8-0.8,1.2-1.8,1.2-2.9
				c0-1.1-0.4-2.1-1.2-2.9c-0.8-0.8-1.8-1.2-2.9-1.2s-2.1,0.4-2.9,1.2l-7.5,7.5c-0.4,0.4-1,0.4-1.4,0c-0.4-0.4-0.4-1,0-1.4l7.5-7.5
				c2.4-2.4,6.2-2.4,8.5,0c1.1,1.1,1.8,2.7,1.8,4.3s-0.6,3.1-1.8,4.3L10,21.5C9.1,22.4,8,22.9,6.7,22.9z M15.6,4.6
				c-0.7,0-1.4,0.3-1.9,0.8l-9.9,9.9c-1.6,1.6-1.6,4.3,0,5.9c0.8,0.8,1.8,1.2,2.9,1.2c1.1,0,2.2-0.4,2.9-1.2l10.1-10.1
				c1.1-1.1,1.6-2.4,1.6-3.9s-0.6-2.9-1.6-3.9c-2.2-2.2-5.7-2.2-7.9,0l-7.5,7.5c-0.2,0.2-0.2,0.5,0,0.7c0.2,0.2,0.5,0.2,0.7,0
				l7.5-7.5c0.9-0.9,2-1.3,3.2-1.3s2.4,0.5,3.2,1.3c0.9,0.9,1.3,2,1.3,3.2c0,1.2-0.5,2.4-1.3,3.2L9,20.5c-0.6,0.6-1.4,0.9-2.2,0.9
				c-0.8,0-1.6-0.3-2.2-0.9c-1.2-1.2-1.2-3.2,0-4.5l9.9-9.9c0.7-0.7,1.8-0.7,2.5,0c0.7,0.7,0.7,1.8,0,2.5l-7.3,7.3
				c-0.2,0.2-0.2,0.5,0,0.7s0.5,0.2,0.7,0l7.3-7.3c1.1-1.1,1.1-2.8,0-3.9C17,4.9,16.3,4.6,15.6,4.6z"/>
		</g>
	</g>
</g>
<g id="Слой_11">
</g>
<g id="send">
</g>
<g id="column_x5F_2">
</g>
<g id="column_x5F_3">
</g>
<g id="glass">
</g>
<g id="glass_x5F_close">
</g>
<g id="basket">
</g>
<g id="info">
</g>
<g id="kolokol">
</g>
<g id="kolokol_x5F_minus">
</g>
<g id="img">
</g>
<g id="video">
</g>
<g id="file">
</g>
<g id="link">
</g>
<g id="close">
</g>
<g id="back">
</g>
<g id="lock">
</g>
<g id="moon">
</g>
<g id="ugol">
</g>
<g id="menu2">
</g>
<g id="horse">
</g>
<g id="phone">
</g>
<g id="email">
</g>
<g id="www">
</g>
<g id="store">
</g>
<g id="star">
</g>
<g id="Слой_37">
</g>
</svg>
