<?xml version="1.0" encoding="utf-8"?>
<!-- Generator: Adobe Illustrator 23.0.1, SVG Export Plug-In . SVG Version: 6.00 Build 0)  -->
<svg version="1.1" xmlns="http://www.w3.org/2000/svg" xmlns:xlink="http://www.w3.org/1999/xlink" x="0px" y="0px"
	 viewBox="0 0 24 24" style="enable-background:new 0 0 24 24;" xml:space="preserve">
<style type="text/css">
	.st0{stroke:#000000;stroke-width:0.5;stroke-miterlimit:10;}
</style>
<g id="_menu">
</g>
<g id="dop">
</g>
<g id="zoom">
</g>
<g id="ramka">
</g>
<g id="my">
</g>
<g id="group">
</g>
<g id="channal">
</g>
<g id="contacts">
</g>
<g id="settings">
</g>
<g id="clip">
</g>
<g id="Слой_11">
</g>
<g id="send">
</g>
<g id="column_x5F_2">
</g>
<g id="column_x5F_3">
</g>
<g id="glass">
</g>
<g id="glass_x5F_close">
</g>
<g id="basket">
</g>
<g id="info">
</g>
<g id="kolokol">
</g>
<g id="kolokol_x5F_minus">
</g>
<g id="img">
</g>
<g id="video">
</g>
<g id="file">
</g>
<g id="link">
</g>
<g id="close">
</g>
<g id="back">
</g>
<g id="lock">
</g>
<g id="moon">
</g>
<g id="ugol">
</g>
<g id="menu2">
</g>
<g id="horse">
	<g>
		<g>
			<path d="M11.1,6.1c0.1,0,0.2,0,0.2,0c0,0,0,0,0,0L11.1,6.1C11.1,6.1,11.1,6.1,11.1,6.1z"/>
			<path d="M1.2,20.7C1.1,20.7,1.1,20.7,1.2,20.7C1.1,20.7,1.2,20.7,1.2,20.7c0.1,0,0.1-0.1,0.1-0.1c0,0,0,0,0,0c0,0,0,0,0,0.1
				c0,0,0,0.1-0.1,0.1c0,0,0,0.1,0,0.1c0,0,0,0,0,0c0,0,0,0,0,0c0,0,0,0,0.1,0c0,0,0,0,0,0.1c0,0,0,0.1,0,0.1c0,0,0,0,0,0
				c0.1-0.1,0.3-0.2,0.4-0.3c0,0,0,0,0,0c0,0,0,0,0,0c0,0,0,0,0,0C2,20.6,2,20.5,2.1,20.4c0,0,0,0,0,0c0,0,0,0,0,0.1
				c0,0,0,0.1-0.1,0.1c0,0,0,0,0,0c0.1-0.1,0.2-0.1,0.2-0.2c0.2-0.2,0.4-0.4,0.6-0.7c0.2-0.4,0.5-0.7,0.9-1c0,0,0,0,0,0c0,0,0,0,0,0
				s0,0,0,0C3.9,18.7,4,18.7,4,18.6c0.1,0,0.1-0.1,0.2-0.1c0,0,0.1,0,0.1,0c0,0,0,0,0,0c0,0,0,0,0,0c0.2-0.2,0.3-0.4,0.5-0.6
				c0,0,0,0,0,0c0,0,0,0,0,0c0,0,0,0,0,0c0.3-0.4,0.4-0.9,0.5-1.4c0,0,0,0,0,0c0,0,0,0.1,0,0.1c0,0,0,0,0,0c0-0.1,0-0.1,0-0.2
				c0.1-0.3,0.1-0.6,0.2-0.9c0-0.2,0-0.4,0-0.6c0-0.4,0-0.9,0.1-1.3c0,0,0-0.1,0-0.1c0,0,0,0,0,0c0,0,0,0.1,0.1,0.1
				c0.3,0.6,0.5,1.3,1,1.8c0.2,0.2,0.3,0.5,0.1,0.8c-0.2,0.3-0.4,0.6-0.6,1c-0.1,0.2-0.2,0.5,0,0.7c0.2,0.3,0.3,0.5,0.5,0.8
				c0.2,0.4,0.5,0.8,0.7,1.2c0.3,0.5,0.5,1.1,0.8,1.6c0.1,0.2,0.2,0.4,0.4,0.4c0.3,0.1,0.3,0.2,0.3,0.5c0,0,0,0,0,0
				c0,0.3,0.1,0.5,0.3,0.6c0.3,0.2,0.6,0.3,0.9,0.3c0.2,0,0.4,0,0.6,0c0.2,0,0.2-0.1,0.1-0.2c-0.2-0.5-0.5-1-0.8-1.5
				c0-0.1-0.1-0.1-0.2-0.2c-0.2-0.2-0.5-0.4-0.6-0.6c-0.2-0.4-0.5-0.9-0.7-1.3c-0.2-0.5-0.3-1-0.1-1.6c0.1-0.3,0.3-0.5,0.5-0.6
				c0,0,0.1,0,0.1,0c0.1,0.1,0.1,0.2,0.2,0.2c0.3,0.2,0.6,0.4,0.9,0.5c0.3,0.2,0.6,0.3,0.8,0.6c0.2,0.2,0.4,0.4,0.6,0.7
				c0.1,0.1,0.2,0.3,0.3,0.3c0,0,0.1,0.1,0.1,0.2c0,0.1-0.1,0.3-0.1,0.4c0,0.1,0,0.2,0,0.3c0.1,0.3,0.2,0.6,0.4,0.9
				c0.1,0.1,0.2,0.3,0.4,0.4c0,0,0,0,0.1,0c0.1-0.2,0.2-0.4,0.3-0.6c0.1-0.2,0.2-0.5,0.1-0.8c-0.1-0.4-0.2-0.8-0.2-1.2
				c0-0.1,0-0.2-0.1-0.2c-0.1-0.1-0.3-0.3-0.5-0.4c-0.5-0.4-1-0.9-1.4-1.4c-0.2-0.3-0.3-0.6-0.2-0.9c0.1-0.1,0.1-0.3,0.2-0.4
				c0.2-0.4,0.4-0.8,0.4-1.2c0-0.1,0-0.2,0.1-0.4c0-0.1,0.1-0.1,0.2-0.1c0.2,0,0.4,0,0.6-0.1c0.9-0.2,1.9-0.3,2.8-0.7
				c0.5-0.2,1-0.4,1.4-0.6c0.3-0.1,0.6-0.3,1-0.5c0.2-0.1,0.3-0.1,0.4,0.1c0,0,0.1,0.1,0.2,0.1c0.5,0.1,1,0.1,1.5,0.2
				c0.6,0,1.1,0,1.7,0.1c0.1,0,0.1,0,0.2,0.1c0.1,0.1,0.1,0.2,0.2,0.2c0,0.1,0,0.1,0,0.2c-0.2,0.3-0.3,0.7-0.5,1
				c-0.1,0.1-0.2,0.2-0.4,0.2c-0.2,0-0.2,0-0.3,0.2c0,0,0,0,0,0c0,0,0,0-0.1,0c-0.1-0.1-0.1-0.1-0.2-0.2c0,0-0.1-0.1-0.1-0.1
				c-0.1,0-0.3,0-0.4,0c0,0-0.1,0-0.1,0.1c-0.2,0.3-0.5,0.7-0.5,1.1c0,0.3,0,0.3,0.3,0.3c0.6,0,1.2-0.1,1.8-0.3
				c0.3-0.1,0.6-0.3,0.6-0.6c0-0.2,0.2-0.4,0.3-0.5c0,0,0,0,0,0c0,0.1,0,0.2,0,0.4c0,0.1,0,0.2,0.1,0.3c0.1,0.2,0,0.3-0.1,0.4
				c-0.2,0.2-0.4,0.3-0.6,0.5c0,0-0.1,0.1-0.1,0.2c-0.1,0.4,0,0.7,0.2,1c0.1,0.1,0.2,0.2,0.3,0.3c0.1,0.1,0.2,0,0.3-0.1
				c0.1-0.2,0.2-0.3,0.3-0.5c0.1-0.2,0.3-0.4,0.3-0.7c0.1-0.3,0.2-0.6,0.3-0.9c0.1-0.1,0.1-0.2,0.1-0.4c-0.1-0.5-0.2-1-0.4-1.5
				c-0.1-0.3-0.1-0.6,0.1-0.9c0-0.1,0.1-0.1,0.1-0.2c0.1-0.3,0-0.6-0.2-0.8c-0.1-0.1-0.2-0.2-0.3-0.2c-0.6-0.5-1.2-1-1.9-1.4
				c0,0-0.1-0.1-0.1-0.1c0-0.2,0-0.5,0.1-0.7c0.1-0.4-0.1-0.8-0.3-1.2c-0.2-0.3-0.4-0.6-0.5-1c0-0.3-0.1-0.7-0.1-1
				c0-0.2,0.1-0.5,0.2-0.7c0-0.1,0.1-0.1,0.2-0.1c0.1,0,0.1,0.1,0.1,0.1c0.1,0.2,0.2,0.4,0.3,0.6c0.2,0.2,0.2,0.4,0.2,0.6
				c0,0.2,0.1,0.4,0.3,0.4c0.1,0,0.3,0,0.3,0.1c0,0,0.1,0,0.1,0c0.1,0,0.1,0,0.2,0c0.1,0,0.3,0,0.4-0.1c0,0,0,0,0-0.1c0,0,0,0,0,0
				c0,0,0,0,0-0.1c0.1-0.1,0.2-0.1,0.4-0.2c0,0,0-0.1,0-0.1c0,0,0,0,0,0c0,0,0,0,0-0.1c0,0,0,0,0,0c0,0,0,0,0-0.1c0,0,0-0.1,0-0.1
				c0,0,0.1-0.1,0.1-0.1c0,0,0,0,0,0c0,0,0,0,0,0c0,0,0,0,0-0.1c0,0,0,0,0,0c0,0,0,0,0,0c0,0,0-0.1,0-0.1c0-0.1,0-0.2-0.1-0.3
				c-0.2-0.6-0.3-1.2-0.3-1.8c0-0.1,0-0.1,0-0.2c0-0.2,0.1-0.3,0.1-0.5c-0.1-0.3-0.2-0.6-0.2-0.9c-0.1-0.2,0-0.3,0.2-0.4
				c0.1-0.1,0.2-0.1,0.3-0.2c0.2-0.1,0.3-0.2,0.4-0.4c0,0,0,0,0,0c0,0,0,0,0,0c0,0,0,0,0,0c-0.2,0.1-0.5,0.2-0.8,0.2
				c-0.1,0-0.2,0-0.3,0c-0.1,0-0.2,0-0.3-0.1C21.1,1.1,21,1.1,20.9,1C20.7,1,20.7,1,20.8,0.8c0-0.1,0.1-0.2,0.1-0.3c0,0,0,0,0,0
				c0,0,0-0.1,0-0.1c0,0,0,0-0.1,0c0,0-0.1,0.1-0.1,0.1c-0.1,0.1-0.2,0.2-0.3,0.3c0,0-0.1,0-0.1,0c-0.1,0-0.2-0.1-0.3-0.1
				c-0.5-0.1-1.1-0.1-1.6-0.1c0,0,0,0-0.1,0c0,0-0.1,0-0.1,0c-0.1,0-0.2,0-0.4,0c-0.1,0-0.2,0.1-0.3,0.1c-0.3,0.1-0.5,0.1-0.8,0.2
				C16.5,1,16.3,1,16.1,1.2c-0.2,0.1-0.5,0.2-0.7,0.3c-0.3,0-0.1,0.1-0.1,0.1c-0.1,0-0.2,0.1-0.2,0.1c0,0,0,0,0,0s0,0,0,0
				c0,0,0,0-0.1,0c-0.1,0-0.3,0-0.4-0.1c0,0,0,0,0,0c0.1,0.1,0.2,0.1,0.4,0.2c0,0,0,0,0,0c0,0-0.1,0-0.1,0c0,0,0,0,0,0
				c0.1,0,0.2,0,0.2,0c0,0,0.1,0,0.1,0c0,0,0,0,0,0c-0.3,0.1-0.5,0.2-0.7,0.3c0,0,0,0,0,0c0,0,0,0,0,0c0,0,0.1,0,0.1,0c0,0,0,0,0,0
				c-0.1,0.1-0.2,0.1-0.3,0.2c0,0,0,0,0,0c0,0,0,0,0.1,0l0,0c0,0,0,0,0,0c-0.1,0-0.1,0.1-0.2,0.1C13.4,2.8,13,3,12.6,3.1
				c0,0,0,0,0,0c-0.1,0.1-0.2,0.1-0.3,0c-0.1,0-0.1,0-0.2-0.1c0,0-0.1,0-0.1,0c0,0,0,0,0,0c0.1,0,0.2,0.1,0.3,0.1c0,0,0,0,0,0.1
				c-0.1,0.2-0.1,0.2-0.3,0.1c-0.1,0-0.1,0-0.2,0c0,0-0.1,0-0.1,0.1c0,0.1,0,0.1,0.1,0.2c0,0,0,0.1,0,0.1c0,0-0.1,0-0.4,0
				c0,0,0,0,0,0c0.2,0.1,0.4,0.1,0.6,0.2c0,0,0.1,0,0,0c0,0,0,0,0,0c0,0,0,0,0,0c0.1,0,0.1,0,0.2,0c0,0,0.1,0,0.1,0c0,0,0,0-0.1,0
				c-0.1,0-0.2,0-0.2,0c0,0-0.1,0-0.1,0s0,0,0.1,0c0.1,0,0.1,0,0.2,0c0,0,0.1,0,0.1,0c0,0,0,0,0,0c-0.1,0-0.2,0.1-0.3,0.1
				c0,0,0,0,0,0c0,0,0,0,0,0c-0.1,0-0.1,0-0.2,0c0,0,0,0,0,0c0.2,0.1,0.3,0,0.5,0c0,0,0,0,0,0c-0.2,0.1-0.5,0.3-0.7,0.4c0,0,0,0,0,0
				c0,0,0,0,0,0c0,0,0.1,0,0.1,0c0,0,0,0-0.1,0c-0.1,0-0.2,0-0.4,0.1c0,0,0,0,0,0c0.1,0,0.1,0,0.2,0c0,0,0.1,0,0.1,0s0,0-0.1,0
				c0,0-0.1,0-0.1,0c0,0,0,0,0,0c0,0,0,0,0,0c0,0,0,0-0.1,0c-0.2,0-0.4,0-0.5,0c0,0,0,0,0,0c0.1,0,0.1,0,0.2,0.1c0,0,0.1,0,0.1,0.1
				c0,0,0,0,0,0c0,0,0,0.1,0,0.1c0,0,0.1,0.1,0.1,0.1c0,0,0,0,0,0c0,0,0,0,0,0c0,0-0.1,0-0.1,0c0,0,0,0,0,0c0.1,0,0.2,0.1,0.3,0.1
				c0,0,0,0,0,0c0,0,0,0,0,0c0,0,0,0,0,0c0,0,0.1,0,0.1,0c0,0,0,0,0,0c-0.1,0.1-0.2,0.1-0.3,0.2c0,0,0,0,0,0.1c0,0,0,0.1,0,0.1
				c0,0,0,0,0,0c0.1,0,0.2,0,0.2,0c0,0,0.1,0,0.1,0s0,0,0,0c0,0-0.1,0-0.1,0c0,0,0,0,0,0c0,0,0.1,0,0.1,0c0,0,0,0,0,0c0,0,0,0,0,0
				c0,0,0,0,0,0c0,0,0.1,0,0.1,0c0,0,0,0,0,0c-0.1,0.1-0.4,0.2-0.5,0.3c0,0,0,0,0,0c0,0,0.1,0,0.1,0c0,0,0.1,0,0.1,0s0,0,0,0
				C11.2,6.8,11.1,6.9,11,7c0,0,0,0,0,0c0,0,0,0,0.1,0l0.3-0.1c0,0,0.1,0,0.1,0c0,0,0,0,0,0C11.2,7,11,7.1,10.9,7.3c0,0,0,0,0,0
				c0.2,0,0.3-0.1,0.5-0.1c0,0,0,0,0,0.1c0,0,0,0,0,0c0,0,0,0,0,0c0,0,0.1,0,0.1,0c0,0,0.1,0,0.1,0c0,0,0,0,0,0c0,0,0,0,0,0
				c0,0,0,0,0,0c0,0,0,0,0.1,0c0.1,0,0.1,0,0.2-0.1c0,0,0.1,0,0.1,0c0,0,0,0,0,0c-0.2,0.1-0.3,0.2-0.5,0.2c0,0,0,0,0,0
				c0,0,0,0,0.1,0c0.2-0.1,0.4-0.1,0.6-0.2c0,0,0,0,0,0c0,0,0,0.1-0.1,0.1c0,0,0,0.1,0,0.1c0,0,0,0,0.1,0c0.1-0.1,0.2-0.1,0.4-0.2
				c0,0,0.1,0,0.1,0c0,0,0,0,0,0.1c0,0,0,0-0.1,0.1c0,0,0,0,0,0c0.1,0,0.2-0.1,0.2-0.1c0,0,0.1,0,0.1,0c0,0,0,0,0,0.1c0,0,0,0,0,0
				c-0.2,0.2-0.4,0.5-0.7,0.6c-0.5,0.2-0.9,0.3-1.4,0.5c-0.2,0.1-0.4,0.1-0.6,0.2c-0.3,0-0.6,0-0.8,0.1C8.7,8.9,8.5,9,8.3,9.1
				C8.2,9.1,8.1,9.2,7.9,9.3C7.4,9.6,6.9,10,6.5,10.5c-0.3,0.4-0.6,0.7-1,0.9c-0.1,0-0.1,0.1-0.2,0.1c-0.1,0.1-0.2,0.2-0.3,0.3
				c-0.3,0.3-0.6,0.5-0.9,0.8C4,12.7,3.9,12.9,3.9,13c-0.3,0.6-0.6,1.2-0.9,1.8c0,0,0,0,0,0c0,0,0,0,0,0c0,0,0,0,0,0
				c0-0.1,0.1-0.2,0.1-0.3c0,0,0,0,0,0c0,0,0,0,0,0.1c-0.1,0.3-0.2,0.7-0.4,1c0,0,0,0,0,0c0,0,0,0,0,0c0,0.1,0,0.1,0,0.2
				c-0.1,0.5-0.3,0.9-0.5,1.4C2,17.4,1.8,17.7,1.6,18c0,0-0.1,0.2-0.3,0.2c0,0,0,0,0,0.1c0,0,0,0.1,0,0c0.1-0.1,0.3-0.2,0.4-0.3
				c0,0,0,0,0.1,0c0,0,0,0,0,0.1c0,0,0,0.1-0.1,0.1c0,0,0,0,0,0C1.9,18.1,2,18,2.1,17.9c0,0,0,0,0,0c0,0,0,0,0,0.1c0,0,0,0,0,0
				s0,0,0,0c0-0.1,0.1-0.1,0.1-0.2c0,0,0,0,0.1,0c0,0,0,0,0,0.1c-0.2,0.4-0.5,0.8-0.7,1.1c0,0,0,0,0,0.1c0,0,0,0,0,0
				c0-0.1,0.1-0.1,0.1-0.2c0,0,0,0,0,0c-0.2,0.5-0.5,1-0.7,1.6c0,0,0,0,0,0c0,0,0,0,0,0c0,0,0,0,0,0C1.2,20.5,1.2,20.6,1.2,20.7z"/>
		</g>
	</g>
</g>
<g id="phone">
</g>
<g id="email">
</g>
<g id="www">
</g>
<g id="store">
</g>
<g id="star">
</g>
<g id="Слой_37">
</g>
</svg>
