<?xml version="1.0" encoding="utf-8"?>
<!-- Generator: Adobe Illustrator 23.0.1, SVG Export Plug-In . SVG Version: 6.00 Build 0)  -->
<svg version="1.1" xmlns="http://www.w3.org/2000/svg" xmlns:xlink="http://www.w3.org/1999/xlink" x="0px" y="0px"
	 viewBox="0 0 24 24" style="enable-background:new 0 0 24 24;" xml:space="preserve">
<style type="text/css">
	.st0{stroke:#000000;stroke-width:0.5;stroke-miterlimit:10;}
</style>
<g id="_menu">
</g>
<g id="dop">
</g>
<g id="zoom">
</g>
<g id="ramka">
</g>
<g id="my">
</g>
<g id="group">
</g>
<g id="channal">
</g>
<g id="contacts">
</g>
<g id="settings">
</g>
<g id="clip">
</g>
<g id="Слой_11">
</g>
<g id="send">
</g>
<g id="column_x5F_2">
</g>
<g id="column_x5F_3">
</g>
<g id="glass">
</g>
<g id="glass_x5F_close">
</g>
<g id="basket">
</g>
<g id="info">
</g>
<g id="kolokol">
</g>
<g id="kolokol_x5F_minus">
</g>
<g id="img">
</g>
<g id="video">
</g>
<g id="file">
</g>
<g id="link">
</g>
<g id="close">
</g>
<g id="back">
</g>
<g id="lock">
</g>
<g id="moon">
</g>
<g id="ugol">
</g>
<g id="menu2">
</g>
<g id="horse">
</g>
<g id="phone">
</g>
<g id="email">
	<g>
		<g>
			<g>
				<path d="M19.9,2.3H4.1c-1.2,0-2.2,1-2.2,2.2v9.7c0,1.2,1,2.2,2.2,2.2h1.8c0.2,0,0.4-0.2,0.4-0.4s-0.2-0.4-0.4-0.4H4.1
					c-0.7,0-1.3-0.6-1.3-1.3V4.5c0-0.7,0.6-1.3,1.3-1.3h15.9c0.7,0,1.3,0.6,1.3,1.3v9.7c0,0.7-0.6,1.3-1.3,1.3h-1.8
					c-0.2,0-0.4,0.2-0.4,0.4c0,0.2,0.2,0.4,0.4,0.4h1.8c1.2,0,2.2-1,2.2-2.2V4.5C22.1,3.3,21.1,2.3,19.9,2.3z"/>
			</g>
		</g>
		<g>
			<g>
				<path d="M20.3,4.3c-0.1-0.2-0.4-0.2-0.6-0.1l-6.8,4.9c-0.5,0.4-1.2,0.4-1.7,0L4.3,4.2C4.1,4,3.9,4.1,3.7,4.3
					C3.6,4.4,3.6,4.7,3.8,4.9l6.8,4.9c0.4,0.3,0.9,0.4,1.3,0.4s0.9-0.1,1.3-0.4l6.8-4.9C20.4,4.7,20.4,4.4,20.3,4.3z"/>
			</g>
		</g>
		<g>
			<g>
				<path d="M8.8,9.5c-0.2-0.2-0.5-0.2-0.6,0l-4.4,4.4c-0.2,0.2-0.2,0.5,0,0.6c0.1,0.1,0.2,0.1,0.3,0.1c0.1,0,0.2,0,0.3-0.1l4.4-4.4
					C9,9.9,9,9.7,8.8,9.5z"/>
			</g>
		</g>
		<g>
			<g>
				<path d="M20.2,13.9l-4.4-4.4c-0.2-0.2-0.5-0.2-0.6,0c-0.2,0.2-0.2,0.5,0,0.6l4.4,4.4c0.1,0.1,0.2,0.1,0.3,0.1
					c0.1,0,0.2,0,0.3-0.1C20.4,14.3,20.4,14.1,20.2,13.9z"/>
			</g>
		</g>
		<g>
			<g>
				<path d="M12,12c-2.7,0-4.8,2.2-4.8,4.8s2.2,4.8,4.8,4.8c1.3,0,2.5-0.5,3.4-1.4c0.2-0.2,0.2-0.4,0-0.6c-0.2-0.2-0.4-0.2-0.6,0
					C14,20.4,13,20.8,12,20.8c-2.2,0-4-1.8-4-4s1.8-4,4-4s4,1.8,4,4c0,0.2,0.2,0.4,0.4,0.4s0.4-0.2,0.4-0.4C16.8,14.2,14.7,12,12,12
					z"/>
			</g>
		</g>
		<g>
			<g>
				<path d="M12,14.6c-1.2,0-2.2,1-2.2,2.2s1,2.2,2.2,2.2s2.2-1,2.2-2.2C14.2,15.6,13.2,14.6,12,14.6z M12,18.2
					c-0.7,0-1.3-0.6-1.3-1.3c0-0.7,0.6-1.3,1.3-1.3c0.7,0,1.3,0.6,1.3,1.3C13.3,17.6,12.7,18.2,12,18.2z"/>
			</g>
		</g>
		<g>
			<g>
				<path d="M16.4,16.4c-0.2,0-0.4,0.2-0.4,0.4c0,1-0.2,1.3-0.9,1.3c-0.6,0-0.9-0.4-0.9-1.3c0-0.2-0.2-0.4-0.4-0.4s-0.4,0.2-0.4,0.4
					c0,1.4,0.7,2.2,1.8,2.2c1.8,0,1.8-1.7,1.8-2.2C16.8,16.6,16.6,16.4,16.4,16.4z"/>
			</g>
		</g>
	</g>
</g>
<g id="www">
</g>
<g id="store">
</g>
<g id="star">
</g>
<g id="Слой_37">
</g>
</svg>
