<?xml version="1.0" encoding="utf-8"?>
<!-- Generator: Adobe Illustrator 23.0.1, SVG Export Plug-In . SVG Version: 6.00 Build 0)  -->
<svg version="1.1" xmlns="http://www.w3.org/2000/svg" xmlns:xlink="http://www.w3.org/1999/xlink" x="0px" y="0px"
	 viewBox="0 0 24 24" style="enable-background:new 0 0 24 24;" xml:space="preserve">
<style type="text/css">
	.st0{stroke:#000000;stroke-width:0.5;stroke-miterlimit:10;}
</style>
<g id="_menu">
</g>
<g id="dop">
</g>
<g id="zoom">
</g>
<g id="ramka">
</g>
<g id="my">
</g>
<g id="group">
</g>
<g id="channal">
</g>
<g id="contacts">
</g>
<g id="settings">
</g>
<g id="clip">
</g>
<g id="Слой_11">
</g>
<g id="send">
</g>
<g id="column_x5F_2">
</g>
<g id="column_x5F_3">
</g>
<g id="glass">
</g>
<g id="glass_x5F_close">
</g>
<g id="basket">
</g>
<g id="info">
</g>
<g id="kolokol">
</g>
<g id="kolokol_x5F_minus">
</g>
<g id="img">
</g>
<g id="video">
</g>
<g id="file">
</g>
<g id="link">
	<g>
		<g>
			<path d="M6.5,12c0,0.2,0.1,0.4,0.2,0.5c0.1,0.1,0.3,0.2,0.5,0.2h9.5c0.4,0,0.7-0.3,0.7-0.7c0-0.4-0.3-0.7-0.7-0.7l-9.5,0
				C6.8,11.3,6.5,11.6,6.5,12z"/>
			<path d="M16.7,13H7.2c-0.3,0-0.5-0.1-0.7-0.3S6.2,12.3,6.2,12c0-0.5,0.4-1,1-1h9.5c0.5,0,1,0.4,1,1C17.7,12.5,17.2,13,16.7,13z
				 M7.2,11.5c-0.3,0-0.5,0.2-0.5,0.5c0,0.1,0,0.2,0.1,0.3s0.2,0.1,0.3,0.1h9.5c0.3,0,0.5-0.2,0.5-0.5c0-0.3-0.2-0.5-0.5-0.5H7.2z"
				/>
		</g>
		<g>
			<path d="M9.9,15.4l-3.3,0c-0.9,0-1.8-0.4-2.4-1c-0.7-0.7-1-1.5-1-2.4c0-1.9,1.5-3.4,3.4-3.4h3.3c0.4,0,0.7-0.3,0.7-0.7
				c0-0.4-0.3-0.7-0.7-0.7l-3.3,0c-2.7,0-4.9,2.2-4.9,4.9c0,1.3,0.5,2.5,1.4,3.4c0.9,0.9,2.1,1.4,3.4,1.4l3.3,0
				c0.4,0,0.7-0.3,0.7-0.7C10.6,15.8,10.3,15.4,9.9,15.4z"/>
			<path d="M9.9,17.1H6.6c-1.4,0-2.6-0.5-3.6-1.5c-1-1-1.5-2.2-1.5-3.6c0-2.8,2.3-5.1,5.1-5.1h3.3c0.5,0,1,0.4,1,1c0,0.5-0.4,1-1,1
				H6.6c-1.8,0-3.2,1.4-3.2,3.2c0,0.9,0.3,1.7,0.9,2.3c0.6,0.6,1.4,0.9,2.3,0.9l3.3,0c0.5,0,1,0.4,1,1C10.8,16.7,10.4,17.1,9.9,17.1
				z M6.6,7.4C4,7.4,2,9.5,2,12c0,1.2,0.5,2.4,1.4,3.3c0.9,0.9,2,1.4,3.3,1.4h3.3c0.3,0,0.5-0.2,0.5-0.5c0-0.3-0.2-0.5-0.5-0.5
				l-3.3,0c-1,0-1.9-0.4-2.6-1.1C3.3,13.9,2.9,13,2.9,12c0-2,1.7-3.7,3.7-3.7h3.3c0.3,0,0.5-0.2,0.5-0.5c0-0.3-0.2-0.5-0.5-0.5H6.6z
				"/>
		</g>
		<g>
			<path d="M13.4,16.2c0,0.4,0.3,0.7,0.7,0.7l3.3,0c1.3,0,2.5-0.5,3.4-1.4c0.9-0.9,1.4-2.1,1.4-3.4c0-2.7-2.2-4.9-4.9-4.9l-3.3,0
				c-0.4,0-0.7,0.3-0.7,0.7c0,0.4,0.3,0.7,0.7,0.7h3.3c1.9,0,3.4,1.5,3.4,3.4c0,0.9-0.4,1.8-1,2.4c-0.7,0.7-1.5,1-2.4,1l-3.3,0
				C13.7,15.4,13.4,15.8,13.4,16.2z"/>
			<path d="M13.2,16.2c0-0.5,0.4-1,1-1l3.3,0c0.9,0,1.7-0.3,2.3-0.9c0.6-0.6,0.9-1.4,0.9-2.3c0-1.8-1.4-3.2-3.2-3.2h-3.3
				c-0.5,0-1-0.4-1-1c0-0.5,0.4-1,1-1h3.3c2.8,0,5.1,2.3,5.1,5.1c0,1.4-0.5,2.6-1.5,3.6c-1,1-2.2,1.5-3.6,1.5h-3.3
				C13.6,17.1,13.2,16.7,13.2,16.2z M14.1,7.4c-0.3,0-0.5,0.2-0.5,0.5c0,0.3,0.2,0.5,0.5,0.5h3.3c2,0,3.7,1.7,3.7,3.7
				c0,1-0.4,1.9-1.1,2.6c-0.7,0.7-1.6,1.1-2.6,1.1l-3.3,0c-0.3,0-0.5,0.2-0.5,0.5c0,0.3,0.2,0.5,0.5,0.5h3.3c1.2,0,2.4-0.5,3.3-1.4
				c0.9-0.9,1.4-2,1.4-3.3c0-2.5-2.1-4.6-4.6-4.6H14.1z"/>
		</g>
	</g>
</g>
<g id="close">
</g>
<g id="back">
</g>
<g id="lock">
</g>
<g id="moon">
</g>
<g id="ugol">
</g>
<g id="menu2">
</g>
<g id="horse">
</g>
<g id="phone">
</g>
<g id="email">
</g>
<g id="www">
</g>
<g id="store">
</g>
<g id="star">
</g>
<g id="Слой_37">
</g>
</svg>
