<?xml version="1.0" encoding="utf-8"?>
<!-- Generator: Adobe Illustrator 23.0.1, SVG Export Plug-In . SVG Version: 6.00 Build 0)  -->
<svg version="1.1" xmlns="http://www.w3.org/2000/svg" xmlns:xlink="http://www.w3.org/1999/xlink" x="0px" y="0px"
	 viewBox="0 0 24 24" style="enable-background:new 0 0 24 24;" xml:space="preserve">
<style type="text/css">
	.st0{stroke:#000000;stroke-width:0.5;stroke-miterlimit:10;}
</style>
<g id="_menu">
</g>
<g id="dop">
</g>
<g id="zoom">
</g>
<g id="ramka">
</g>
<g id="my">
</g>
<g id="group">
</g>
<g id="channal">
</g>
<g id="contacts">
</g>
<g id="settings">
</g>
<g id="clip">
</g>
<g id="Слой_11">
</g>
<g id="send">
</g>
<g id="column_x5F_2">
</g>
<g id="column_x5F_3">
</g>
<g id="glass">
</g>
<g id="glass_x5F_close">
</g>
<g id="basket">
</g>
<g id="info">
</g>
<g id="kolokol">
</g>
<g id="kolokol_x5F_minus">
</g>
<g id="img">
</g>
<g id="video">
</g>
<g id="file">
</g>
<g id="link">
</g>
<g id="close">
</g>
<g id="back">
</g>
<g id="lock">
	<g>
		<g>
			<path d="M20,9.2h-1.4V7.3c0-3.6-2.9-6.6-6.6-6.6S5.4,3.7,5.4,7.3v1.9H4c-0.3,0-0.5,0.2-0.5,0.5v11.7c0,1,0.8,1.9,1.9,1.9h13.1
				c1,0,1.9-0.8,1.9-1.9V9.7C20.5,9.4,20.2,9.2,20,9.2z M13.4,19c0,0.1,0,0.3-0.1,0.4c-0.1,0.1-0.2,0.2-0.3,0.2h-1.9
				c-0.1,0-0.3-0.1-0.3-0.2c-0.1-0.1-0.1-0.2-0.1-0.4l0.3-2.7c-0.5-0.3-0.8-0.9-0.8-1.5c0-1,0.8-1.9,1.9-1.9s1.9,0.8,1.9,1.9
				c0,0.6-0.3,1.2-0.8,1.5L13.4,19z M15.8,9.2H8.2V7.3c0-2.1,1.7-3.8,3.8-3.8s3.8,1.7,3.8,3.8V9.2z"/>
		</g>
	</g>
</g>
<g id="moon">
</g>
<g id="ugol">
</g>
<g id="menu2">
</g>
<g id="horse">
</g>
<g id="phone">
</g>
<g id="email">
</g>
<g id="www">
</g>
<g id="store">
</g>
<g id="star">
</g>
<g id="Слой_37">
</g>
</svg>
