<?xml version="1.0" encoding="utf-8"?>
<!-- Generator: Adobe Illustrator 23.0.1, SVG Export Plug-In . SVG Version: 6.00 Build 0)  -->
<svg version="1.1" xmlns="http://www.w3.org/2000/svg" xmlns:xlink="http://www.w3.org/1999/xlink" x="0px" y="0px"
	 viewBox="0 0 24 24" style="enable-background:new 0 0 24 24;" xml:space="preserve">
<style type="text/css">
	.st0{stroke:#000000;stroke-width:0.5;stroke-miterlimit:10;}
</style>
<g id="_menu">
</g>
<g id="dop">
</g>
<g id="zoom">
</g>
<g id="ramka">
</g>
<g id="my">
</g>
<g id="group">
	<g>
		<path d="M8,4.5c1.7,0,3,1.3,3,3s-1.3,3-3,3s-3-1.3-3-3S6.3,4.5,8,4.5 M8,3C5.5,3,3.5,5,3.5,7.5S5.5,12,8,12s4.5-2,4.5-4.5
			S10.5,3,8,3L8,3z"/>
	</g>
	<g>
		<path d="M18,5.5c1.4,0,2.5,1.1,2.5,2.5s-1.1,2.5-2.5,2.5S15.5,9.4,15.5,8S16.6,5.5,18,5.5 M18,4c-2.2,0-4,1.8-4,4s1.8,4,4,4
			s4-1.8,4-4S20.2,4,18,4L18,4z"/>
	</g>
	<g>
		<path d="M15,19.8c-0.2,0-0.5-0.1-0.6-0.3l-2-2.7c-0.5-0.6-1.2-1-2-1H5.6c-0.8,0-1.5,0.4-2,1l-2,2.7c-0.2,0.3-0.7,0.4-1,0.1
			c-0.3-0.2-0.4-0.7-0.1-1l2-2.7c0.7-1,1.9-1.6,3.2-1.6h4.8c1.2,0,2.4,0.6,3.2,1.6l2,2.7c0.2,0.3,0.2,0.8-0.1,1
			C15.3,19.7,15.2,19.8,15,19.8z"/>
	</g>
	<g>
		<path d="M23,19.8c-0.2,0-0.5-0.1-0.6-0.3l-2.2-3c-0.3-0.5-0.9-0.7-1.5-0.7H16c-0.4,0-0.8-0.3-0.8-0.8s0.3-0.8,0.8-0.8h2.7
			c1,0,2,0.5,2.7,1.3l2.2,3c0.2,0.3,0.2,0.8-0.1,1C23.3,19.7,23.2,19.8,23,19.8z"/>
	</g>
</g>
<g id="channal">
</g>
<g id="contacts">
</g>
<g id="settings">
</g>
<g id="clip">
</g>
<g id="Слой_11">
</g>
<g id="send">
</g>
<g id="column_x5F_2">
</g>
<g id="column_x5F_3">
</g>
<g id="glass">
</g>
<g id="glass_x5F_close">
</g>
<g id="basket">
</g>
<g id="info">
</g>
<g id="kolokol">
</g>
<g id="kolokol_x5F_minus">
</g>
<g id="img">
</g>
<g id="video">
</g>
<g id="file">
</g>
<g id="link">
</g>
<g id="close">
</g>
<g id="back">
</g>
<g id="lock">
</g>
<g id="moon">
</g>
<g id="ugol">
</g>
<g id="menu2">
</g>
<g id="horse">
</g>
<g id="phone">
</g>
<g id="email">
</g>
<g id="www">
</g>
<g id="store">
</g>
<g id="star">
</g>
<g id="Слой_37">
</g>
</svg>
