<?xml version="1.0" encoding="utf-8"?>
<!-- Generator: Adobe Illustrator 23.0.1, SVG Export Plug-In . SVG Version: 6.00 Build 0)  -->
<svg version="1.1" xmlns="http://www.w3.org/2000/svg" xmlns:xlink="http://www.w3.org/1999/xlink" x="0px" y="0px"
	 viewBox="0 0 24 24" style="enable-background:new 0 0 24 24;" xml:space="preserve">
<style type="text/css">
	.st0{stroke:#000000;stroke-width:0.5;stroke-miterlimit:10;}
</style>
<g id="_menu">
</g>
<g id="dop">
</g>
<g id="zoom">
</g>
<g id="ramka">
</g>
<g id="my">
</g>
<g id="group">
</g>
<g id="channal">
</g>
<g id="contacts">
</g>
<g id="settings">
</g>
<g id="clip">
</g>
<g id="Слой_11">
</g>
<g id="send">
</g>
<g id="column_x5F_2">
</g>
<g id="column_x5F_3">
</g>
<g id="glass">
</g>
<g id="glass_x5F_close">
</g>
<g id="basket">
</g>
<g id="info">
</g>
<g id="kolokol">
</g>
<g id="kolokol_x5F_minus">
</g>
<g id="img">
</g>
<g id="video">
</g>
<g id="file">
</g>
<g id="link">
</g>
<g id="close">
</g>
<g id="back">
</g>
<g id="lock">
</g>
<g id="moon">
</g>
<g id="ugol">
</g>
<g id="menu2">
</g>
<g id="horse">
</g>
<g id="phone">
</g>
<g id="email">
</g>
<g id="www">
</g>
<g id="store">
	<path d="M19.5,13.2c-0.4-0.7-1.3-1-2.1-0.8l-2.8-3.1c-0.1-0.2-0.4-0.2-0.6-0.2l-2,0.6l3.1-6.1c0.2-0.4,0.2-0.9,0.1-1.3
		c-0.1-0.4-0.5-0.8-0.9-1s-0.9-0.2-1.3-0.1c-0.4,0.1-0.8,0.5-1,0.9l-1.7,3.4c-0.3-0.1-0.7-0.1-1-0.1c-0.1,0-0.2,0.1-0.3,0.1l0.9-2.3
		c0.2-0.4,0.2-0.9,0-1.3c-0.2-0.4-0.5-0.8-1-0.9C8.5,0.8,8,0.8,7.6,1C7.2,1.2,6.8,1.5,6.7,2L4.2,8.4c0,0.1,0,0.1,0,0.2v14.1
		c0,0.3,0.2,0.5,0.5,0.5H11c0.3,0,0.5-0.2,0.5-0.5l0-1.6l7.4-5.3C19.8,15.1,20,14,19.5,13.2z M10.8,20.3
		C10.7,20.3,10.7,20.3,10.8,20.3L10.8,20.3c-0.1,0.1-0.1,0.1-0.1,0.1l-0.1,0.1c0,0,0,0,0,0c0,0,0,0,0,0l0,0l0.1,0l-0.1,0l0,0.1
		c0,0,0,0,0,0c0,0,0,0,0,0l0,1.4H5.3v-5l1.1-5.7l2.8-4.5c0.1-0.1,0.2-0.3,0.4-0.3c0.2,0,0.3,0,0.5,0.1c0.3,0.2,0.4,0.6,0.2,0.9
		L8,11.2c0,0,0,0,0,0c0,0,0,0,0,0.1c0,0,0,0,0,0l0,0c0,0,0,0,0,0.1c0,0,0,0,0,0s0,0,0,0l0,0l1.3,4.7c0.1,0.3,0.4,0.5,0.7,0.4
		c0.3-0.1,0.5-0.4,0.4-0.7l-0.3-1l1.6-0.8c0,0.1,0,0.2,0,0.3c0.1,0.5,0.5,1,1,1.2c0.5,0.2,1.1,0.2,1.5-0.1l3.4-2l0,0
		c0.4-0.2,0.8-0.1,1,0.3c0.2,0.3,0.1,0.8-0.2,1h0L10.8,20.3z M7.7,2.3C7.8,2,8.2,1.8,8.5,2C8.7,2,8.8,2.1,8.9,2.3
		C9,2.5,9,2.6,8.9,2.8L6.6,8.9l-1.2,2c0,0.1-0.1,0.1-0.1,0.2l0,0.2V8.7L7.7,2.3z M13,14.6c-0.2-0.1-0.3-0.2-0.4-0.4
		c-0.1-0.3,0.1-0.6,0.3-0.7l0.7-0.4l0.9,0.9l-1,0.6C13.4,14.7,13.2,14.7,13,14.6z M15.5,13.4L14.1,12c0,0,0,0,0,0l0,0h0c0,0,0,0,0,0
		l0,0c0,0,0,0-0.1,0l0,0c0,0-0.1,0-0.2,0c0,0,0,0,0,0c0,0-0.1,0-0.1,0c0,0,0,0-0.1,0c0,0,0,0-0.1,0l-3.8,1.9l-0.5-2l5-1.5l2.3,2.6
		L15.5,13.4z M11.2,6.2l1.8-3.6c0.1-0.2,0.2-0.3,0.4-0.3c0.2-0.1,0.3,0,0.5,0c0.3,0.2,0.5,0.6,0.3,0.9l-3.6,7.1l-0.9,0.3l1.5-2.5
		C11.6,7.5,11.6,6.8,11.2,6.2z M10.7,20.5L10.7,20.5L10.7,20.5C10.7,20.5,10.7,20.5,10.7,20.5z M10.7,20.5L10.7,20.5L10.7,20.5
		L10.7,20.5L10.7,20.5z M10.8,20.4L10.8,20.4L10.8,20.4L10.8,20.4z"/>
</g>
<g id="star">
</g>
<g id="Слой_37">
</g>
</svg>
