<?xml version="1.0" encoding="utf-8"?>
<!-- Generator: Adobe Illustrator 23.0.1, SVG Export Plug-In . SVG Version: 6.00 Build 0)  -->
<svg version="1.1" xmlns="http://www.w3.org/2000/svg" xmlns:xlink="http://www.w3.org/1999/xlink" x="0px" y="0px"
	 viewBox="0 0 24 24" style="enable-background:new 0 0 24 24;" xml:space="preserve">
<style type="text/css">
	.st0{stroke:#000000;stroke-width:0.5;stroke-miterlimit:10;}
</style>
<g id="_menu">
</g>
<g id="dop">
</g>
<g id="zoom">
</g>
<g id="ramka">
</g>
<g id="my">
</g>
<g id="group">
</g>
<g id="channal">
</g>
<g id="contacts">
</g>
<g id="settings">
</g>
<g id="clip">
</g>
<g id="Слой_11">
</g>
<g id="send">
</g>
<g id="column_x5F_2">
</g>
<g id="column_x5F_3">
</g>
<g id="glass">
</g>
<g id="glass_x5F_close">
</g>
<g id="basket">
</g>
<g id="info">
</g>
<g id="kolokol">
</g>
<g id="kolokol_x5F_minus">
</g>
<g id="img">
</g>
<g id="video">
</g>
<g id="file">
</g>
<g id="link">
</g>
<g id="close">
</g>
<g id="back">
</g>
<g id="lock">
</g>
<g id="moon">
	<g>
		<path d="M22.4,16c0-0.2-0.1-0.3-0.2-0.5c-0.3-0.3-0.6-0.4-1-0.2c-1,0.5-2.1,0.7-3.2,0.7c-1.4,0-2.7-0.3-3.9-1
			c-1.2-0.7-2.1-1.6-2.8-2.8c-0.7-1.2-1-2.5-1-3.9c0-1.1,0.2-2.1,0.6-3.1c0.4-1,1.1-1.8,1.9-2.6c0.3-0.3,0.4-0.6,0.2-1
			c-0.2-0.4-0.4-0.6-0.9-0.6c-1.4,0.1-2.8,0.4-4.1,1C6.6,2.7,5.5,3.5,4.6,4.4c-0.9,1-1.7,2.1-2.2,3.4C1.8,9.2,1.6,10.5,1.6,12
			c0,1.5,0.3,2.9,0.9,4.2c0.6,1.3,1.4,2.5,2.3,3.5c1,1,2.1,1.7,3.5,2.3c1.3,0.6,2.8,0.9,4.2,0.9c2.1,0,4.1-0.6,5.9-1.7
			c1.8-1.1,3.1-2.7,4-4.6C22.4,16.4,22.4,16.2,22.4,16z M16.3,20.2c-1.2,0.6-2.5,0.9-3.9,0.9c-1.2,0-2.4-0.2-3.5-0.7
			c-1.1-0.5-2.1-1.1-2.9-1.9c-0.8-0.8-1.5-1.8-1.9-2.9c-0.5-1.1-0.7-2.3-0.7-3.5c0-2,0.6-3.8,1.8-5.4C6.4,5,8,3.9,9.9,3.3
			c-1,1.6-1.5,3.2-1.5,5.1c0,1.7,0.4,3.3,1.3,4.8c0.9,1.5,2,2.6,3.5,3.5c1.5,0.9,3.1,1.3,4.8,1.3c0.5,0,1,0,1.6-0.1
			C18.6,18.8,17.6,19.6,16.3,20.2z"/>
	</g>
</g>
<g id="ugol">
</g>
<g id="menu2">
</g>
<g id="horse">
</g>
<g id="phone">
</g>
<g id="email">
</g>
<g id="www">
</g>
<g id="store">
</g>
<g id="star">
</g>
<g id="Слой_37">
</g>
</svg>
