<?xml version="1.0" encoding="utf-8"?>
<!-- Generator: Adobe Illustrator 23.0.1, SVG Export Plug-In . SVG Version: 6.00 Build 0)  -->
<svg version="1.1" xmlns="http://www.w3.org/2000/svg" xmlns:xlink="http://www.w3.org/1999/xlink" x="0px" y="0px"
	 viewBox="0 0 24 24" style="enable-background:new 0 0 24 24;" xml:space="preserve">
<style type="text/css">
	.st0{stroke:#000000;stroke-width:0.5;stroke-miterlimit:10;}
</style>
<g id="_menu">
</g>
<g id="dop">
</g>
<g id="zoom">
</g>
<g id="ramka">
</g>
<g id="my">
</g>
<g id="group">
</g>
<g id="channal">
</g>
<g id="contacts">
</g>
<g id="settings">
</g>
<g id="clip">
</g>
<g id="Слой_11">
</g>
<g id="send">
</g>
<g id="column_x5F_2">
</g>
<g id="column_x5F_3">
</g>
<g id="glass">
</g>
<g id="glass_x5F_close">
</g>
<g id="basket">
</g>
<g id="info">
</g>
<g id="kolokol">
</g>
<g id="kolokol_x5F_minus">
</g>
<g id="img">
</g>
<g id="video">
</g>
<g id="file">
</g>
<g id="link">
</g>
<g id="close">
</g>
<g id="back">
</g>
<g id="lock">
</g>
<g id="moon">
</g>
<g id="ugol">
</g>
<g id="menu2">
</g>
<g id="horse">
</g>
<g id="phone">
</g>
<g id="email">
</g>
<g id="www">
</g>
<g id="store">
</g>
<g id="star">
	<g>
		<g>
			<path d="M22.7,9.5c-0.1-0.2-0.3-0.4-0.5-0.4l-6.7-1l-3-6.1c-0.1-0.2-0.3-0.4-0.6-0.4c-0.2,0-0.5,0.1-0.6,0.4l-3,6.1l-6.7,1
				c-0.2,0-0.4,0.2-0.5,0.4c-0.1,0.2,0,0.5,0.2,0.6l4.8,4.7l-1.1,6.7c0,0.2,0.1,0.5,0.3,0.6c0.1,0.1,0.2,0.1,0.4,0.1
				c0.1,0,0.2,0,0.3-0.1l6-3.1l6,3.1c0.2,0.1,0.5,0.1,0.7,0c0.2-0.1,0.3-0.4,0.3-0.6l-1.1-6.7l4.8-4.7C22.8,10,22.8,9.8,22.7,9.5z"
				/>
		</g>
	</g>
</g>
<g id="Слой_37">
</g>
</svg>
