<?xml version="1.0" encoding="utf-8"?>
<!-- Generator: Adobe Illustrator 23.0.1, SVG Export Plug-In . SVG Version: 6.00 Build 0)  -->
<svg version="1.1" xmlns="http://www.w3.org/2000/svg" xmlns:xlink="http://www.w3.org/1999/xlink" x="0px" y="0px"
	 viewBox="0 0 24 24" style="enable-background:new 0 0 24 24;" xml:space="preserve">
<style type="text/css">
	.st0{stroke:#000000;stroke-width:0.5;stroke-miterlimit:10;}
</style>
<g id="_menu">
</g>
<g id="dop">
</g>
<g id="zoom">
</g>
<g id="ramka">
</g>
<g id="my">
</g>
<g id="group">
</g>
<g id="channal">
</g>
<g id="contacts">
</g>
<g id="settings">
</g>
<g id="clip">
</g>
<g id="Слой_11">
</g>
<g id="send">
</g>
<g id="column_x5F_2">
</g>
<g id="column_x5F_3">
</g>
<g id="glass">
</g>
<g id="glass_x5F_close">
</g>
<g id="basket">
</g>
<g id="info">
</g>
<g id="kolokol">
</g>
<g id="kolokol_x5F_minus">
</g>
<g id="img">
	<g>
		<g>
			<path d="M18.1,4C19.1,4,20,4.9,20,5.9v12.2c0,1.1-0.9,1.9-1.9,1.9H5.9C4.9,20,4,19.1,4,18.1V5.9C4,4.9,4.9,4,5.9,4H18.1 M18.1,2
				H5.9C3.7,2,2,3.7,2,5.9v12.2C2,20.3,3.7,22,5.9,22h12.2c2.2,0,3.9-1.7,3.9-3.9V5.9C22,3.7,20.3,2,18.1,2L18.1,2z"/>
		</g>
		<path d="M21.5,13.7l-4.8-3.9c-1.1-0.9-2.7-0.7-3.6,0.4l-2.2,2.7c-0.2,0.2-0.4,0.3-0.7,0.3c-0.2,0-0.5-0.1-0.7-0.3l-0.7-0.7
			c-1-1-2.6-1-3.6,0l-2.7,2.7l0.3,0.3l-0.3,0.3l1.1,1.1l2.7-2.7c0.4-0.4,0.9-0.4,1.3,0l0.7,0.7c0.5,0.5,1.2,0.8,1.9,0.7
			c0.7,0,1.4-0.4,1.8-0.9l2.2-2.7c0.3-0.4,0.9-0.5,1.3-0.1l4.8,3.9l1-1.3L21.2,14L21.5,13.7z"/>
	</g>
</g>
<g id="video">
</g>
<g id="file">
</g>
<g id="link">
</g>
<g id="close">
</g>
<g id="back">
</g>
<g id="lock">
</g>
<g id="moon">
</g>
<g id="ugol">
</g>
<g id="menu2">
</g>
<g id="horse">
</g>
<g id="phone">
</g>
<g id="email">
</g>
<g id="www">
</g>
<g id="store">
</g>
<g id="star">
</g>
<g id="Слой_37">
</g>
</svg>
