<?xml version="1.0" encoding="utf-8"?>
<!-- Generator: Adobe Illustrator 23.0.1, SVG Export Plug-In . SVG Version: 6.00 Build 0)  -->
<svg version="1.1" xmlns="http://www.w3.org/2000/svg" xmlns:xlink="http://www.w3.org/1999/xlink" x="0px" y="0px"
	 viewBox="0 0 24 24" style="enable-background:new 0 0 24 24;" xml:space="preserve">
<style type="text/css">
	.st0{stroke:#000000;stroke-width:0.5;stroke-miterlimit:10;}
</style>
<g id="_menu">
</g>
<g id="dop">
</g>
<g id="zoom">
</g>
<g id="ramka">
</g>
<g id="my">
</g>
<g id="group">
</g>
<g id="channal">
</g>
<g id="contacts">
</g>
<g id="settings">
</g>
<g id="clip">
</g>
<g id="Слой_11">
</g>
<g id="send">
</g>
<g id="column_x5F_2">
</g>
<g id="column_x5F_3">
</g>
<g id="glass">
</g>
<g id="glass_x5F_close">
</g>
<g id="basket">
</g>
<g id="info">
</g>
<g id="kolokol">
</g>
<g id="kolokol_x5F_minus">
</g>
<g id="img">
</g>
<g id="video">
</g>
<g id="file">
	<path d="M13.6,5.2c0.3,0,0.5,0.1,0.7,0.3l4.2,4.1c0.2,0.2,0.3,0.5,0.3,0.8v7.5c0,0.6-0.5,1.1-1.1,1.1H6c-0.6,0-1.1-0.5-1.1-1.1V6.2
		c0-0.6,0.5-1.1,1.1-1.1H13.6 M13.6,3.2H6c-1.7,0-3.1,1.4-3.1,3.1v11.6c0,1.7,1.4,3.1,3.1,3.1h11.8c1.7,0,3.1-1.4,3.1-3.1v-7.5
		c0-0.8-0.3-1.6-0.9-2.2L15.7,4C15.1,3.5,14.4,3.2,13.6,3.2L13.6,3.2z"/>
	<g>
		<path d="M19.7,12.9h-7.9c-0.5,0-0.9-0.4-0.9-0.9V4h1.8v7.1h7V12.9z"/>
	</g>
</g>
<g id="link">
</g>
<g id="close">
</g>
<g id="back">
</g>
<g id="lock">
</g>
<g id="moon">
</g>
<g id="ugol">
</g>
<g id="menu2">
</g>
<g id="horse">
</g>
<g id="phone">
</g>
<g id="email">
</g>
<g id="www">
</g>
<g id="store">
</g>
<g id="star">
</g>
<g id="Слой_37">
</g>
</svg>
