<?xml version="1.0" encoding="utf-8"?><svg width="224" height="162" viewBox="0 0 224 162" xmlns="http://www.w3.org/2000/svg" xmlns:xlink="http://www.w3.org/1999/xlink"><svg viewBox="-2 -2 29.3 27.2" width="29.3" height="27.2" id="icon_crack" x="53.8" y="107.2" xmlns="http://www.w3.org/2000/svg"><style>.ast11{fill:#303c42}.ast13{fill:#fff}.ast14{fill:#e53935}.ast16{opacity:.2;fill:#fff;enable-background:new}</style><g id="acrack"><path class="ast11" d="M22.1 12.1c0-1.2-.4-2.7-.9-3.8 2.8-.7 4-5.7 4-7.8.1-.3-.2-.5-.5-.5-3 0-7 1.9-7.7 4-1.1-.4-2.7-.9-4.4-.9s-3.2.5-4.3.9C7.5 1.9 3.5 0 .5 0 .2 0 0 .2 0 .5c0 2.1 1.2 7.1 4 7.8-.4 1.1-.9 2.6-.9 3.8 0 .9-.2 1.3-.4 1.7-.3.5-.6 1.1-.6 2.5 0 2.8 3.7 6.8 10.5 6.8s10.5-4 10.5-6.8c0-1.5-.3-2-.6-2.5-.2-.4-.4-.8-.4-1.7z"/><path d="M19.8 6.4c.3-.1.6 0 .7.2 0 0 .2.3.3.7.5-.1.9-.4 1.3-.8C22 5.4 21.4 3 20.7 2c-1.4.7-2.5 1.6-2.8 2.4.4.2.7.4.7.4.3.2.4.5.3.7-.1.3-.5.3-.7.2 0 0-2.6-1.5-5.5-1.5S7.2 5.7 7.2 5.7c-.2.1-.3.1-.4.1-.2 0-.4-.1-.5-.3-.1-.2 0-.5.3-.7 0 0 .3-.2.7-.4-.2-.7-1.4-1.7-2.8-2.3-.7.9-1.3 3.4-1.4 4.5.4.4.9.7 1.3.7.2-.4.3-.7.3-.7.1-.3.5-.4.7-.2.3.1.4.5.2.7 0 0-1.5 3-1.5 5 0 1.2-.3 1.7-.6 2.2-.1.3-.3.5-.4.9.4-.3.9-.5 1.5-.5 1.5 0 2.6 1.2 2.6 2.6 0 1.2-.8 2.2-1.9 2.5 1.6 1.2 4 2.2 7.2 2.2s5.6-1 7.2-2.2c-1.1-.3-1.9-1.3-1.9-2.5 0-1.5 1.2-2.6 2.6-2.6.5 0 1 .2 1.5.5-.1-.4-.2-.6-.4-.9-.3-.5-.6-1-.6-2.2 0-2.1-1.5-5-1.5-5 0-.3.1-.6.4-.7z" fill="#ffee58"/><circle class="ast11" cx="7.9" cy="12.1" r="1.6"/><circle class="ast13" cx="8.4" cy="11.6" r=".5"/><circle class="ast11" cx="17.4" cy="12.1" r="1.6"/><circle class="ast13" cx="16.9" cy="11.6" r=".5"/><path class="ast11" d="M15.4 15.5c0 .1-.3.2-.8.3-.5.1-1.2 0-1.6-.4-.1-.1-.2-.1-.3-.1.1 0 .3-.1.4-.2l.5-.5c.2-.2.2-.4.1-.6-.1-.2-.3-.3-.5-.3h-1.1c-.2 0-.4.1-.5.3-.1.2 0 .4.1.6l.5.5c.1.1.2.2.4.2-.1 0-.2 0-.3.1-.4.4-1.1.4-1.6.4-.5-.1-.8-.2-.8-.3-.2-.2-.5-.3-.7-.1-.2.2-.3.5-.1.7.4.5 1.1.7 1.5.7 0 .8 0 1.9.7 2.6.4.4.8.5 1.4.5.5 0 1-.2 1.3-.6.7-.7.8-1.9.8-2.6.4 0 1.1-.2 1.5-.7.2-.2.1-.6-.1-.7-.3-.1-.7 0-.8.2z"/><path class="ast14" d="M12 18.7c-.4-.4-.4-1.3-.4-1.9.4-.1.8-.2 1.1-.4.3.2.7.3 1.1.3 0 .6-.1 1.5-.5 1.9-.5.5-1 .4-1.3.1z"/><path d="M12.6 17.4c.3.2.6.3 1 .3.1-.3.1-.6.1-.9-.4-.1-.8-.2-1.1-.3-.3.2-.7.3-1.1.4v.9c.5-.1.8-.3 1.1-.4z" opacity=".1"/><path class="ast14" d="M20.9 18.9c-1.1.3-2-.5-2-1.5 0-.9.7-1.6 1.6-1.6.7 0 1.3.5 1.5 1.1-.1.6-.5 1.3-1.1 2z"/><path class="ast16" d="M19.2 17.7c0-.9.7-1.6 1.6-1.6.4 0 .8.2 1 .4-.3-.5-.8-.8-1.3-.8-.9 0-1.6.7-1.6 1.6 0 .5.2.9.5 1.2-.1-.2-.2-.5-.2-.8z"/><path class="ast14" d="M4.3 18.9c-.6-.7-.9-1.4-1.1-2 .2-.7.8-1.1 1.5-1.1.9 0 1.6.7 1.6 1.6 0 1-.9 1.8-2 1.5z"/><path class="ast16" d="M4.8 16.3c.7 0 1.3.5 1.5 1.1 0-.9-.7-1.6-1.6-1.6-.7 0-1.3.5-1.5 1.1 0 .1.1.3.1.4.3-.6.9-1 1.5-1z"/><linearGradient id="aSVGID_1_" gradientUnits="userSpaceOnUse" x1="-578.159" y1="-88.088" x2="-577.817" y2="-87.745" gradientTransform="translate(12344.735 1893.645) scale(21.3333)"><stop offset="0" stop-opacity=".1"/><stop offset="1" stop-opacity="0"/></linearGradient><path d="M9 16.1l1.5 1.5v-.8c-.3 0-1.1-.2-1.5-.7zm8.9 1.3v-.2l-1.7-1.7c.1.2.1.4 0 .6-.4.5-1.1.7-1.5.7 0 .7-.1 1.9-.8 2.6-.3.4-.8.6-1.3.6-.6 0-1-.2-1.4-.5l2.6 2.6c2.6-.2 4.6-1.1 6-2.2-1.1-.3-1.9-1.3-1.9-2.5z" fill="url(#aSVGID_1_)"/><linearGradient id="aSVGID_2_" gradientUnits="userSpaceOnUse" x1="-578.718" y1="-88.623" x2="-577.525" y2="-88.067" gradientTransform="translate(12344.735 1893.645) scale(21.3333)"><stop offset="0" stop-color="#fff" stop-opacity=".2"/><stop offset="1" stop-color="#fff" stop-opacity="0"/></linearGradient><path d="M22.1 12.1c0-1.2-.4-2.7-.9-3.8 2.8-.7 4-5.7 4-7.8.1-.3-.2-.5-.5-.5-3 0-7 1.9-7.7 4-1.1-.4-2.7-.9-4.4-.9s-3.2.5-4.3.9C7.5 1.9 3.5 0 .5 0 .2 0 0 .2 0 .5c0 2.1 1.2 7.1 4 7.8-.4 1.1-.9 2.6-.9 3.8 0 .9-.2 1.3-.4 1.7-.3.5-.6 1.1-.6 2.5 0 2.8 3.7 6.8 10.5 6.8s10.5-4 10.5-6.8c0-1.5-.3-2-.6-2.5-.2-.4-.4-.8-.4-1.7z" fill="url(#aSVGID_2_)"/></g></svg><svg viewBox="-2 -2 133.5 107.2" width="133.5" height="107.2" id="icon_fire_house" xmlns="http://www.w3.org/2000/svg"><style>.bst3{fill:#e3a15b}.bst4{fill:#c78640}</style><g id="bСлой_1"><g opacity=".3"><path d="M16.8 5.4c0-1.3-1.1-2.4-2.4-2.4S12 4.1 12 5.4v12h4.8v-12zm100.7 0c0-1.3-1.1-2.4-2.4-2.4s-2.4 1.1-2.4 2.4v12h4.8v-12zm-7.2 68.3v6.1c0 2.6-2.1 4.8-4.8 4.8H24c-2.6 0-4.8-2.1-4.8-4.8v-6.1c-1.4.8-3 1.3-4.8 1.3s-3.4-.5-4.8-1.3v3.7c0 9.3 7.5 16.8 16.8 16.8h7.2c0 5.3 23.5 9.6 28.8 9.6H72c5.3 0 24-4.3 24-9.6h7.2c9.3 0 16.8-7.5 16.8-16.8v-3.7c-1.4.8-3 1.3-4.8 1.3s-3.5-.5-4.9-1.3zM28.8 46.2H0v9.6h28.8v-9.6z"/><path d="M19.2 73.7c2.9-1.7 4.8-4.8 4.8-8.3v-1.8c0-3.3 1.9-6.3 4.8-7.8H0c2.9 1.5 4.8 4.5 4.8 7.8v1.8c0 3.5 1.9 6.6 4.8 8.3 1.4.8 3 1.3 4.8 1.3s3.3-.5 4.8-1.3zm103.1-27.5h-21.6v9.6h28.8v-9.6h-7.2zM21.6 17.4H7.2v28.8h14.4V17.4zm100.7 0h-14.4v28.8h14.4V17.4z"/><path d="M105.5 63.5v1.8c0 3.5 1.9 6.6 4.8 8.3 1.4.8 3 1.3 4.8 1.3s3.4-.5 4.8-1.3c2.9-1.7 4.8-4.8 4.8-8.3v-1.8c0-3.3 1.9-6.3 4.8-7.8h-28.8c3 1.5 4.8 4.6 4.8 7.8z"/></g><path d="M14.4 17.4c-1.3 0-2.4-1.1-2.4-2.4V3C12 1.7 13.1.6 14.4.6s2.4 1.1 2.4 2.4v12c0 1.3-1.1 2.4-2.4 2.4zm100.7 0c-1.3 0-2.4-1.1-2.4-2.4V3c0-1.3 1.1-2.4 2.4-2.4s2.4 1.1 2.4 2.4v12c0 1.3-1 2.4-2.4 2.4z" fill="#e87000"/><path d="M110.3 65.4v12c0 2.6-2.1 4.8-4.8 4.8H24c-2.6 0-4.8-2.1-4.8-4.8v-12H9.6V75c0 9.3 7.5 16.8 16.8 16.8h7.2c0 5.3 23.5 9.6 28.8 9.6H72c5.3 0 24-4.3 24-9.6h7.2c9.3 0 16.8-7.5 16.8-16.8v-9.6h-9.7z" fill="#b1712c"/><path class="bst3" d="M0 43.8h28.8v9.6H0v-9.6z"/><path class="bst4" d="M28.8 53.4c-2.9 1.5-4.8 4.5-4.8 7.8V63c0 5.3-4.3 9.6-9.6 9.6S4.8 68.3 4.8 63v-1.8c0-3.3-1.9-6.3-4.8-7.8h28.8z"/><path class="bst3" d="M129.5 53.4h-28.8v-9.6h28.8v9.6z"/><path d="M7.2 15h14.4v28.8H7.2V15zm100.7 0h14.4v28.8h-14.4V15z" fill="#ffc431"/><path class="bst4" d="M129.5 53.4c-2.9 1.5-4.8 4.5-4.8 7.8V63c0 5.3-4.3 9.6-9.6 9.6s-9.6-4.3-9.6-9.6v-1.8c0-3.3-1.9-6.3-4.8-7.8h28.8z"/></g></svg><svg viewBox="-2 -2 89.6 98.1" width="89.6" height="98.1" id="icon_robot" x="133.5" xmlns="http://www.w3.org/2000/svg"><style>.cst20{fill:#59c7d3}.cst21{fill:#dae5ea}.cst22{fill:#c9d1d3}.cst23{fill:#465058}.cst27{fill:#e3f6ff}</style><g id="crobot"><path class="cst20" d="M64.2 77.4c-.2 0-.4 0-.6-.1-.7-.3-1-1.1-.7-1.8l1.2-2.8c.4-1 1.5-1.6 2.6-1.3l3.7.8c.7.2 1.2.9 1 1.6-.2.7-.9 1.2-1.6 1l-3.3-.7-1.1 2.5c-.1.5-.6.8-1.2.8zm5.4 4.8c-.2 0-.3 0-.5-.1l-3-.7c-.7-.2-1.2-.9-1-1.6.2-.7.9-1.2 1.6-1l2.6.6 1.4-3.2c.3-.7 1.1-1 1.8-.7.7.3 1 1.1.7 1.8l-1.6 3.5c-.3.9-1.1 1.4-2 1.4zm-48.2-4.8c-.5 0-1-.3-1.3-.8L19 74.1l-3.3.7c-.7.2-1.5-.3-1.6-1-.2-.7.3-1.5 1-1.6l3.7-.8c1.1-.2 2.2.3 2.6 1.3l1.2 2.8c.3.7 0 1.5-.7 1.8-.1 0-.3.1-.5.1zm-5.3 4.8c-.9 0-1.7-.5-2.1-1.4l-1.6-3.5c-.3-.7 0-1.5.7-1.8.7-.3 1.5 0 1.8.7l1.4 3.2 2.6-.6c.7-.2 1.5.3 1.6 1 .2.7-.3 1.5-1 1.6l-3 .7c-.1.1-.3.1-.4.1z"/><path class="cst21" d="M70.4 75.4c-.7-1.4-.2-3.1 1.2-3.8l4.9-2.5 2.5 5-4.9 2.5c-1.3.8-3 .2-3.7-1.2z"/><path class="cst22" d="M77.6 74.8c2.1.2 3.9-1.3 4.1-3.4l1.7-17.1-7.5-.7-1.7 17.1c-.2 2.1 1.3 3.9 3.4 4.1z"/><path class="cst21" d="M82.1 58.6c1.9-1.4 2.3-4.2.9-6.1L72 37.8 65 43l10.9 14.7c1.5 2 4.2 2.4 6.2.9z"/><path class="cst23" d="M75.8 36.4l-24.7.1v14.9l20.3-4.1c4.9-1.6 6.9-6.5 4.4-10.9z"/><path class="cst21" d="M15.2 75.4c.7-1.4.1-3.1-1.2-3.8l-5-2.5-2.5 5 4.9 2.5c1.4.8 3.1.2 3.8-1.2z"/><path class="cst22" d="M8 74.8c-2 .2-3.8-1.3-4.1-3.3L2.3 54.3l7.5-.7 1.7 17.1c.1 2.1-1.4 3.9-3.5 4.1z"/><path class="cst21" d="M3.6 58.6c-1.9-1.4-2.3-4.2-.9-6.1l10.9-14.7 7 5.2L9.7 57.7c-1.4 2-4.2 2.4-6.1.9z"/><path class="cst23" d="M9.9 36.4l24.7.1v14.9l-20.3-4.1c-5-1.6-6.9-6.5-4.4-10.9zm32.9 55.9c-4.7 0-8.5-3.8-8.5-8.5V67.7h16.9v16.2c.1 4.6-3.7 8.4-8.4 8.4z"/><path d="M40.7 67.7V91c0 .4 0 .7-.1 1.1.7.2 1.4.3 2.1.3 4.7 0 8.5-3.8 8.5-8.5V67.7H40.7z" fill="#323e44"/><path d="M38.4 25h8.9v17.4h-8.9V25z" fill="#64717a"/><path class="cst21" d="M55.1 30.3H30.5c-4.3 0-7.7-3.5-7.7-7.7V9.5c0-4.3 3.5-7.7 7.7-7.7h24.6c4.3 0 7.7 3.5 7.7 7.7v13.1c0 4.3-3.4 7.7-7.7 7.7z"/><path class="cst22" d="M55.1 1.8h-2.8v28.5h2.8c4.3 0 7.7-3.5 7.7-7.7V9.5c0-4.3-3.4-7.7-7.7-7.7z"/><path class="cst20" d="M55.2 7.5H30.4c-1.5 0-2.7 1.2-2.7 2.7v19.5c.9.4 1.9.6 2.9.6h24.6c1 0 2-.2 2.9-.6V10.2c-.1-1.5-1.3-2.7-2.9-2.7z"/><path d="M55.2 7.5h-7.8v22.8h7.7c1 0 2-.2 2.9-.6V10.2c0-1.5-1.2-2.7-2.8-2.7z" fill="#44b6bc"/><path class="cst21" d="M56.2 75.9H29.5c-1.9 0-3.4-1.4-3.7-3.2l-4.3-31.9c-.3-2.2 1.4-4.2 3.7-4.2h35.4c2.2 0 4 2 3.7 4.2L60 72.7c-.4 1.8-2 3.2-3.8 3.2z"/><path class="cst22" d="M60.5 36.5H54l-5.3 39.4h7.5c1.9 0 3.4-1.4 3.7-3.2l4.3-31.9c.3-2.3-1.4-4.3-3.7-4.3z"/><path class="cst27" d="M51.9 58.3H33.7c-1.1 0-2-.9-2-2v-9.9c0-1.1.9-2 2-2h18.2c1.1 0 2 .9 2 2v9.9c0 1.1-.9 2-2 2z"/><path d="M51.9 44.5h-8.6v13.8h8.6c1.1 0 2-.9 2-2v-9.9c0-1-.9-1.9-2-1.9z" fill="#cee8f2"/><path class="cst20" d="M48.4 47.6H37.3c-.8 0-1.4.6-1.4 1.4 0 .8.6 1.4 1.4 1.4h11.1c.8 0 1.4-.6 1.4-1.4-.1-.8-.7-1.4-1.4-1.4zm0 4.9H37.3c-.8 0-1.4.6-1.4 1.4 0 .8.6 1.4 1.4 1.4h11.1c.8 0 1.4-.6 1.4-1.4-.1-.8-.7-1.4-1.4-1.4z"/><path class="cst27" d="M51.3 14.1h-8.4c-.8 0-1.4.6-1.4 1.4s.6 1.4 1.4 1.4h8.4c.8 0 1.4-.6 1.4-1.4s-.7-1.4-1.4-1.4zm-14.9 0h-2.1c-.8 0-1.4.6-1.4 1.4s.6 1.4 1.4 1.4h2.1c.8 0 1.4-.6 1.4-1.4 0-.8-.6-1.4-1.4-1.4z"/></g></svg><svg viewBox="-2 -2 17.6 19.7" width="17.6" height="19.7" id="icon_star" x="83.1" y="107.2" xmlns="http://www.w3.org/2000/svg"><style>.dst19{fill:#ffc850}</style><g id="dstar"><path class="dst19" d="M12.2 7.1c.2-.2.1-.5-.2-.5l-3.5-.4L7 3c0-.1-.2-.2-.3-.2l-.2.2-1.4 3.2-3.5.4c-.2 0-.3.3-.2.5l2.7 2.3-.8 3.5c-.1.2.2.4.4.3l3.1-1.8 3.1 1.8c.2.1.5-.1.4-.3l-.8-3.5 2.7-2.3z"/><path class="dst19" d="M4 4.9c.1.1.2 0 .2-.1-.3-.6-.8-1.7-1-2-.2-.1-.5-.2-.7 0s-.2.4-.1.6c.2.2 1.1 1 1.6 1.5zm5.6 0c.5-.5 1.4-1.3 1.5-1.6.1-.2.1-.5-.1-.6s-.5-.1-.6.1c-.2.3-.7 1.3-1 2 0 .1.1.2.2.1zm3.7 5.3c-.3-.1-1.5-.3-2.2-.3-.1 0-.2.1-.1.2.6.3 1.7.9 1.9 1 .2.1.5-.1.6-.3.1-.3 0-.5-.2-.6zM2.5 9.9c-.7.1-1.9.2-2.2.3-.2.1-.4.3-.3.6.1.2.3.4.6.3.3-.1 1.3-.7 1.9-1 .1-.1.1-.2 0-.2zm4.2 3.2c-.1.7-.3 1.9-.3 2.2 0 .2.2.4.4.4s.4-.2.4-.4c0-.3-.2-1.5-.3-2.2 0-.2-.2-.2-.2 0z"/></g></svg><svg viewBox="-2 -2 17.6 19.7" width="17.6" height="19.7" id="icon_star_none" x="100.69999999999999" y="107.2" xmlns="http://www.w3.org/2000/svg"><style/><path d="M12 6.6l-3.5-.4L7 3c0-.2-.2-.2-.4-.2l-.1.1-1.4 3.3-3.5.4c-.2 0-.3.3-.2.5l2.7 2.3-.8 3.5c-.1.2.2.4.4.3l3.1-1.8 3.1 1.8c.2.1.5-.1.4-.3l-.8-3.5 2.7-2.3c.1-.2 0-.5-.2-.5z" fill="#ffc850" id="estar_x5F_none"/></svg><svg viewBox="-2 -2 53.8 54.7" width="53.8" height="54.7" id="icon_work" y="107.2" xmlns="http://www.w3.org/2000/svg"><style>.fst7{fill:#575b6d}.fst8{fill:#eab54e}</style><g id="fwork"><circle cx="24.9" cy="25.3" r="22.6" fill="#69b0ee" id="fCircle_Grid"/><g id="ficon"><path class="fst7" d="M20.1 17.7h-1.5v-2.2c0-1 .9-1.9 1.9-1.9h8.8c1 0 1.9.9 1.9 1.9v2h-1.5v-2c0-.2-.2-.4-.4-.4h-8.8c-.2 0-.4.2-.4.4v2.2z"/><path class="fst8" d="M17.8 16.9h3.1c.2 0 .4.2.4.4v.9h-3.8v-.9c-.1-.2.1-.4.3-.4zm11 0H32c.2 0 .4.2.4.4v.9h-3.8v-.9c-.1-.2 0-.4.2-.4z"/><path class="fst7" d="M38.6 19.1v17.2c0 .4-.3.8-.8.8H11.9c-.4 0-.8-.3-.8-.8V19.1c0-.6.5-1.1 1.1-1.1h25.2c.7-.1 1.2.5 1.2 1.1z"/><path class="fst7" d="M38.8 24.6l-13.9 3.6L11 24.6c-.3-.1-.6-.4-.6-.7v-5.2c0-.4.3-.8.8-.8h27.4c.4 0 .8.3.8.8v5.2c-.1.3-.3.6-.6.7z"/><path d="M38.6 24.7v.9l-13.7 3.6-13.7-3.6v-.9l13.7 3.6 13.7-3.6z" fill="#414451"/><path d="M23.4 26h3c.2 0 .4.2.4.4v4.3c0 .2-.2.4-.4.4h-3c-.2 0-.4-.2-.4-.4v-4.3c0-.3.2-.4.4-.4z" fill="#f6c863"/><path class="fst8" d="M26 26.7v3.5h-2.2v-3.5H26z"/></g></g></svg></svg>