<?xml version="1.0" encoding="utf-8"?><svg xmlns="http://www.w3.org/2000/svg" xmlns:xlink="http://www.w3.org/1999/xlink"><symbol viewBox="0 0 24 24" id="icon_back" xmlns="http://www.w3.org/2000/svg"><style/><g id="aaback"><path d="M18.8 10.9H8.2l4.7-4.5c.2-.2.2-.5 0-.7l-.6-.6c-.2-.2-.5-.2-.7 0L5 11.7c-.2.2-.2.5 0 .7l6.6 6.6c.2.2.5.2.7 0l.5-.5c.2-.2.2-.5 0-.9L8.2 13h10.6c.3.1.5-.2.5-.5v-1.1c0-.3-.2-.5-.5-.5z" id="aaarrow-back"/></g></symbol><symbol viewBox="0 0 24 24" id="icon_channel" xmlns="http://www.w3.org/2000/svg"><style/><path d="M23 10.3c0-2-1.5-3.7-3.5-4V3.9c0-1.1-.7-1.8-1.6-1.8-.3 0-.6.1-.9.2L8.4 6.2h-5C2.1 6.2 1 7.2 1 8.6V12c0 .8.4 1.6 1.1 2l1 5.1c.2 1.2 1.4 2.2 2.7 2.2 1.3 0 2.4-1.1 2.4-2.4v-4.5h.3l8.7 3.9c.3.1.6.2.9.2.5 0 .9-.2 1.2-.5.3-.3.4-.8.4-1.3v-2.3c1.8-.4 3.3-2.1 3.3-4.1zM2.3 8.6c0-.6.5-1.1 1.1-1.1h4.5v5.6H3.4c-.6 0-1.1-.5-1.1-1.1V8.6zm4.6 10.3c0 .6-.5 1.1-1.1 1.1-.6 0-1.3-.5-1.4-1.2l-.9-4.4h3.4v4.5zm11.4-2.2c0 .2 0 .3-.1.4 0 0-.1.1-.2.1s-.2 0-.3-.1l-8.4-3.8V7.2l8.4-3.8c.1-.1.2-.1.3-.1.3 0 .3.3.3.5v12.9zm1.2-3.7V7.5c1.2.3 2.2 1.4 2.2 2.7 0 1.4-.9 2.5-2.2 2.8z" id="absettings"/></symbol><symbol viewBox="0 0 24 24" id="icon_clip" xmlns="http://www.w3.org/2000/svg"><style/><g id="acclip"><path d="M6.7 22.6c-1.2 0-2.3-.5-3.1-1.3-1.7-1.7-1.7-4.5 0-6.2l9.9-9.9c1.2-1.2 3.1-1.2 4.2 0 1.2 1.2 1.2 3.1 0 4.2l-7.3 7.3c-.3.3-.8.3-1 0-.3-.3-.3-.8 0-1l7.3-7.3c.6-.6.6-1.5 0-2.1-.3-.3-.7-.4-1.1-.4-.4 0-.8.2-1.1.4l-9.9 9.9c-1.1 1.1-1.1 3 0 4.1.6.6 1.3.9 2.1.9s1.5-.3 2.1-.9l10.1-10.1c.8-.8 1.3-1.9 1.3-3.1s-.5-2.2-1.3-3.1c-1.7-1.7-4.4-1.7-6.1 0l-7.5 7.5c-.3.3-.8.3-1 0s-.3-.8 0-1L11.8 3C14.1.7 17.7.7 20 3c1.1 1.1 1.7 2.6 1.7 4.1s-.6 3-1.7 4.1L9.9 21.4c-.9.8-2 1.2-3.2 1.2z"/><path d="M6.7 22.9c-1.2 0-2.4-.5-3.3-1.4-.9-.9-1.4-2-1.4-3.3s.5-2.4 1.4-3.3L13.3 5c1.3-1.3 3.3-1.3 4.6 0 1.3 1.3 1.3 3.3 0 4.6l-7.3 7.3c-.4.4-1 .4-1.4 0-.4-.4-.4-1 0-1.4l7.3-7.3c.5-.4.5-1.2 0-1.7s-1.3-.5-1.8 0l-9.9 9.9c-1 1-1 2.7 0 3.8.5.5 1.2.8 1.9.8s1.4-.3 1.9-.8l10.1-10.1c.8-.8 1.2-1.8 1.2-2.9 0-1.1-.4-2.1-1.2-2.9-.8-.8-1.8-1.2-2.9-1.2s-2.1.4-2.9 1.2l-7.5 7.5c-.4.4-1 .4-1.4 0-.4-.4-.4-1 0-1.4l7.5-7.5C13.9.5 17.7.5 20 2.9c1.1 1.1 1.8 2.7 1.8 4.3s-.6 3.1-1.8 4.3l-10 10c-.9.9-2 1.4-3.3 1.4zm8.9-18.3c-.7 0-1.4.3-1.9.8l-9.9 9.9c-1.6 1.6-1.6 4.3 0 5.9.8.8 1.8 1.2 2.9 1.2 1.1 0 2.2-.4 2.9-1.2l10.1-10.1c1.1-1.1 1.6-2.4 1.6-3.9s-.6-2.9-1.6-3.9c-2.2-2.2-5.7-2.2-7.9 0l-7.5 7.5c-.2.2-.2.5 0 .7.2.2.5.2.7 0L12.5 4c.9-.9 2-1.3 3.2-1.3s2.4.5 3.2 1.3c.9.9 1.3 2 1.3 3.2 0 1.2-.5 2.4-1.3 3.2L9 20.5c-.6.6-1.4.9-2.2.9-.8 0-1.6-.3-2.2-.9-1.2-1.2-1.2-3.2 0-4.5l9.9-9.9c.7-.7 1.8-.7 2.5 0s.7 1.8 0 2.5l-7.3 7.3c-.2.2-.2.5 0 .7s.5.2.7 0l7.3-7.3c1.1-1.1 1.1-2.8 0-3.9-.7-.5-1.4-.8-2.1-.8z"/></g></symbol><symbol viewBox="0 0 24 24" id="icon_close" xmlns="http://www.w3.org/2000/svg"><style/><path d="M13.2 12l5.5-5.5c.3-.3.3-.9 0-1.2-.3-.3-.9-.3-1.2 0L12 10.8 6.5 5.3c-.3-.3-.9-.3-1.2 0-.3.3-.3.9 0 1.2l5.5 5.5-5.5 5.5c-.3.3-.3.9 0 1.2.1.2.4.3.6.3.2 0 .4-.1.6-.3l5.5-5.5 5.5 5.5c.2.2.4.3.6.3s.4-.1.6-.3c.3-.3.3-.9 0-1.2L13.2 12z" id="adclose"/></symbol><symbol viewBox="0 0 24 24" id="icon_contacts" xmlns="http://www.w3.org/2000/svg"><style/><path d="M12 4.5c1.7 0 3 1.3 3 3s-1.3 3-3 3-3-1.3-3-3 1.3-3 3-3M12 3C9.5 3 7.5 5 7.5 7.5S9.5 12 12 12s4.5-2 4.5-4.5S14.5 3 12 3zm7 16.8c-.2 0-.5-.1-.6-.3l-2-2.7c-.5-.6-1.2-1-2-1H9.6c-.8 0-1.5.4-2 1l-2 2.7c-.2.3-.7.4-1 .1-.3-.2-.4-.7-.1-1l2-2.7c.7-1 1.9-1.6 3.2-1.6h4.8c1.2 0 2.4.6 3.2 1.6l2 2.7c.2.3.2.8-.1 1-.3.1-.4.2-.6.2z" id="aecontacts"/></symbol><symbol viewBox="0 0 24 24" id="icon_dop" xmlns="http://www.w3.org/2000/svg"><style/><g id="afdop"><circle cx="12" cy="6" r="2"/><circle cx="12" cy="12" r="2"/><circle cx="12" cy="18" r="2"/></g></symbol><symbol viewBox="0 0 24 24" id="icon_email" xmlns="http://www.w3.org/2000/svg"><style/><g id="agemail"><path d="M19.9 2.3H4.1c-1.2 0-2.2 1-2.2 2.2v9.7c0 1.2 1 2.2 2.2 2.2h1.8c.2 0 .4-.2.4-.4s-.2-.4-.4-.4H4.1c-.7 0-1.3-.6-1.3-1.3V4.5c0-.7.6-1.3 1.3-1.3H20c.7 0 1.3.6 1.3 1.3v9.7c0 .7-.6 1.3-1.3 1.3h-1.8c-.2 0-.4.2-.4.4s.2.4.4.4H20c1.2 0 2.2-1 2.2-2.2V4.5c-.1-1.2-1.1-2.2-2.3-2.2z"/><path d="M20.3 4.3c-.1-.2-.4-.2-.6-.1l-6.8 4.9c-.5.4-1.2.4-1.7 0L4.3 4.2c-.2-.2-.4-.1-.6.1-.1.1-.1.4.1.6l6.8 4.9c.4.3.9.4 1.3.4s.9-.1 1.3-.4L20 4.9c.4-.2.4-.5.3-.6zM8.8 9.5c-.2-.2-.5-.2-.6 0l-4.4 4.4c-.2.2-.2.5 0 .6.1.1.2.1.3.1.1 0 .2 0 .3-.1l4.4-4.4c.2-.2.2-.4 0-.6zm11.4 4.4l-4.4-4.4c-.2-.2-.5-.2-.6 0-.2.2-.2.5 0 .6l4.4 4.4c.1.1.2.1.3.1.1 0 .2 0 .3-.1.2-.2.2-.4 0-.6zM12 12c-2.7 0-4.8 2.2-4.8 4.8s2.2 4.8 4.8 4.8c1.3 0 2.5-.5 3.4-1.4.2-.2.2-.4 0-.6-.2-.2-.4-.2-.6 0-.8.8-1.8 1.2-2.8 1.2-2.2 0-4-1.8-4-4s1.8-4 4-4 4 1.8 4 4c0 .2.2.4.4.4s.4-.2.4-.4c0-2.6-2.1-4.8-4.8-4.8z"/><path d="M12 14.6c-1.2 0-2.2 1-2.2 2.2s1 2.2 2.2 2.2 2.2-1 2.2-2.2c0-1.2-1-2.2-2.2-2.2zm0 3.6c-.7 0-1.3-.6-1.3-1.3 0-.7.6-1.3 1.3-1.3.7 0 1.3.6 1.3 1.3 0 .7-.6 1.3-1.3 1.3z"/><path d="M16.4 16.4c-.2 0-.4.2-.4.4 0 1-.2 1.3-.9 1.3-.6 0-.9-.4-.9-1.3 0-.2-.2-.4-.4-.4s-.4.2-.4.4c0 1.4.7 2.2 1.8 2.2 1.8 0 1.8-1.7 1.8-2.2-.2-.2-.4-.4-.6-.4z"/></g></symbol><symbol viewBox="0 0 24 24" id="icon_file" xmlns="http://www.w3.org/2000/svg"><style/><g id="ahfile"><path d="M13.6 5.2c.3 0 .5.1.7.3l4.2 4.1c.2.2.3.5.3.8v7.5c0 .6-.5 1.1-1.1 1.1H6c-.6 0-1.1-.5-1.1-1.1V6.2c0-.6.5-1.1 1.1-1.1h7.6m0-1.9H6c-1.7 0-3.1 1.4-3.1 3.1v11.6C2.9 19.6 4.3 21 6 21h11.8c1.7 0 3.1-1.4 3.1-3.1v-7.5c0-.8-.3-1.6-.9-2.2L15.7 4c-.6-.5-1.3-.8-2.1-.8z"/><path d="M19.7 12.9h-7.9c-.5 0-.9-.4-.9-.9V4h1.8v7.1h7v1.8z"/></g></symbol><symbol viewBox="0 0 24 24" id="icon_group" xmlns="http://www.w3.org/2000/svg"><style/><path d="M8 4.5c1.7 0 3 1.3 3 3s-1.3 3-3 3-3-1.3-3-3 1.3-3 3-3M8 3C5.5 3 3.5 5 3.5 7.5S5.5 12 8 12s4.5-2 4.5-4.5S10.5 3 8 3zm10 2.5c1.4 0 2.5 1.1 2.5 2.5s-1.1 2.5-2.5 2.5-2.5-1.1-2.5-2.5 1.1-2.5 2.5-2.5M18 4c-2.2 0-4 1.8-4 4s1.8 4 4 4 4-1.8 4-4-1.8-4-4-4zm-3 15.8c-.2 0-.5-.1-.6-.3l-2-2.7c-.5-.6-1.2-1-2-1H5.6c-.8 0-1.5.4-2 1l-2 2.7c-.2.3-.7.4-1 .1-.3-.2-.4-.7-.1-1l2-2.7c.7-1 1.9-1.6 3.2-1.6h4.8c1.2 0 2.4.6 3.2 1.6l2 2.7c.2.3.2.8-.1 1-.3.1-.4.2-.6.2zm8 0c-.2 0-.5-.1-.6-.3l-2.2-3c-.3-.5-.9-.7-1.5-.7H16c-.4 0-.8-.3-.8-.8s.3-.8.8-.8h2.7c1 0 2 .5 2.7 1.3l2.2 3c.2.3.2.8-.1 1-.2.2-.3.3-.5.3z" id="aigroup"/></symbol><symbol viewBox="0 0 24 24" id="icon_horse" xmlns="http://www.w3.org/2000/svg"><style/><path d="M11.1 6.1h.2-.2zM1.2 20.7c-.1 0-.1 0 0 0-.1 0 0 0 0 0 .1 0 .1-.1.1-.1v.1s0 .1-.1.1v.1h.1v.2c.1-.1.3-.2.4-.3.3-.2.3-.3.4-.4v.1s0 .1-.1.1c.1-.1.2-.1.2-.2.2-.2.4-.4.6-.7.2-.4.5-.7.9-1 .2 0 .3 0 .3-.1.1 0 .1-.1.2-.1h.1c.2-.2.3-.4.5-.6.3-.4.4-.9.5-1.4v-.1c.1-.3.1-.6.2-.9v-.6c0-.4 0-.9.1-1.3v-.1s0 .1.1.1c.3.6.5 1.3 1 1.8.2.2.3.5.1.8-.2.3-.4.6-.6 1-.1.2-.2.5 0 .7.2.3.3.5.5.8.2.4.5.8.7 1.2.3.5.5 1.1.8 1.6.1.2.2.4.4.4.3.1.3.2.3.5s.1.5.3.6c.3.2.6.3.9.3h.6c.2 0 .2-.1.1-.2-.2-.5-.5-1-.8-1.5 0-.1-.1-.1-.2-.2-.2-.2-.5-.4-.6-.6-.2-.4-.5-.9-.7-1.3-.2-.5-.3-1-.1-1.6.1-.3.3-.5.5-.6H9c.1.1.1.2.2.2.3.2.6.4.9.5.3.2.6.3.8.6.2.2.4.4.6.7.1.1.2.3.3.3 0 0 .1.1.1.2s-.1.3-.1.4v.3c.1.3.2.6.4.9.1.1.2.3.4.4h.1l.3-.6c.1-.2.2-.5.1-.8-.1-.4-.2-.8-.2-1.2 0-.1 0-.2-.1-.2-.1-.1-.3-.3-.5-.4-.5-.4-1-.9-1.4-1.4-.2-.3-.3-.6-.2-.9.1-.1.1-.3.2-.4.2-.4.4-.8.4-1.2 0-.1 0-.2.1-.4 0-.1.1-.1.2-.1.2 0 .4 0 .6-.1.9-.2 1.9-.3 2.8-.7.5-.2 1-.4 1.4-.6.3-.1.6-.3 1-.5.2-.1.3-.1.4.1 0 0 .1.1.2.1.5.1 1 .1 1.5.2.6 0 1.1 0 1.7.1.1 0 .1 0 .2.1s.1.2.2.2v.2c-.2.3-.3.7-.5 1-.1.1-.2.2-.4.2s-.2 0-.3.2h-.1l-.2-.2-.1-.1h-.4s-.1 0-.1.1c-.2.3-.5.7-.5 1.1 0 .3 0 .3.3.3.6 0 1.2-.1 1.8-.3.3-.1.6-.3.6-.6 0-.2.2-.4.3-.5v.4c0 .1 0 .2.1.3.1.2 0 .3-.1.4-.2.2-.4.3-.6.5 0 0-.1.1-.1.2-.1.4 0 .7.2 1l.3.3c.1.1.2 0 .3-.1.1-.2.2-.3.3-.5.1-.2.3-.4.3-.7l.3-.9c.1-.1.1-.2.1-.4-.1-.5-.2-1-.4-1.5-.1-.3-.1-.6.1-.9 0-.1.1-.1.1-.2.1-.3 0-.6-.2-.8-.1-.1-.2-.2-.3-.2-.6-.5-1.2-1-1.9-1.4l-.1-.1c0-.2 0-.5.1-.7.1-.4-.1-.8-.3-1.2-.2-.3-.4-.6-.5-1 0-.3-.1-.7-.1-1 0-.2.1-.5.2-.7 0-.1.1-.1.2-.1s.1.1.1.1l.3.6c.2.2.2.4.2.6 0 .2.1.4.3.4.1 0 .3 0 .3.1h.3c.1 0 .3 0 .4-.1v-.2c.1-.1.2-.1.4-.2v-.4l.1-.1v-.2c0-.1 0-.2-.1-.3-.2-.6-.3-1.2-.3-1.8v-.2c0-.2.1-.3.1-.5-.1-.3-.2-.6-.2-.9-.1-.2 0-.3.2-.4.1-.1.2-.1.3-.2.2-.1.3-.2.4-.4-.2.1-.5.2-.8.2h-.3c-.1 0-.2 0-.3-.1-.3-.1-.4-.1-.5-.2-.2 0-.2 0-.1-.2 0-.1.1-.2.1-.3V.4h-.1l-.1.1-.3.3h-.1c-.1 0-.2-.1-.3-.1-.5-.1-1.1-.1-1.6-.1h-.6c-.1 0-.2.1-.3.1-.3.1-.5.1-.8.2-.2.1-.4.1-.6.3-.2.1-.5.2-.7.3-.3 0-.1.1-.1.1-.1 0-.2.1-.2.1H15c-.1 0-.3 0-.4-.1.1.1.2.1.4.2h-.1.3c-.3.1-.5.2-.7.3h.1c-.1.1-.2.1-.3.2h.1c-.1 0-.1.1-.2.1-.8.4-1.2.6-1.6.7-.1.1-.2.1-.3 0-.1 0-.1 0-.2-.1H12c.1 0 .2.1.3.1v.1c-.1.2-.1.2-.3.1h-.2s-.1 0-.1.1 0 .1.1.2v.1h-.4c.2.1.4.1.6.2 0 0 .1 0 0 0h.2H11.9h.4c-.1 0-.2.1-.3.1h-.2c.2.1.3 0 .5 0-.2.1-.5.3-.7.4-.1 0-.2 0-.4.1h-.5c.1 0 .1 0 .2.1 0 0 .1 0 .1.1v.1l.1.1H11c.1 0 .2.1.3.1h.1c-.1.1-.2.1-.3.2v.2h.4c-.1.1-.4.2-.5.3h.2c0 1.1-.1 1.2-.2 1.3h.1l.3-.1h.1c-.3.1-.5.2-.6.4.2 0 .3-.1.5-.1v.1h.3c.1 0 .1 0 .2-.1h.1c-.2.1-.3.2-.5.2h.1c.2-.1.4-.1.6-.2 0 0 0 .1-.1.1v.1h.1c.1-.1.2-.1.4-.2h.1v.1l-.1.1c.1 0 .2-.1.2-.1h.1v.1c-.2.2-.4.5-.7.6-.5.2-.9.3-1.4.5-.2.1-.4.1-.6.2-.3 0-.6 0-.8.1-.7.1-.9.2-1.1.3-.1 0-.2.1-.4.2-.5.3-1 .7-1.4 1.2-.3.4-.6.7-1 .9-.1 0-.1.1-.2.1l-.3.3c-.3.3-.6.5-.9.8-.1.1-.2.3-.2.4L3 14.8c0-.1.1-.2.1-.3v.1c-.1.3-.2.7-.4 1v.2c-.1.5-.3.9-.5 1.4-.2.2-.4.5-.6.8 0 0-.1.2-.3.2v.1s0 .1 0 0c.1-.1.3-.2.4-.3h.1v.1s0 .1-.1.1c.2-.1.3-.2.4-.3v.1c0-.1.1-.1.1-.2h.1v.1c-.2.4-.5.8-.7 1.1v.1c0-.1.1-.1.1-.2-.2.5-.5 1-.7 1.6.2 0 .2.1.2.2z" id="ajhorse"/></symbol><symbol viewBox="0 0 24 24" id="icon_img" xmlns="http://www.w3.org/2000/svg"><style/><g id="akimg"><path d="M18.1 4c1 0 1.9.9 1.9 1.9v12.2c0 1.1-.9 1.9-1.9 1.9H5.9c-1 0-1.9-.9-1.9-1.9V5.9C4 4.9 4.9 4 5.9 4h12.2m0-2H5.9C3.7 2 2 3.7 2 5.9v12.2C2 20.3 3.7 22 5.9 22h12.2c2.2 0 3.9-1.7 3.9-3.9V5.9C22 3.7 20.3 2 18.1 2z"/><path d="M21.5 13.7l-4.8-3.9c-1.1-.9-2.7-.7-3.6.4l-2.2 2.7c-.2.2-.4.3-.7.3-.2 0-.5-.1-.7-.3l-.7-.7c-1-1-2.6-1-3.6 0l-2.7 2.7.3.3-.3.3 1.1 1.1 2.7-2.7c.4-.4.9-.4 1.3 0l.7.7c.5.5 1.2.8 1.9.7.7 0 1.4-.4 1.8-.9l2.2-2.7c.3-.4.9-.5 1.3-.1l4.8 3.9 1-1.3-.1-.2.3-.3z"/></g></symbol><symbol viewBox="0 0 24 24" id="icon_info" xmlns="http://www.w3.org/2000/svg"><style/><g id="alinfo"><path d="M11 10.1h2v6.6h-2zm0-3.4h2v1.8h-2z"/><path d="M12.1 4c4.4 0 8.1 3.5 8.1 7.9s-3.6 7.9-8.1 7.9S4 16.2 4 11.9 7.6 4 12.1 4m0-2C6.5 2 2 6.4 2 11.9s4.5 9.9 10.1 9.9 10.1-4.4 10.1-9.9S17.6 2 12.1 2z"/></g></symbol><symbol viewBox="0 0 24 24" id="icon_kolokol" xmlns="http://www.w3.org/2000/svg"><style/><g id="amkolokol"><path d="M20.9 10.9c-.4 0-.6-.3-.6-.6 0-2.5-1-4.8-2.7-6.6-.3-.3-.3-.7 0-.9.3-.3.7-.3.9 0 2 2 3.1 4.7 3.1 7.5-.1.3-.4.6-.7.6zm-17.8 0c-.4 0-.6-.3-.6-.6 0-2.8 1.1-5.5 3.1-7.5.3-.3.7-.3.9 0s.3.7 0 .9c-1.8 1.8-2.7 4.1-2.7 6.6 0 .3-.3.6-.7.6zM12 22.4c-1.8 0-3.2-1.5-3.2-3.2 0-.4.3-.6.6-.6.4 0 .6.3.6.6 0 1.1.9 1.9 1.9 1.9 1.1 0 1.9-.9 1.9-1.9 0-.4.3-.6.6-.6s.6.3.6.6c.2 1.7-1.2 3.2-3 3.2z"/><path d="M19.1 19.8H4.9c-.8 0-1.5-.7-1.5-1.5 0-.4.2-.9.5-1.1C5.2 16 6 14.4 6 12.7v-2.4c0-3.3 2.7-6 6-6s6 2.7 6 6v2.4c0 1.7.7 3.3 2.1 4.4.3.3.5.7.5 1.2 0 .8-.6 1.5-1.5 1.5zM12 6.2c-2.3 0-4.2 1.9-4.2 4.2v2.1c0 1.9-.8 3.6-2.2 4.8l-.1.1c0 .1.1.2.2.2h12.7c.1 0 .2-.1.2-.2s0-.1-.1-.1c-1.4-1.2-2.2-3-2.2-4.8v-2.1c-.1-2.3-2-4.2-4.3-4.2z"/><path d="M12 5.5c-.4 0-.6-.3-.6-.6V2.3c0-.4.3-.6.6-.6s.6.3.6.6v2.6c0 .3-.2.6-.6.6z"/></g></symbol><symbol viewBox="0 0 24 24" id="icon_link" xmlns="http://www.w3.org/2000/svg"><style/><g id="anlink"><path d="M6.5 12c0 .2.1.4.2.5.1.1.3.2.5.2h9.5c.4 0 .7-.3.7-.7 0-.4-.3-.7-.7-.7H7.2c-.4 0-.7.3-.7.7z"/><path d="M16.7 13H7.2c-.3 0-.5-.1-.7-.3s-.3-.4-.3-.7c0-.5.4-1 1-1h9.5c.5 0 1 .4 1 1 0 .5-.5 1-1 1zm-9.5-1.5c-.3 0-.5.2-.5.5 0 .1 0 .2.1.3s.2.1.3.1h9.5c.3 0 .5-.2.5-.5s-.2-.5-.5-.5H7.2z"/><path d="M9.9 15.4H6.6c-.9 0-1.8-.4-2.4-1-.7-.7-1-1.5-1-2.4 0-1.9 1.5-3.4 3.4-3.4h3.3c.4 0 .7-.3.7-.7 0-.4-.3-.7-.7-.7H6.6c-2.7 0-4.9 2.2-4.9 4.9 0 1.3.5 2.5 1.4 3.4.9.9 2.1 1.4 3.4 1.4h3.3c.4 0 .7-.3.7-.7.1-.4-.2-.8-.6-.8z"/><path d="M9.9 17.1H6.6c-1.4 0-2.6-.5-3.6-1.5S1.5 13.4 1.5 12c0-2.8 2.3-5.1 5.1-5.1h3.3c.5 0 1 .4 1 1 0 .5-.4 1-1 1H6.6c-1.8 0-3.2 1.4-3.2 3.2 0 .9.3 1.7.9 2.3.6.6 1.4.9 2.3.9h3.3c.5 0 1 .4 1 1-.1.4-.5.8-1 .8zM6.6 7.4C4 7.4 2 9.5 2 12c0 1.2.5 2.4 1.4 3.3.9.9 2 1.4 3.3 1.4H10c.3 0 .5-.2.5-.5s-.2-.5-.5-.5H6.7c-1 0-1.9-.4-2.6-1.1-.8-.7-1.2-1.6-1.2-2.6 0-2 1.7-3.7 3.7-3.7h3.3c.3 0 .5-.2.5-.5s-.2-.5-.5-.5H6.6zM13.4 16.2c0 .4.3.7.7.7h3.3c1.3 0 2.5-.5 3.4-1.4.9-.9 1.4-2.1 1.4-3.4 0-2.7-2.2-4.9-4.9-4.9H14c-.4 0-.7.3-.7.7 0 .4.3.7.7.7h3.3c1.9 0 3.4 1.5 3.4 3.4 0 .9-.4 1.8-1 2.4-.7.7-1.5 1-2.4 1H14c-.3 0-.6.4-.6.8z"/><path d="M13.2 16.2c0-.5.4-1 1-1h3.3c.9 0 1.7-.3 2.3-.9.6-.6.9-1.4.9-2.3 0-1.8-1.4-3.2-3.2-3.2h-3.3c-.5 0-1-.4-1-1 0-.5.4-1 1-1h3.3c2.8 0 5.1 2.3 5.1 5.1 0 1.4-.5 2.6-1.5 3.6S18.9 17 17.5 17h-3.3c-.6.1-1-.3-1-.8zm.9-8.8c-.3 0-.5.2-.5.5s.2.5.5.5h3.3c2 0 3.7 1.7 3.7 3.7 0 1-.4 1.9-1.1 2.6-.7.7-1.6 1.1-2.6 1.1h-3.3c-.3 0-.5.2-.5.5s.2.5.5.5h3.3c1.2 0 2.4-.5 3.3-1.4.9-.9 1.4-2 1.4-3.3 0-2.5-2.1-4.6-4.6-4.6h-3.4z"/></g></symbol><symbol viewBox="0 0 24 24" id="icon_lock" xmlns="http://www.w3.org/2000/svg"><style/><path d="M20 9.2h-1.4V7.3c0-3.6-2.9-6.6-6.6-6.6s-6.6 3-6.6 6.6v1.9H4c-.3 0-.5.2-.5.5v11.7c0 1 .8 1.9 1.9 1.9h13.1c1 0 1.9-.8 1.9-1.9V9.7c.1-.3-.2-.5-.4-.5zM13.4 19c0 .1 0 .3-.1.4-.1.1-.2.2-.3.2h-1.9c-.1 0-.3-.1-.3-.2-.1-.1-.1-.2-.1-.4l.3-2.7c-.5-.3-.8-.9-.8-1.5 0-1 .8-1.9 1.9-1.9s1.9.8 1.9 1.9c0 .6-.3 1.2-.8 1.5l.2 2.7zm2.4-9.8H8.2V7.3c0-2.1 1.7-3.8 3.8-3.8s3.8 1.7 3.8 3.8v1.9z" id="aolock"/></symbol><symbol viewBox="0 0 24 24" id="icon_menu" xmlns="http://www.w3.org/2000/svg"><style/><path d="M3 6h18v2H3zm0 5h18v2H3zm0 5h18v2H3z" id="ap_menu"/></symbol><symbol viewBox="0 0 24 24" id="icon_menu2" xmlns="http://www.w3.org/2000/svg"><style/><path d="M7.2 6H21v2H7.2zm0 5H21v2H7.2zm0 5H21v2H7.2zM3 6h2v2H3zm0 5h2v2H3zm0 5h2v2H3z" id="aqmenu2"/></symbol><symbol viewBox="0 0 24 24" id="icon_moon" xmlns="http://www.w3.org/2000/svg"><style/><path d="M22.4 16c0-.2-.1-.3-.2-.5-.3-.3-.6-.4-1-.2-1 .5-2.1.7-3.2.7-1.4 0-2.7-.3-3.9-1-1.2-.7-2.1-1.6-2.8-2.8-.7-1.2-1-2.5-1-3.9 0-1.1.2-2.1.6-3.1.4-1 1.1-1.8 1.9-2.6.3-.3.4-.6.2-1s-.4-.6-.9-.6c-1.4.1-2.8.4-4.1 1-1.4.7-2.5 1.5-3.4 2.4-.9 1-1.7 2.1-2.2 3.4-.6 1.4-.8 2.7-.8 4.2s.3 2.9.9 4.2c.6 1.3 1.4 2.5 2.3 3.5 1 1 2.1 1.7 3.5 2.3 1.3.6 2.8.9 4.2.9 2.1 0 4.1-.6 5.9-1.7 1.8-1.1 3.1-2.7 4-4.6V16zm-6.1 4.2c-1.2.6-2.5.9-3.9.9-1.2 0-2.4-.2-3.5-.7-1.1-.5-2.1-1.1-2.9-1.9-.8-.8-1.5-1.8-1.9-2.9-.5-1.1-.7-2.3-.7-3.5 0-2 .6-3.8 1.8-5.4C6.4 5 8 3.9 9.9 3.3c-1 1.6-1.5 3.2-1.5 5.1 0 1.7.4 3.3 1.3 4.8s2 2.6 3.5 3.5c1.5.9 3.1 1.3 4.8 1.3.5 0 1 0 1.6-.1-1 .9-2 1.7-3.3 2.3z" id="armoon"/></symbol><symbol viewBox="0 0 24 24" id="icon_my" xmlns="http://www.w3.org/2000/svg"><style/><path d="M18 4.7v13.7l-5.3-2.7c-.2-.1-.5-.2-.8-.2s-.5.1-.8.2L6 18.4V4.7h12M19.7 3H4.3v17.4c0 .3.2.5.5.5h.1l7.1-3.7 7.1 3.7h.1c.2 0 .5-.2.5-.5V3z" id="asmy"/></symbol><symbol viewBox="0 0 24 24" id="icon_options" xmlns="http://www.w3.org/2000/svg"><path d="M18.6 3.2c1.2 0 2.2 1 2.2 2.2v13.2c0 1.2-1 2.2-2.2 2.2H5.4c-1.2 0-2.2-1-2.2-2.2V5.4c0-1.2 1-2.2 2.2-2.2h13.2m0-1.7H5.4c-2.2 0-3.9 1.7-3.9 3.9v13.2c0 2.2 1.7 3.9 3.9 3.9h13.2c2.2 0 3.9-1.7 3.9-3.9V5.4c0-2.2-1.7-3.9-3.9-3.9z"/><path d="M15.6 7.2h-1.9l-5.3 9.6h1.9l5.3-9.6z"/></symbol><symbol viewBox="0 0 24 24" id="icon_phone" xmlns="http://www.w3.org/2000/svg"><style/><path d="M18.2 14.5c-.4-.5-1-.7-1.5-.7-.6 0-1.1.2-1.5.7L13.7 16c-.1-.1-.2-.1-.3-.2-.2-.1-.3-.2-.4-.2-1.3-.8-2.5-1.9-3.7-3.4-.6-.7-.9-1.3-1.2-1.9.4-.3.7-.7 1-1 .1-.2.2-.3.3-.5.9-.9.9-2.2 0-3.1L8.2 4.5l-.4-.4c-.3-.3-.6-.6-.9-.8-.4-.5-.9-.7-1.5-.7s-1 .2-1.5.7L2.4 4.8c-.6.6-.9 1.3-1 2.1-.1 1.3.3 2.5.6 3.3.7 2 1.8 3.8 3.4 5.7 2 2.3 4.3 4.2 7 5.5 1 .5 2.4 1.1 4 1.2h.3c1 0 1.9-.4 2.6-1.1.2-.3.5-.5.8-.8l.6-.6c.4-.5.7-1 .7-1.6 0-.6-.2-1.1-.7-1.5l-2.5-2.5zm1.6 4.8l-.5.5-.9.9c-.5.5-1 .7-1.7.7h-.2c-1.3-.1-2.6-.6-3.5-1.1-2.5-1.2-4.8-3-6.6-5.2-1.5-1.8-2.6-3.6-3.2-5.4-.5-1-.7-1.9-.6-2.7 0-.5.2-1 .6-1.3l1.5-1.5c.3-.3.5-.4.7-.4.3 0 .6.2.7.3l.8.8.4.4 1.2 1.2c.5.6.5 1 .1 1.5-.2.1-.3.3-.4.4-.4.4-.8.7-1.1 1.1-.4.4-.3.8-.2 1 .3.8.8 1.5 1.5 2.4 1.2 1.5 2.5 2.7 4 3.6l.6.3c.2.1.3.2.4.2h.1c.2.1.3.1.4.1.4 0 .6-.2.7-.3l1.5-1.5c.2-.2.4-.3.7-.3.3 0 .5.2.6.3l2.5 2.5c.3.5.3 1-.1 1.5zM12.9 6.4c1.1.2 2.2.8 3.1 1.6.9.9 1.4 1.9 1.6 3.1 0 .3.3.5.6.5h.1c.3-.1.6-.4.5-.7-.2-1.4-.9-2.7-1.9-3.7s-2.3-1.7-3.7-1.9c-.3-.1-.6.2-.7.5s0 .6.4.6zm9.7 4.3c-.4-2.3-1.5-4.5-3.2-6.2-1.7-1.7-3.8-2.8-6.2-3.2-.3-.1-.6.2-.7.5-.1.3.2.6.5.7 2.1.4 4 1.3 5.5 2.9 1.5 1.5 2.5 3.4 2.9 5.5 0 .3.3.5.6.5h.1c.3 0 .6-.3.5-.7z" id="auphone"/></symbol><symbol viewBox="0 0 24 24" id="icon_ramka" xmlns="http://www.w3.org/2000/svg"><style/><g id="avramka"><path d="M18.7 6c.1 0 .3.2.3.3v11.3c0 .2-.2.3-.3.3H5.3c-.1.1-.3-.1-.3-.2V6.3c0-.1.2-.3.3-.3h13.4m0-2H5.3C4 4 3 5 3 6.3v11.3C3 19 4 20 5.3 20h13.3c1.3 0 2.3-1 2.3-2.3V6.3C21 5 20 4 18.7 4z"/><path d="M14 5h2v14h-2z"/></g></symbol><symbol viewBox="0 0 24 24" id="icon_send" xmlns="http://www.w3.org/2000/svg"><style/><path d="M21.7 10.1L5.2 3.2C4.6 3 3 2.4 2.4 2.9c-.6.5 0 1.9.1 2.6L4 11.3h7.2c.3 0 .6.3.6.6s-.3.6-.6.6H4l-1.5 5.8c-.2.7-.8 2.4-.2 2.8.6.5 2.2-.2 2.9-.5l16.5-6.8c.8-.3 2.1-1 2.1-1.8.1-.9-1.3-1.6-2.1-1.9z" id="awsend"/></symbol><symbol viewBox="0 0 24 24" id="icon_settings" xmlns="http://www.w3.org/2000/svg"><style/><g id="axsettings"><path d="M20.2 6.1l-1.5.3c-.3-.4-.7-.8-1.1-1.1l.4-1.5c.1-.6-.2-1.3-.8-1.6l-1.8-.7c-.3-.1-.7-.1-1 0-.4.1-.6.3-.7.5l-.8 1.3c-.6-.1-1.1-.1-1.7 0L10.3 2c-.3-.5-1-.8-1.6-.5l-1.8.7c-.6.3-1 .9-.8 1.6l.4 1.5c-.5.4-.9.8-1.2 1.2l-1.5-.4c-.3-.1-.6 0-.8.1-.4.1-.7.4-.8.7l-.8 1.8c-.2.6 0 1.3.6 1.7l1.3.8v1.6l-1.3.9c-.6.4-.8 1.1-.5 1.7l.7 1.8c.3.6.9 1 1.6.8l1.5-.4c.3.4.7.8 1.2 1.1l-.4 1.5c-.1.6.2 1.3.8 1.6l1.8.7c.3.1.7.1 1 0 .3-.1.5-.3.6-.5l.8-1.3h1.6l.8 1.3c.4.6 1.1.8 1.7.5l1.8-.7c.6-.3 1-.9.8-1.6l-.3-1.5c.4-.3.8-.7 1.1-1.1l1.5.4c.3.1.6 0 .8-.1.3-.1.6-.4.7-.7l.7-1.8c.3-.6 0-1.3-.5-1.7l-1.3-.8c0-.5.1-1.1 0-1.6l1.3-.8c.6-.4.8-1.1.5-1.7L21.6 7c-.1-.7-.7-1.1-1.4-.9zm1.2 3.1v.1l-1.7 1c-.2.1-.3.4-.3.6.1.7.1 1.4 0 2.1 0 .2.1.5.3.6l1.7 1s.1.1 0 .1l-.7 1.8s0 .1-.1.1h-.1l-1.9-.4c-.2-.1-.5 0-.6.2-.4.6-.9 1.1-1.5 1.5-.2.1-.3.4-.2.6l.4 1.9c0 .1 0 .1-.1.1l-1.8.7h-.1l-1-1.7c-.1-.2-.4-.3-.6-.3-.7.1-1.4.1-2 0h-.3c-.1 0-.2.1-.3.2l-1 1.7h-.2l-1.8-.7c-.1 0-.1-.1-.1-.1l.4-1.9c.1-.2 0-.5-.2-.6-.6-.4-1.1-.9-1.5-1.5-.1-.2-.4-.3-.6-.2l-1.9.4c-.1 0-.1 0-.1-.1l-.7-1.8v-.1l1.6-1c.2-.1.3-.4.3-.6-.1-.7-.1-1.4 0-2.1 0-.2-.1-.5-.3-.6l-1.7-1s-.1-.1 0-.1l.7-1.8s0-.1.1-.1h.1l1.9.4c.2.1.5 0 .6-.2.3-.4.8-.9 1.4-1.3.2-.1.3-.4.2-.6l-.4-2c0-.1 0-.1.1-.1l1.8-.7h.1l1 1.6c.1.2.4.3.6.3.7-.1 1.4-.1 2.1 0 .2 0 .5-.1.6-.3l1-1.7h.2l1.8.7c.1 0 .1.1.1.1l-.4 1.9c-.1.2 0 .5.2.6.6.4 1.1.9 1.5 1.5.1.2.4.3.6.2l1.9-.4c.1 0 .1 0 .1.1l.8 1.9z"/><path d="M10.2 7.6c-2.4 1-3.6 3.8-2.6 6.2s3.8 3.6 6.2 2.6 3.6-3.8 2.6-6.2-3.8-3.6-6.2-2.6zm3.1 7.6c-1.8.7-3.8-.1-4.6-1.9s.1-3.8 1.9-4.6c1.8-.7 3.8.1 4.6 1.9.8 1.8-.1 3.9-1.9 4.6z"/></g></symbol><symbol viewBox="0 0 24 24" id="icon_star" xmlns="http://www.w3.org/2000/svg"><style/><path d="M22.7 9.5c-.1-.2-.3-.4-.5-.4l-6.7-1-3-6.1c-.1-.2-.3-.4-.6-.4-.2 0-.5.1-.6.4l-3 6.1-6.7 1c-.2 0-.4.2-.5.4-.1.2 0 .5.2.6l4.8 4.7L5 21.5c0 .2.1.5.3.6.1.1.2.1.4.1.1 0 .2 0 .3-.1l6-3.1 6 3.1c.2.1.5.1.7 0 .2-.1.3-.4.3-.6l-1.1-6.7 4.8-4.7c.1-.1.1-.3 0-.6z" id="aystar"/></symbol><symbol viewBox="0 0 24 24" id="icon_store" xmlns="http://www.w3.org/2000/svg"><style/><path d="M19.5 13.2c-.4-.7-1.3-1-2.1-.8l-2.8-3.1c-.1-.2-.4-.2-.6-.2l-2 .6 3.1-6.1c.2-.4.2-.9.1-1.3s-.5-.8-.9-1-.9-.2-1.3-.1-.8.5-1 .9l-1.7 3.4c-.3-.1-.7-.1-1-.1-.1 0-.2.1-.3.1l.9-2.3c.2-.4.2-.9 0-1.3s-.5-.8-1-.9C8.5.8 8 .8 7.6 1s-.8.5-.9 1L4.2 8.4v14.3c0 .3.2.5.5.5H11c.3 0 .5-.2.5-.5v-1.6l7.4-5.3c.9-.7 1.1-1.8.6-2.6zm-8.7 7.1c-.1 0-.1 0 0 0l-.1.1-.1.1h.1-.1V22H5.3v-5l1.1-5.7 2.8-4.5c.1-.1.2-.3.4-.3s.3 0 .5.1c.3.2.4.6.2.9L8 11.2v.2l1.3 4.7c.1.3.4.5.7.4.3-.1.5-.4.4-.7l-.3-1 1.6-.8v.3c.1.5.5 1 1 1.2.5.2 1.1.2 1.5-.1l3.4-2c.4-.2.8-.1 1 .3.2.3.1.8-.2 1l-7.6 5.6zm-3.1-18c.1-.3.5-.5.8-.3.2 0 .3.1.4.3.1.2.1.3 0 .5L6.6 8.9l-1.2 2c0 .1-.1.1-.1.2v.2-2.6l2.4-6.4zM13 14.6c-.2-.1-.3-.2-.4-.4-.1-.3.1-.6.3-.7l.7-.4.9.9-1 .6c-.1.1-.3.1-.5 0zm2.5-1.2L14.1 12h-.6l-3.8 1.9-.5-2 5-1.5 2.3 2.6-1 .4zm-4.3-7.2L13 2.6c.1-.2.2-.3.4-.3.2-.1.3 0 .5 0 .3.2.5.6.3.9l-3.6 7.1-.9.3 1.5-2.5c.4-.6.4-1.3 0-1.9zm-.5 14.3zm0 0zm.1-.1z" id="azstore"/></symbol><symbol viewBox="0 0 24 24" id="icon_ten_no" xmlns="http://www.w3.org/2000/svg"><style/><g id="bawww"><g id="baten_x5F_no_2_"><path d="M20.2 20.2H3.8V3.8h16.4v16.4zM5.6 18.4h12.8V5.6H5.6v12.8z" id="baten_x5F_yes_2_"/></g></g></symbol><symbol viewBox="0 0 24 24" id="icon_ten_yes" xmlns="http://www.w3.org/2000/svg"><style/><g id="bbwww"><g id="bbten_x5F_yes"><g id="bbten_x5F_no_1_"><path d="M19.3 19.2H2.8V2.8h16.4l.1 16.4zM4.6 17.4h12.8V4.6H4.6v12.8z"/><path d="M18.8 5.2v13.1H4.5v2.9h16.6v-16z"/></g></g></g></symbol><symbol viewBox="0 0 24 24" id="icon_test" xmlns="http://www.w3.org/2000/svg"><style/><g id="bcwww"><g id="bctest"><path d="M20.6 5.6H3.4c-.4 0-.7-.3-.7-.7V3.8c0-.4.3-.7.7-.7h17.2c.4 0 .8.3.8.8V5c-.1.3-.4.6-.8.6z"/><path d="M12.4 4.4h-1c-.5 0-.8.4-.8.8v15c0 .5.4.8.8.8h1c.5 0 .8-.4.8-.8v-15c.1-.4-.4-.8-.8-.8z"/></g></g></symbol><symbol viewBox="0 0 24 24" id="icon_ugol" xmlns="http://www.w3.org/2000/svg"><style/><path d="M17.8 13.1l-9.4 9.4c-.6.6-1.6.6-2.2 0-.6-.6-.6-1.6 0-2.2l8.3-8.3-8.3-8.3c-.6-.6-.6-1.6 0-2.2.6-.5 1.6-.5 2.2.1l9.4 9.4c.3.3.4.7.4 1.1 0 .3-.1.7-.4 1z" id="bdugol"/></symbol><symbol viewBox="0 0 24 24" id="icon_update" xmlns="http://www.w3.org/2000/svg"><style/><path d="M12 23.1c-5.5 0-10-4.5-10-10C2 7.5 6.5 3 12 3c.4 0 .7 0 1.1.1V1.4c0-.2.1-.4.3-.5.2-.1.4 0 .6.1l3.6 3.6c.2.2.2.5 0 .7L14 8.9c-.2.1-.4.2-.6.1-.2-.1-.3-.3-.3-.5V6.8c-.4-.1-.7-.1-1.1-.1-3.5 0-6.4 2.9-6.4 6.4 0 3.5 2.9 6.4 6.4 6.4s6.4-2.9 6.4-6.4c0-.3.2-.5.5-.5h2.6c.3 0 .5.2.5.5 0 5.5-4.5 10-10 10z" id="bestore"/></symbol><symbol viewBox="0 0 24 24" id="icon_video" xmlns="http://www.w3.org/2000/svg"><style/><g id="bfvideo"><path d="M12 6c.7 0 1.3.6 1.3 1.3v9.2c0 .7-.6 1.3-1.3 1.3H5c-.7 0-1.3-.6-1.3-1.3V7.4C3.7 6.6 4.3 6 5 6h7m0-2H5C3.2 4 1.7 5.5 1.7 7.4v9.2C1.7 18.5 3.2 20 5 20h7c1.8 0 3.3-1.5 3.3-3.3V7.4C15.3 5.5 13.8 4 12 4z"/><path d="M20.6 17.9c-.3 0-.5-.1-.8-.2l-5.2-2.2.6-1.4 5.2 2.2c.2.1.4 0 .5 0s.2-.2.2-.4V7.7c0-.3-.2-.4-.2-.4-.1 0-.3-.1-.5 0l-5.3 2.3-.6-1.4 5.3-2.3c.6-.3 1.3-.2 1.9.2.6.4.9 1 .9 1.7v8.1c0 .7-.3 1.3-.9 1.7-.3.1-.7.3-1.1.3z"/><path d="M20.6 18.2c-.3 0-.6-.1-.9-.2l-5.6-2.4.9-2.1 5.6 2.4h.1c.1 0 .1-.1.1-.1V7.7c0-.1 0-.1-.1-.1h-.2L14.9 10 14 8l5.7-2.4c.7-.3 1.6-.2 2.3.2.7.4 1.1 1.2 1.1 2v8.1c0 .8-.4 1.6-1.1 2-.5.2-.9.3-1.4.3zm-5.5-2.9l4.9 2.1c.5.2 1.1.2 1.6-.1.5-.3.7-.8.7-1.4V7.7c0-.6-.3-1.1-.7-1.4-.6-.3-1.2-.3-1.7-.1l-5 2.1.4.7 5-2.2c.3-.1.6-.1.9.1.3.2.4.4.4.8v8.1c0 .3-.1.6-.4.8-.3.2-.6.2-.9.1l-4.9-2.1-.3.7z"/></g></symbol><symbol viewBox="0 0 24 24" id="icon_www" xmlns="http://www.w3.org/2000/svg"><style/><g id="bgwww"><path d="M19.8 14.7c-1.1 3.8-4.4 6.4-8.1 6.4-3.7 0-6.9-2.5-8.1-6.3l-1 .3c1.3 4.2 4.9 7 9 7 4.2 0 7.9-2.9 9.1-7.1l-.9-.3zM11.7 1.8C8.1 1.8 4.8 4 3.2 7.5l.9.4c1.5-3.1 4.4-5 7.6-5 3.4 0 6.4 2.1 7.8 5.4l.9-.4c-1.5-3.7-4.9-6.1-8.7-6.1z"/><path d="M15.8 14.1c-.5 4.1-2.1 7-3.9 7-1.7 0-3.4-2.7-3.9-6.6l-1 .2c.6 4.5 2.5 7.5 4.9 7.5s4.4-3.2 4.9-7.9l-1-.2zm-4-12.3c-2.1 0-4 2.5-4.7 6.4l1 .2c.7-3.4 2.1-5.6 3.7-5.6 1.5 0 3 2.2 3.7 5.5l1-.2c-.7-3.8-2.6-6.3-4.7-6.3z"/><path d="M4.8 5.9l-.5 1h14.6v-1zm-.9 10.3h15.3v1H3.9zM6 9.8l-.6 1.7c-.1.4-.3.8-.3 1.1H5c-.1-.4-.3-.7-.4-1.1L4 9.8h-.7l-.7 1.7c-.2.4-.3.7-.4 1.1h-.1c-.1-.4-.2-.7-.3-1.1l-.5-1.7H.4l1.3 3.4h.8l.7-1.6c.2-.4.3-.7.4-1.1.2.4.3.8.4 1.1l.7 1.6h.7l1.4-3.4H6zm8.4 0l-.6 1.7c-.1.4-.3.8-.3 1.1h-.1c-.1-.4-.3-.7-.4-1.1l-.7-1.7h-.7l-.6 1.7c-.2.4-.3.7-.4 1.1h-.1c-.1-.4-.2-.7-.3-1.1l-.5-1.7h-.9l1.3 3.4h.7l.7-1.6c.2-.4.3-.7.4-1.1.2.4.3.8.4 1.1l.7 1.6h.8l1.4-3.4h-.8zm8.4 0l-.6 1.7c-.1.4-.3.8-.3 1.1h-.1c-.1-.4-.3-.7-.4-1.1l-.7-1.7H20l-.7 1.7c-.2.4-.3.7-.4 1.1h.1c-.1-.4-.2-.7-.3-1.1l-.6-1.7h-.8l1.3 3.4h.7l.7-1.6c.2-.4.3-.7.4-1.1.2.4.3.8.4 1.1l.7 1.6h.7l1.4-3.4h-.8z"/></g></symbol><symbol viewBox="0 0 24 24" id="icon_zoom" xmlns="http://www.w3.org/2000/svg"><style/><g id="bhzoom"><path d="M10.5 6C13 6 15 8 15 10.5S13 15 10.5 15 6 13 6 10.5 8 6 10.5 6m0-2C6.9 4 4 6.9 4 10.5S6.9 17 10.5 17s6.5-2.9 6.5-6.5S14.1 4 10.5 4z"/><path d="M15.7 14.3l-1.4 1.4 5 5 1.4-1.4-5-5z"/></g></symbol></svg>